<?xml version="1.0" encoding="UTF-8" standalone="no"?>
<!-- Created with Inkscape (http://www.inkscape.org/) -->

<svg
   xmlns:dc="http://purl.org/dc/elements/1.1/"
   xmlns:cc="http://creativecommons.org/ns#"
   xmlns:rdf="http://www.w3.org/1999/02/22-rdf-syntax-ns#"
   xmlns:svg="http://www.w3.org/2000/svg"
   xmlns="http://www.w3.org/2000/svg"
   xmlns:sodipodi="http://sodipodi.sourceforge.net/DTD/sodipodi-0.dtd"
   xmlns:inkscape="http://www.inkscape.org/namespaces/inkscape"
   width="31.360001mm"
   height="23.521999mm"
   viewBox="0 0 31.360001 23.521999"
   version="1.1"
   id="svg8"
   inkscape:version="0.92.2 5c3e80d, 2017-08-06"
   sodipodi:docname="benang1.svg">
  <defs
     id="defs2" />
  <sodipodi:namedview
     id="base"
     pagecolor="#ffffff"
     bordercolor="#666666"
     borderopacity="1.0"
     inkscape:pageopacity="0.0"
     inkscape:pageshadow="2"
     inkscape:zoom="1"
     inkscape:cx="84.285714"
     inkscape:cy="17.142857"
     inkscape:document-units="mm"
     inkscape:current-layer="layer1"
     showgrid="false"
     inkscape:window-width="1280"
     inkscape:window-height="756"
     inkscape:window-x="0"
     inkscape:window-y="0"
     inkscape:window-maximized="1" />
  <metadata
     id="metadata5">
    <rdf:RDF>
      <cc:Work
         rdf:about="">
        <dc:format>image/svg+xml</dc:format>
        <dc:type
           rdf:resource="http://purl.org/dc/dcmitype/StillImage" />
        <dc:title></dc:title>
      </cc:Work>
    </rdf:RDF>
  </metadata>
  <g
     inkscape:label="Layer 1"
     inkscape:groupmode="layer"
     id="layer1"
     transform="translate(0,-273.478)">
    <g
       id="g973"
       transform="matrix(0.26458333,0,0,0.26458333,-15.289811,249.8662)">
      <path
         id="path944"
         transform="translate(-0.756,14.363)"
         d="m 62.498,163.441 c 0,-0.519 1.005,-1.936 4.3,-6.067 1.6,-2.007 2.844,-3.715 2.764,-3.796 -0.081,-0.08 -1.495,0.974 -3.142,2.345 -3.541,2.944 -4.519,3.645 -5.087,3.645 -0.974,0 -0.187,-0.98 4.073,-5.07 l 4.494,-4.317 -1.98,-1.993 c -1.518,-1.527 -1.982,-2.166 -1.982,-2.733 0,-0.611 -0.089,-0.711 -0.513,-0.577 -0.716,0.228 -2.526,-2.08 -2.755,-3.513 -0.126,-0.786 -0.286,-1.044 -0.633,-1.016 -0.331,0.026 -0.788,-0.6 -1.59,-2.179 -1.039,-2.048 -1.125,-2.377 -1.142,-4.365 -0.011,-1.279 -0.1,-1.942 -0.22,-1.636 -0.797,2.037 -0.626,-7.053 0.264,-14.008 0.416,-3.254 1.294,-6.836 1.783,-7.276 0.248,-0.224 0.4,-0.677 0.35,-1.037 -0.118,-0.839 1.209,-4.206 1.804,-4.578 0.255,-0.159 0.414,-0.48 0.353,-0.714 -0.151,-0.578 1.933,-3.749 2.576,-3.917 0.284,-0.074 0.517,-0.334 0.517,-0.577 0,-0.577 2.398,-2.936 2.985,-2.936 0.25,0 0.454,-0.17 0.454,-0.379 0,-0.687 4.422,-3.82 6.801,-4.818 0.736,-0.31 0.878,-0.302 1.077,0.055 0.192,0.343 0.444,0.23 1.534,-0.684 1.531,-1.285 1.832,-1.417 5.14,-2.26 2.94,-0.749 3.44,-0.785 3.44,-0.248 0,0.532 0.11,0.51 1.506,-0.309 1.155,-0.676 1.396,-0.71 5.95,-0.83 4.722,-0.123 4.746,-0.121 4.898,0.461 0.13,0.494 0.26,0.551 0.845,0.367 1.305,-0.412 4.07,-0.165 6.38,0.57 2.46,0.782 3.54,1.348 3.304,1.731 -0.084,0.136 -0.014,0.507 0.155,0.825 0.276,0.515 0.335,0.53 0.555,0.138 0.135,-0.242 0.497,-0.44 0.805,-0.44 0.827,0 3.119,1.558 3.119,2.12 0,0.323 0.149,0.438 0.463,0.357 0.254,-0.066 0.873,0.183 1.374,0.554 0.501,0.37 0.994,0.674 1.094,0.674 0.244,0 12.945,-15.495 12.938,-15.783 -0.003,-0.124 -0.239,-0.522 -0.524,-0.886 -0.73,-0.934 -0.7,-2.497 0.06,-3.028 1.195,-0.838 2.15,-0.523 4.471,1.477 1.744,1.501 2.306,2.574 1.86,3.552 -0.462,1.015 -1.511,1.29 -2.897,0.761 -0.638,-0.244 -1.25,-0.34 -1.362,-0.213 -0.113,0.126 -1.673,2.193 -3.468,4.595 a 565.792,565.792 0 0 1 -5.99,7.856 c -1.5,1.92 -2.728,3.62 -2.728,3.777 0,0.158 0.698,1.036 1.55,1.952 0.852,0.916 1.608,1.836 1.678,2.044 0.089,0.26 0.948,-0.369 2.741,-2.003 8.17,-7.447 12.771,-11.66 13.437,-12.301 0.734,-0.706 0.743,-0.745 0.331,-1.541 -0.576,-1.114 -0.532,-2.32 0.107,-2.96 1.045,-1.044 2.456,-0.505 4.277,1.637 2.05,2.41 2.319,3.48 1.111,4.43 -0.862,0.678 -1.05,0.68 -2.345,0.019 -0.571,-0.291 -1.148,-0.53 -1.281,-0.53 -0.318,0 -15.892,15.353 -15.998,15.77 -0.044,0.176 0.453,1.151 1.104,2.168 2.53,3.945 3.861,6.934 3.09,6.934 -0.138,0 0.515,1.572 1.45,3.494 1.966,4.04 2.563,6.322 2.608,9.971 0.028,2.314 -0.013,2.538 -0.454,2.501 -0.37,-0.03 -0.453,0.096 -0.35,0.53 0.616,2.601 0.38,4.935 -0.5,4.935 -0.317,0 -0.373,0.147 -0.229,0.595 0.232,0.719 0.23,0.92 -0.015,1.834 -0.176,0.659 -0.093,0.752 1.14,1.282 1.573,0.677 3.665,2.8 6.043,6.135 1.887,2.644 3.238,3.673 5.052,3.845 1.557,0.148 2.322,-0.389 3.508,-2.462 1.236,-2.16 2.069,-3.033 3.552,-3.724 1.815,-0.845 3.846,-0.823 6.718,0.072 2.33,0.726 3.328,0.681 3.757,-0.169 0.11,-0.218 0.582,-1.211 1.048,-2.206 0.677,-1.445 1.089,-1.963 2.043,-2.568 2.367,-1.501 5.111,-1.551 8.91,-0.163 1.755,0.643 2.167,1.098 1.91,2.118 -0.221,0.883 -0.607,0.883 -2.79,-0.005 -2.273,-0.924 -4.992,-1.012 -6.371,-0.207 -0.924,0.54 -1.24,1.025 -2.52,3.873 -0.559,1.241 -0.876,1.6 -1.825,2.059 -1.274,0.616 -2.015,0.54 -4.975,-0.51 -1.754,-0.623 -3.561,-0.691 -4.785,-0.18 -0.955,0.4 -1.79,1.336 -3.437,3.855 -1.352,2.068 -2.359,2.666 -4.49,2.666 -1.856,0 -3.641,-0.816 -5.037,-2.302 -0.52,-0.553 -1.848,-2.286 -2.953,-3.852 -2.108,-2.984 -3.36,-4.077 -4.973,-4.338 -0.773,-0.126 -0.99,-0.054 -1.237,0.407 -0.165,0.308 -0.474,0.56 -0.687,0.56 -0.221,0 -0.388,0.246 -0.388,0.572 0,1.115 -0.876,3.396 -1.305,3.397 -0.33,10e-4 -0.423,0.357 -0.457,1.752 -0.054,2.205 -0.719,4.068 -1.452,4.068 -0.393,0 -0.486,0.125 -0.368,0.496 0.117,0.369 -0.224,0.845 -1.327,1.853 -0.816,0.746 -1.802,1.435 -2.19,1.531 -0.388,0.096 -0.863,0.396 -1.056,0.667 -0.546,0.769 -3.451,2.134 -4.161,1.956 -0.42,-0.105 -0.636,-0.028 -0.695,0.25 -0.1,0.476 -5.053,2.785 -7.89,3.68 -7.121,2.243 -16.567,1.281 -26.88,-2.738 -3.125,-1.217 -5.701,-2.662 -8.53,-4.783 l -0.88,-0.661 -0.84,0.938 -4.245,4.751 c -4.123,4.614 -5.722,5.991 -5.722,4.93 z m 54.505,-7.445 c -0.182,-0.218 -0.422,-0.397 -0.534,-0.397 -0.112,0 -0.272,0.179 -0.356,0.397 -0.111,0.29 0.033,0.397 0.533,0.397 0.58,0 0.635,-0.062 0.357,-0.397 z m -4.498,-0.903 0.661,-0.188 -0.661,-0.163 c -0.364,-0.09 -1.22,-0.244 -1.904,-0.342 -1.152,-0.166 -1.24,-0.139 -1.2,0.377 0.036,0.483 0.202,0.554 1.242,0.531 0.66,-0.014 1.498,-0.111 1.862,-0.215 z m 2.508,-0.823 c -0.37,-0.409 -0.536,-0.456 -0.699,-0.198 -0.36,0.567 -0.251,0.733 0.48,0.733 0.689,0 0.693,-0.01 0.219,-0.535 z m -21.456,-0.903 a 0.406,0.406 0 0 0 -0.521,-0.236 c -0.552,0.211 -0.456,0.616 0.146,0.616 0.344,0 0.471,-0.129 0.375,-0.38 z m 18.765,-1.512 c -0.774,-0.775 -0.864,-0.803 -1.27,-0.397 -0.405,0.405 -0.393,0.453 0.177,0.67 0.516,0.195 0.987,0.334 1.8,0.53 0.07,0.017 -0.248,-0.344 -0.707,-0.803 z m -25.133,-0.723 c -0.092,-0.352 -0.29,-0.457 -0.675,-0.356 -0.524,0.137 -0.527,0.157 -0.06,0.499 0.669,0.488 0.89,0.446 0.735,-0.143 z m 9.142,-0.798 c 0.2,-0.126 0.316,-0.372 0.258,-0.545 -0.068,-0.204 -0.281,-0.121 -0.602,0.234 -0.506,0.558 -0.316,0.73 0.344,0.311 z m -15.118,-2.832 c -0.065,-0.064 -0.317,-0.041 -0.56,0.052 -0.408,0.157 -0.406,0.197 0.028,0.518 0.396,0.293 0.485,0.284 0.56,-0.052 0.05,-0.22 0.037,-0.453 -0.028,-0.518 z m 18.027,-1.045 c 0.083,-0.431 0.039,-0.45 -0.33,-0.144 -0.507,0.42 -0.57,0.91 -0.098,0.753 0.182,-0.06 0.375,-0.334 0.428,-0.609 z m -26.952,0.32 c 0,-0.05 -0.238,-0.307 -0.53,-0.57 -0.513,-0.465 -0.528,-0.463 -0.528,0.09 0,0.394 0.163,0.57 0.529,0.57 0.29,0 0.529,-0.04 0.529,-0.09 z m 29.898,-3.705 c 0,-0.05 -0.238,-0.306 -0.53,-0.57 -0.513,-0.465 -0.528,-0.462 -0.528,0.092 0,0.393 0.163,0.57 0.529,0.57 0.29,0 0.529,-0.041 0.529,-0.092 z m -24.21,-0.702 c 0.465,-0.514 0.463,-0.53 -0.09,-0.53 -0.395,0 -0.571,0.164 -0.571,0.53 0,0.291 0.041,0.53 0.091,0.53 0.05,0 0.307,-0.239 0.57,-0.53 z m -6.019,-1.541 c 0.26,-0.165 0.247,-0.32 -0.058,-0.724 -0.213,-0.282 -0.392,-0.374 -0.396,-0.204 -0.005,0.17 -0.081,0.497 -0.17,0.727 -0.173,0.452 0.094,0.538 0.624,0.2 z m 8.902,-1.788 c 0.227,-0.591 0.209,-0.64 -0.237,-0.64 -0.22,0 -0.397,0.235 -0.397,0.53 0,0.63 0.407,0.701 0.634,0.11 z m 17.094,0.296 c 0,-0.068 -0.236,-0.25 -0.524,-0.403 -0.427,-0.229 -0.494,-0.206 -0.368,0.123 0.137,0.357 0.892,0.594 0.892,0.28 z M 84.459,134.4 c 0,-0.128 -0.227,-0.232 -0.505,-0.232 -0.375,0 -0.468,0.136 -0.364,0.535 0.11,0.42 0.218,0.47 0.504,0.232 0.2,-0.167 0.365,-0.407 0.365,-0.535 z m 7.785,0.265 c -0.171,-0.277 -0.641,-0.055 -0.641,0.304 0,0.132 0.177,0.172 0.395,0.089 0.217,-0.083 0.328,-0.26 0.246,-0.393 z m -4.61,-3.826 c 0,-0.05 -0.238,-0.22 -0.53,-0.375 -0.444,-0.238 -0.529,-0.202 -0.529,0.23 0,0.384 0.135,0.479 0.53,0.376 0.29,-0.077 0.529,-0.18 0.529,-0.231 z m -12.992,-3.765 -0.027,-2.034 -0.486,1.455 c -0.65,1.947 -0.647,2.523 0.011,2.573 0.489,0.037 0.527,-0.115 0.502,-1.994 z m 7.994,-0.138 c -0.625,-0.625 -0.865,-0.528 -0.657,0.267 0.104,0.398 0.293,0.515 0.673,0.415 0.525,-0.137 0.525,-0.141 -0.016,-0.682 z m 29.075,-0.168 c 0,-0.358 -0.126,-0.473 -0.404,-0.366 -0.311,0.12 -0.334,0.238 -0.1,0.52 0.408,0.492 0.504,0.463 0.504,-0.154 z m -33.252,-2.564 c 0.193,-0.192 -0.294,-0.884 -0.622,-0.884 -0.115,0 -0.146,0.238 -0.07,0.53 0.142,0.54 0.383,0.664 0.692,0.354 z m 29.283,-0.884 c 0,-0.366 -0.176,-0.53 -0.57,-0.53 -0.553,0 -0.556,0.016 -0.091,0.53 0.263,0.291 0.52,0.53 0.57,0.53 0.05,0 0.091,-0.239 0.091,-0.53 z m -31.485,-1.323 c -0.156,-0.291 -0.325,-0.53 -0.376,-0.53 -0.05,0 -0.154,0.239 -0.23,0.53 -0.103,0.395 -0.008,0.53 0.375,0.53 0.432,0 0.469,-0.085 0.23,-0.53 z m 39.387,-0.146 c 0.084,-0.431 0.039,-0.45 -0.33,-0.144 -0.506,0.42 -0.57,0.91 -0.097,0.753 0.181,-0.06 0.374,-0.334 0.427,-0.609 z m -37.27,-4.469 c 0,-0.21 -0.12,-0.454 -0.265,-0.544 -0.146,-0.09 -0.265,-0.107 -0.265,-0.038 0,0.07 -0.072,0.315 -0.16,0.545 -0.106,0.275 -0.015,0.419 0.264,0.419 0.234,0 0.425,-0.172 0.425,-0.382 z m 20.016,-1.914 c -0.076,-0.076 -0.27,-0.056 -0.433,0.044 -0.211,0.13 -0.198,0.3 0.049,0.597 0.31,0.373 0.352,0.369 0.433,-0.045 0.05,-0.252 0.027,-0.52 -0.049,-0.596 z m 20.994,0.862 c 0,-0.403 -0.36,-0.92 -0.557,-0.798 -0.387,0.239 -0.27,0.909 0.16,0.909 0.218,0 0.397,-0.05 0.397,-0.11 z m -38.15,-4.142 c -0.053,-0.157 -0.209,-0.285 -0.347,-0.285 -0.138,0 -0.294,0.128 -0.346,0.285 -0.052,0.156 0.103,0.284 0.346,0.284 0.242,0 0.398,-0.128 0.346,-0.284 z m -15.986,-0.664 c 0.228,-0.592 0.218,-0.605 -0.35,-0.456 -0.304,0.079 -0.453,0.284 -0.369,0.504 0.19,0.492 0.52,0.47 0.72,-0.048 z m 56.594,-1.695 c -0.075,-0.29 -0.243,-0.46 -0.372,-0.381 -0.373,0.23 -0.27,0.907 0.138,0.907 0.241,0 0.324,-0.185 0.234,-0.526 z m -19.656,-0.797 c 0.238,-0.444 0.201,-0.529 -0.23,-0.529 -0.384,0 -0.48,0.134 -0.376,0.53 0.076,0.29 0.18,0.529 0.23,0.529 0.051,0 0.22,-0.239 0.376,-0.53 z m -34.594,-2.079 c 0.099,-0.376 0.016,-0.47 -0.334,-0.378 -0.306,0.08 -0.42,0.294 -0.333,0.625 0.154,0.588 0.48,0.467 0.667,-0.247 z m 17.492,-0.17 c -0.084,-0.218 -0.246,-0.396 -0.36,-0.396 -0.115,0 -0.277,0.178 -0.36,0.396 -0.104,0.27 0.012,0.397 0.36,0.397 0.346,0 0.463,-0.128 0.36,-0.397 z m 2.106,-2.408 c -0.196,-0.511 -0.546,-0.462 -0.858,0.12 -0.227,0.424 -0.177,0.475 0.368,0.37 0.407,-0.077 0.581,-0.252 0.49,-0.49 z m 17.906,-0.37 c 0.238,-0.444 0.202,-0.529 -0.23,-0.529 -0.384,0 -0.479,0.134 -0.376,0.53 0.077,0.29 0.18,0.529 0.231,0.529 0.05,0 0.22,-0.239 0.375,-0.53 z m -34.929,-1.653 c 0.002,-0.11 -0.174,-0.199 -0.393,-0.199 -0.448,0 -0.464,0.047 -0.227,0.662 0.135,0.352 0.214,0.37 0.392,0.088 0.124,-0.194 0.226,-0.442 0.228,-0.551 z m 21.995,-2.268 c 0.267,-0.113 0.365,-0.35 0.262,-0.638 -0.148,-0.413 -0.24,-0.395 -0.956,0.19 -0.68,0.555 -0.717,0.645 -0.262,0.637 0.29,-0.005 0.72,-0.09 0.956,-0.189 z m 15.316,-0.328 c 0,-0.137 -0.18,-0.249 -0.397,-0.249 -0.41,0 -0.526,0.313 -0.228,0.61 0.211,0.212 0.625,-0.027 0.625,-0.36 z m -34.66,-1.175 c 0.274,-0.33 0.237,-0.396 -0.225,-0.396 -0.383,0 -0.506,0.122 -0.4,0.396 0.083,0.219 0.184,0.397 0.223,0.397 0.04,0 0.22,-0.178 0.401,-0.397 z m 36.512,-2.249 c 0.238,-0.444 0.2,-0.529 -0.23,-0.529 -0.384,0 -0.48,0.134 -0.376,0.53 0.076,0.29 0.18,0.529 0.23,0.529 0.051,0 0.22,-0.239 0.376,-0.53 z m -10.692,-0.99 c -0.085,-0.084 -0.482,0.005 -0.883,0.2 l -0.729,0.352 0.794,0.16 c 0.551,0.11 0.821,0.05 0.884,-0.199 0.049,-0.197 0.02,-0.427 -0.066,-0.512 z m 5.93,-1.92 c 0,-0.609 -0.206,-0.646 -1.24,-0.227 l -0.745,0.301 0.661,0.201 c 1.086,0.33 1.323,0.281 1.323,-0.275 z"
         style="fill:#f9dae3;stroke-width:0.26458335"
         inkscape:connector-curvature="0" />
      <path
         id="path946"
         transform="translate(-0.756,14.363)"
         d="m 62.704,163.654 c -0.275,-0.275 0.698,-1.674 4.41,-6.335 4.892,-6.145 4.843,-6.273 -0.647,-1.688 -2.11,1.762 -4.105,3.329 -4.433,3.481 -1.588,0.738 -0.603,-0.508 3.596,-4.551 l 4.587,-4.416 -1.898,-1.837 c -1.045,-1.01 -1.997,-2.019 -2.118,-2.241 -0.47,-0.87 1.222,-13.147 2.517,-18.256 0.819,-3.231 1.932,-6.4 3.257,-9.276 4.158,-9.022 12.827,-19.386 21.306,-25.471 2.994,-2.149 7.79,-4.467 9.53,-4.608 2.16,-0.174 7.842,1.394 7.842,2.165 0,0.193 -0.644,0.477 -1.522,0.67 -2.295,0.503 -7.08,2.085 -9.428,3.118 -10.395,4.57 -19.167,14.557 -24.23,27.585 -2.004,5.16 -3.59,11.734 -4.226,17.521 -0.362,3.295 -0.373,9.47 -0.017,9.47 0.145,0 0.264,-0.432 0.264,-0.96 0,-0.924 0.029,-0.953 0.794,-0.8 0.437,0.087 0.794,0.07 0.794,-0.04 0,-0.11 -0.357,-0.513 -0.794,-0.896 -0.713,-0.625 -0.793,-0.854 -0.79,-2.242 0.004,-1.801 0.21,-2.735 0.601,-2.735 0.153,0 1.099,0.791 2.101,1.759 l 1.822,1.759 1.771,-1.93 c 2.246,-2.45 6.328,-7.53 7.925,-9.866 1.16,-1.696 1.273,-1.786 2.03,-1.62 0.718,0.158 0.764,0.132 0.445,-0.252 -0.196,-0.236 -2.904,-2.41 -6.018,-4.83 -3.115,-2.42 -5.72,-4.493 -5.79,-4.607 -0.24,-0.389 1.42,-3.697 1.855,-3.697 0.708,0 7.936,5.05 11.839,8.271 0.69,0.57 1.396,0.988 1.57,0.93 0.568,-0.19 -5.802,-5.172 -10.675,-8.35 -1.275,-0.832 -2.372,-1.647 -2.439,-1.812 -0.228,-0.563 1.953,-4.33 2.506,-4.33 0.26,0 6.158,4.04 10.865,7.443 1.986,1.436 3.682,2.61 3.77,2.61 0.863,0 -2.026,-2.237 -9.894,-7.661 -4.637,-3.196 -4.551,-3.119 -4.188,-3.815 0.729,-1.399 2.745,-3.87 3.157,-3.87 0.572,0 6.632,4.039 11.444,7.625 3.503,2.611 4.778,3.27 3.26,1.685 -0.39,-0.406 -0.709,-0.871 -0.709,-1.032 0,-0.162 1.028,-2.06 2.284,-4.22 2.538,-4.363 7.769,-13.716 9.776,-17.48 0.716,-1.343 1.436,-2.494 1.6,-2.558 0.49,-0.192 3.01,1.498 3.01,2.019 0,0.412 -1.977,5.17 -4.09,9.842 -0.512,1.135 -0.588,1.468 -0.272,1.205 0.564,-0.467 1.806,-2.975 3.57,-7.205 0.774,-1.856 1.53,-3.374 1.68,-3.374 0.15,0 0.72,0.31 1.264,0.687 0.545,0.378 1.113,0.611 1.262,0.519 0.15,-0.092 3.148,-3.684 6.664,-7.983 6.977,-8.53 6.49,-7.658 5.388,-9.66 -0.817,-1.482 0.578,-3.103 2.082,-2.417 1.103,0.502 3.815,2.973 4.15,3.779 0.708,1.71 -0.637,2.78 -2.511,1.998 -0.548,-0.23 -1.088,-0.417 -1.2,-0.417 -0.111,0 -1.555,1.81 -3.208,4.023 a 711.348,711.348 0 0 1 -6.383,8.376 l -3.376,4.354 1.723,1.784 c 1.048,1.086 1.723,2.01 1.723,2.362 0,0.317 0.11,0.537 0.244,0.489 0.245,-0.09 17.218,-15.557 17.218,-15.692 0,-0.04 -0.239,-0.613 -0.531,-1.273 -0.64,-1.445 -0.394,-2.461 0.66,-2.725 1.06,-0.267 2.097,0.334 3.555,2.058 1.895,2.24 2.105,3.412 0.748,4.173 -0.674,0.378 -0.805,0.363 -1.9,-0.217 -0.646,-0.343 -1.287,-0.581 -1.423,-0.53 -0.495,0.188 -16.19,15.785 -16.19,16.09 0,0.172 0.338,0.811 0.752,1.42 1.043,1.535 2.893,4.752 3.207,5.578 0.457,1.201 -0.12,0.749 -1.907,-1.496 -1.995,-2.506 -3.555,-4.076 -3.803,-3.828 -0.094,0.094 0.46,0.86 1.231,1.702 4.39,4.791 7.767,10.94 8.613,15.678 0.405,2.27 0.487,5.3 0.143,5.3 -0.126,0 -0.554,-0.923 -0.95,-2.051 -1.645,-4.694 -4.443,-8.987 -8.937,-13.72 -2.647,-2.786 -2.825,-3.04 -2.58,-3.682 0.144,-0.38 0.262,-0.888 0.262,-1.129 0,-0.727 -0.618,0.376 -1.303,2.325 -1.034,2.942 -3.925,8.718 -5.687,11.362 -1.872,2.809 -3.793,5.108 -4.165,4.984 -0.652,-0.217 -3.129,-2.51 -3.13,-2.898 -0.002,-0.244 0.61,-1.467 1.358,-2.719 0.748,-1.252 1.293,-2.343 1.21,-2.426 -0.167,-0.167 -1.256,1.297 -2.384,3.207 -0.674,1.14 -0.809,1.238 -1.521,1.095 -0.43,-0.086 -0.782,-0.056 -0.782,0.066 0,0.122 0.923,0.981 2.05,1.909 8.02,6.595 17.074,15.533 19.736,19.484 0.975,1.446 1.018,1.599 0.87,3.042 -0.189,1.82 -0.791,3.375 -1.308,3.375 -0.206,0 -1.119,-0.9 -2.029,-2 -2.24,-2.708 -8.496,-8.932 -12.626,-12.56 -4.201,-3.692 -11.102,-9.252 -11.481,-9.252 -0.581,0 -0.029,0.547 2.903,2.876 7.373,5.857 14.957,12.856 19.819,18.29 3.474,3.884 3.37,3.528 1.528,5.201 -0.856,0.778 -1.733,1.414 -1.95,1.414 -0.217,0 -2.49,-2.055 -5.05,-4.566 -2.562,-2.512 -6.443,-6.045 -8.625,-7.852 -5.34,-4.421 -8.281,-6.878 -11.037,-9.22 -1.268,-1.078 -2.453,-1.911 -2.632,-1.851 -0.338,0.112 3.385,3.357 12.226,10.657 5.773,4.766 14.152,12.795 13.965,13.382 -0.134,0.423 -3.046,2.08 -3.659,2.083 -0.218,0 -1.707,-1.2 -3.307,-2.667 -6.765,-6.201 -22.95,-20.074 -23.419,-20.074 -0.097,0 -0.306,0.284 -0.465,0.632 -0.655,1.439 -9.466,11.816 -10.545,12.42 -0.244,0.136 -0.635,0.06 -1.03,-0.199 -0.351,-0.23 -0.776,-0.418 -0.945,-0.418 -0.572,0 0.276,0.735 2.482,2.15 4.582,2.94 10.675,5.283 16.499,6.346 2.57,0.47 4.041,0.566 8.162,0.537 2.85,-0.02 5.862,-0.187 6.955,-0.385 1.623,-0.294 2.01,-0.292 2.448,0.014 1.078,0.756 0.535,1.016 -3.846,1.842 -3.353,0.632 -12,0.63 -15.479,-0.003 -6.888,-1.254 -13.434,-3.653 -18.081,-6.626 -1.502,-0.96 -2.027,-1.156 -2.027,-0.753 0,0.322 3.78,2.529 6.641,3.878 9.365,4.417 21.232,5.812 31.182,3.664 2.589,-0.559 3.286,-0.574 3.386,-0.076 0.102,0.506 -5.828,3.162 -8.995,4.028 -1.9,0.52 -2.819,0.598 -7.078,0.598 -4.367,0 -5.266,-0.08 -8.335,-0.742 -3.997,-0.861 -9.67,-2.709 -12.7,-4.136 -1.164,-0.549 -3.066,-1.684 -4.226,-2.523 -1.16,-0.839 -2.245,-1.577 -2.41,-1.64 -0.166,-0.064 -1.972,1.766 -4.016,4.066 -4.184,4.709 -6.5,7.05 -6.737,6.811 z m 40.655,-43.881 c -0.088,-0.35 -0.015,-0.916 0.162,-1.257 0.286,-0.552 0.23,-0.535 -0.505,0.155 -0.775,0.728 -0.8,0.805 -0.39,1.257 0.605,0.669 0.923,0.601 0.733,-0.155 z m 12.714,-11.737 c 1.382,-2.857 3.84,-8.932 3.84,-9.492 0,-0.844 -0.464,-0.026 -1.579,2.783 -0.6,1.51 -1.74,4.166 -2.534,5.902 -0.794,1.735 -1.443,3.223 -1.443,3.305 0,0.517 0.871,-0.752 1.716,-2.498 z M 100.2,154.89 c -1.866,-0.237 -6.242,-1.234 -6.378,-1.453 -0.143,-0.232 1.512,-2.268 2.169,-2.667 0.18,-0.11 1.412,0.216 2.741,0.723 2.158,0.823 5.742,1.935 8.951,2.776 0.623,0.163 1.062,0.41 0.977,0.549 -0.148,0.238 -6.709,0.294 -8.46,0.072 z m 9.224,-0.895 c -5.532,-1.162 -12.333,-3.466 -12.458,-4.22 -0.036,-0.217 0.38,-0.898 0.923,-1.516 l 0.989,-1.122 3.333,1.679 c 1.833,0.923 4.96,2.212 6.95,2.864 3.452,1.131 5.137,2.047 4.793,2.604 -0.236,0.382 -1.817,0.281 -4.53,-0.289 z m -18.616,-1.324 c -2.295,-0.801 -3.44,-1.361 -3.44,-1.682 0,-0.163 1.023,-1.306 2.274,-2.54 1.25,-1.233 3.522,-3.701 5.047,-5.484 1.526,-1.782 2.86,-3.24 2.966,-3.24 0.361,0 3.207,2.687 3.207,3.029 0,1.181 -7.84,10.754 -8.555,10.445 -0.024,-0.011 -0.699,-0.248 -1.5,-0.528 z m 16.248,-2.338 c -3.138,-1.196 -6.98,-3.158 -7.335,-3.747 -0.325,-0.538 1.33,-3.146 2,-3.153 0.495,-0.005 8.93,7.245 8.93,7.675 0,0.452 -0.859,0.267 -3.595,-0.775 z m -23.34,-0.84 c -1.064,-0.59 -2,-1.246 -2.082,-1.458 -0.092,-0.24 0.64,-1.26 1.94,-2.695 3.02,-3.34 4.837,-5.48 6.562,-7.733 0.836,-1.091 1.677,-2.074 1.87,-2.184 0.227,-0.131 1.14,0.45 2.618,1.669 1.248,1.028 2.27,1.961 2.27,2.073 0,0.397 -4.38,5.498 -7.239,8.43 -1.88,1.93 -3.096,2.976 -3.454,2.974 -0.304,-0.002 -1.423,-0.486 -2.486,-1.076 z m 60.521,0.46 c -2.16,-0.594 -3.192,-1.56 -6.25,-5.854 -2.12,-2.974 -3.482,-4.195 -5.027,-4.505 -0.654,-0.131 -0.969,-0.043 -1.406,0.394 -0.31,0.31 -0.666,0.526 -0.793,0.48 -0.127,-0.045 -1.565,-2.106 -3.194,-4.58 -4.76,-7.227 -8.31,-11.516 -10.973,-13.26 -0.358,-0.235 -0.65,-0.589 -0.65,-0.786 0,-0.197 0.612,-1.433 1.36,-2.747 0.95,-1.667 1.51,-2.39 1.854,-2.39 0.675,0 5.778,5.135 8.1,8.15 2.31,2.999 4.283,6.224 5.369,8.776 0.694,1.63 0.771,2.029 0.531,2.718 -0.407,1.17 -0.389,1.205 0.813,1.565 1.518,0.455 3.624,2.466 5.81,5.55 1.814,2.558 2.737,3.461 4.393,4.299 1.948,0.984 3.55,0.213 5.154,-2.483 2.355,-3.958 4.92,-4.78 10.172,-3.263 2.307,0.666 2.477,0.68 3.106,0.268 0.41,-0.268 0.888,-1.043 1.242,-2.014 1.383,-3.794 4.595,-5.194 9.23,-4.022 2.615,0.661 3.82,1.305 3.936,2.1 0.134,0.92 -0.61,0.982 -2.82,0.24 -2.723,-0.913 -3.792,-1.06 -5.132,-0.704 -1.83,0.487 -2.713,1.341 -3.49,3.378 -1.317,3.446 -2.597,3.985 -6.428,2.712 -2.908,-0.967 -4.064,-1.011 -5.638,-0.216 -1.142,0.577 -1.743,1.265 -3.515,4.025 -1.342,2.09 -3.32,2.836 -5.754,2.168 z m -80.279,-6.44 c -0.52,-0.68 -1.016,-1.518 -1.102,-1.862 -0.45,-1.792 1.052,-12.969 2.427,-18.062 2.125,-7.874 8.27,-19.334 13.864,-25.853 3.358,-3.914 10.098,-9.28 12.128,-9.657 1.488,-0.275 8.74,-0.25 8.914,0.033 0.083,0.135 -1.149,0.921 -2.739,1.747 -3.97,2.063 -7.966,5.132 -12.204,9.375 -5.97,5.976 -9.933,11.33 -13.128,17.736 -3.064,6.142 -4.697,12.112 -5.912,21.607 -0.783,6.124 -0.792,6.174 -1.063,6.174 -0.132,0 -0.665,-0.557 -1.185,-1.237 z m 64.326,0.173 c -1.36,-2.303 -5.693,-6.909 -11.887,-12.635 -2.442,-2.258 -4.407,-4.201 -4.365,-4.318 0.134,-0.382 3.203,-4.207 3.375,-4.207 0.347,0 3.895,3.187 5.054,4.54 2.608,3.046 9.36,12.915 9.664,14.126 0.196,0.782 -0.523,3.145 -0.985,3.236 -0.205,0.04 -0.59,-0.293 -0.856,-0.742 z m -54.321,-1.647 c -0.889,-0.91 -1.735,-1.892 -1.88,-2.183 -0.281,-0.561 0.01,-3.02 0.866,-7.308 0.526,-2.638 0.79,-3.218 1.186,-2.613 0.143,0.218 0.263,0.813 0.265,1.322 0.012,2.267 1.168,7.176 2.41,10.234 0.411,1.013 0.003,2.202 -0.755,2.202 -0.262,0 -1.203,-0.744 -2.092,-1.654 z m 3.057,-1.72 c -1.42,-3.308 -2.588,-11.438 -2.08,-14.486 0.336,-2.013 0.776,-3.042 1.3,-3.042 0.958,0 1.262,0.817 1.429,3.836 0.189,3.412 0.435,4.913 1.55,9.423 l 0.824,3.337 -0.88,1.094 c -0.483,0.603 -1.042,1.095 -1.241,1.095 -0.2,0 -0.605,-0.565 -0.902,-1.257 z m -16.531,-2.38 -0.975,-2.051 0.16,-3.185 c 0.36,-7.133 2.52,-14.617 6.528,-22.612 4.12,-8.22 8.858,-14.813 13.195,-18.361 1.478,-1.21 2.17,-1.568 4.122,-2.133 2.868,-0.831 4.378,-1.09 4.378,-0.752 0,0.139 -1.179,1.172 -2.62,2.295 -6.425,5.008 -11.926,12.275 -16.45,21.729 -3.811,7.968 -5.477,14.15 -6.364,23.624 -0.232,2.478 -0.426,3.496 -0.664,3.496 -0.185,0 -0.774,-0.923 -1.31,-2.05 z m 19.752,-0.42 c -1.036,-2.726 -2.446,-12.14 -1.9,-12.686 0.355,-0.355 1.237,0.083 2.496,1.24 0.845,0.778 0.898,0.935 1.051,3.12 0.11,1.561 0.384,2.859 0.853,4.033 0.381,0.952 0.607,1.88 0.503,2.064 -0.606,1.063 -2.121,2.847 -2.419,2.847 -0.192,0 -0.455,-0.279 -0.584,-0.619 z m 3.024,-4.505 c -0.331,-0.794 -0.917,-3.72 -0.922,-4.61 -0.001,-0.186 0.169,-0.404 0.377,-0.484 0.47,-0.18 3.585,2.257 3.588,2.806 0.003,0.595 -1.86,3.177 -2.293,3.177 -0.208,0 -0.545,-0.4 -0.75,-0.89 z m 49.565,-0.373 c -1.368,-3.48 -5.576,-9.19 -10.044,-13.625 -1.872,-1.859 -3.403,-3.456 -3.403,-3.55 0,-0.094 0.444,-1.223 0.988,-2.509 0.677,-1.602 1.126,-2.337 1.426,-2.337 0.569,0 4.2,3.842 6.435,6.808 2.103,2.792 4.42,7.361 5.2,10.256 0.715,2.653 0.83,5.767 0.217,5.891 -0.278,0.057 -0.554,-0.259 -0.82,-0.934 z m -74.113,-0.854 c -0.283,-1.033 -0.223,-3.32 0.215,-8.132 0.649,-7.136 1.739,-12.565 2.553,-12.718 0.725,-0.137 2.615,0.474 2.778,0.896 0.082,0.216 -0.45,1.906 -1.185,3.757 -2.102,5.3 -3.16,9.248 -3.842,14.345 -0.242,1.803 -0.388,2.326 -0.519,1.852 z m 35.795,-18.683 a 141.73,141.73 0 0 0 -6.152,-4.267 c -1.71,-1.106 -3.108,-2.149 -3.108,-2.317 0,-0.168 0.294,-0.582 0.654,-0.92 l 0.655,-0.616 3.511,0.464 c 1.932,0.256 4.524,0.757 5.762,1.115 2.842,0.823 5.557,2.14 5.557,2.695 0,0.778 -3.23,6.145 -3.679,6.113 -0.086,-0.006 -1.527,-1.026 -3.2,-2.267 z m -31.485,-2.527 c -1.672,-0.47 -1.734,-0.702 -0.792,-2.965 0.462,-1.11 0.944,-2.082 1.07,-2.16 0.296,-0.183 2.685,1.022 3.16,1.594 0.312,0.376 0.246,0.668 -0.478,2.137 -0.908,1.84 -1.08,1.922 -2.96,1.394 z m 37.996,-2.557 c -0.213,-0.343 -3.93,-1.802 -5.83,-2.287 -0.863,-0.22 -2.887,-0.593 -4.498,-0.828 -1.612,-0.235 -3.02,-0.481 -3.13,-0.547 -0.377,-0.228 0.34,-1.12 2.103,-2.615 l 1.768,-1.5 1.85,0.182 c 3.924,0.387 10.499,2.616 10.915,3.7 0.245,0.64 -1.765,3.964 -2.457,4.063 -0.312,0.044 -0.637,-0.03 -0.721,-0.168 z m -35.814,-2.473 c -0.764,-0.43 -1.389,-0.899 -1.389,-1.042 0,-0.911 1.96,-3.675 2.607,-3.675 0.586,0 2.623,1.309 2.815,1.809 0.204,0.532 -1.733,3.754 -2.236,3.718 -0.224,-0.016 -1.033,-0.38 -1.797,-0.81 z m 37.902,-2.918 c -1.876,-0.99 -5.07,-2.037 -7.594,-2.487 -1.353,-0.242 -2.557,-0.527 -2.676,-0.633 -0.252,-0.228 1.255,-1.454 3.097,-2.521 1.212,-0.702 1.38,-0.731 2.651,-0.465 2.721,0.571 8.1,3.039 8.091,3.713 0,0.108 -0.36,0.823 -0.799,1.587 -0.891,1.554 -1.19,1.641 -2.77,0.806 z m -34.793,-1.562 c -0.655,-0.429 -1.234,-0.907 -1.287,-1.063 -0.123,-0.358 2.072,-2.613 2.543,-2.613 0.544,0 2.448,1.036 2.448,1.332 0,0.457 -1.913,3.167 -2.22,3.145 -0.161,-0.011 -0.829,-0.372 -1.484,-0.8 z m 36.248,-2.905 c -1.091,-0.563 -2.75,-1.297 -3.684,-1.631 -0.935,-0.334 -1.743,-0.738 -1.797,-0.898 -0.053,-0.16 0.678,-0.62 1.625,-1.022 1.325,-0.563 1.978,-0.698 2.83,-0.583 1.55,0.208 4.996,1.946 4.99,2.517 -0.006,0.686 -1.15,2.556 -1.59,2.6 -0.214,0.022 -1.282,-0.42 -2.374,-0.983 z M 71.295,97.394 c -0.473,-0.289 -0.86,-0.646 -0.86,-0.794 0,-0.7 6.614,-4.854 7.043,-4.425 0.11,0.11 -0.337,0.764 -0.995,1.452 a 66.23,66.23 0 0 0 -2.463,2.772 c -0.698,0.836 -1.403,1.52 -1.567,1.52 -0.164,0 -0.685,-0.237 -1.158,-0.525 z m 35.52,-2.803 c -1.019,-0.5 -1.891,-1.026 -1.94,-1.17 -0.11,-0.329 0.558,-0.58 3.49,-1.313 1.481,-0.37 2.436,-0.494 2.595,-0.335 0.307,0.306 -1.533,3.775 -1.986,3.746 -0.169,-0.01 -1.14,-0.429 -2.159,-0.928 z"
         style="fill:#f6cad7;stroke-width:0.26458335"
         inkscape:connector-curvature="0" />
      <path
         id="path948"
         transform="translate(-0.756,14.363)"
         d="m 62.704,163.654 c -0.275,-0.275 0.697,-1.673 4.41,-6.335 4.892,-6.145 4.843,-6.273 -0.647,-1.688 -3.839,3.206 -4.872,3.916 -5.21,3.578 -0.224,-0.224 0.925,-1.42 5.503,-5.731 l 3.6,-3.39 -2.101,-2.073 -2.102,-2.073 0.17,-2.25 c 0.382,-5.056 1.776,-13.34 2.916,-17.33 2.58,-9.028 7.353,-16.999 15.117,-25.248 7.094,-7.536 15.94,-13.135 19.866,-12.573 1.9,0.272 6.208,1.7 6.1,2.023 -0.051,0.156 -1.517,0.675 -3.257,1.154 -5.362,1.476 -9.562,3.283 -13.003,5.592 -5.944,3.99 -11.876,10.782 -15.785,18.072 -2.753,5.136 -5.366,12.995 -6.508,19.58 -0.91,5.247 -1.354,12.809 -0.83,14.149 0.199,0.511 0.21,0.51 0.51,-0.049 0.168,-0.314 0.306,-0.881 0.306,-1.26 0,-0.608 0.062,-0.655 0.534,-0.402 0.998,0.534 1.13,-0.031 0.225,-0.965 -0.846,-0.872 -0.872,-0.965 -0.797,-2.806 0.043,-1.047 0.138,-2.001 0.212,-2.121 0.075,-0.12 0.96,0.56 1.97,1.512 1.009,0.952 1.942,1.731 2.073,1.731 0.654,0 7.176,-7.706 9.93,-11.733 0.843,-1.234 1.165,-1.514 1.636,-1.423 1.596,0.305 0.963,-0.449 -2.994,-3.565 -2.305,-1.814 -5.053,-3.94 -6.108,-4.725 -1.056,-0.785 -1.919,-1.564 -1.919,-1.731 0,-0.476 1.263,-3.213 1.57,-3.403 0.356,-0.22 5.385,3.149 9.278,6.214 4.1,3.228 4.209,3.3 4.531,2.976 0.4,-0.399 -5.123,-4.798 -10.55,-8.405 -1.492,-0.991 -2.712,-1.915 -2.712,-2.054 0,-0.138 0.431,-1.073 0.959,-2.076 0.624,-1.188 1.119,-1.825 1.418,-1.825 0.417,0 6.174,3.9 11.91,8.07 2.844,2.067 2.826,2.057 3.005,1.592 0.142,-0.37 -5.312,-4.448 -12.067,-9.02 -1.273,-0.863 -2.315,-1.702 -2.315,-1.865 0,-0.388 2.88,-4.333 3.164,-4.333 0.391,0 8.008,5.167 11.644,7.898 2.47,1.856 3.647,2.592 3.836,2.4 0.19,-0.191 0.008,-0.496 -0.588,-0.988 -0.474,-0.391 -0.861,-0.79 -0.86,-0.887 0.001,-0.096 1.03,-1.942 2.286,-4.1 2.431,-4.18 7.563,-13.35 9.858,-17.618 0.764,-1.42 1.529,-2.578 1.7,-2.575 0.173,0.003 0.886,0.364 1.585,0.803 1.07,0.672 1.243,0.892 1.092,1.384 -0.179,0.586 -3.13,7.436 -4.44,10.31 -0.64,1.4 -0.653,1.495 -0.165,1.19 0.666,-0.415 2.18,-3.32 3.966,-7.607 0.758,-1.819 1.462,-3.399 1.565,-3.51 0.103,-0.113 0.7,0.167 1.328,0.62 0.626,0.455 1.213,0.716 1.304,0.581 0.09,-0.135 3.066,-3.787 6.613,-8.116 7.04,-8.591 6.549,-7.714 5.446,-9.715 -0.817,-1.483 0.578,-3.104 2.082,-2.418 1.103,0.502 3.815,2.973 4.15,3.779 0.708,1.71 -0.637,2.78 -2.511,1.998 -0.548,-0.23 -1.088,-0.417 -1.2,-0.417 -0.111,0 -1.555,1.81 -3.208,4.023 -4.612,6.172 -9.648,12.715 -10.271,13.345 -0.309,0.312 -1.104,1.919 -1.767,3.572 a 158.272,158.272 0 0 1 -2.654,6.14 c -0.797,1.723 -1.387,3.195 -1.312,3.27 0.63,0.63 3.659,-5.715 6.118,-12.816 0.192,-0.555 0.875,-0.079 2.259,1.577 0.974,1.166 1.284,1.732 1.162,2.116 -0.131,0.415 -0.082,0.478 0.234,0.299 0.399,-0.225 17.38,-15.692 17.38,-15.83 0,-0.04 -0.239,-0.613 -0.531,-1.273 -0.64,-1.445 -0.394,-2.461 0.66,-2.725 1.06,-0.267 2.097,0.334 3.555,2.058 1.895,2.24 2.105,3.412 0.748,4.173 -0.674,0.378 -0.805,0.363 -1.9,-0.217 -0.646,-0.343 -1.286,-0.581 -1.422,-0.53 -0.136,0.052 -3.911,3.697 -8.389,8.1 l -8.141,8.006 1.205,1.813 c 1.379,2.073 2.944,5.066 2.643,5.054 -0.11,-0.004 -0.583,-0.51 -1.049,-1.125 -0.465,-0.614 -1.556,-1.89 -2.422,-2.836 -1.192,-1.3 -1.652,-1.646 -1.888,-1.419 -0.237,0.228 0.145,0.8 1.59,2.381 3.233,3.537 6.238,8.53 7.621,12.664 0.648,1.939 1.255,6.703 0.9,7.06 -0.157,0.156 -0.517,-0.474 -0.965,-1.686 -1.754,-4.749 -4.658,-9.15 -8.845,-13.404 l -2.739,-2.784 0.292,-0.973 c 0.383,-1.28 0.368,-1.587 -0.07,-1.419 -0.2,0.077 -0.871,1.472 -1.492,3.101 -0.622,1.629 -1.723,4.152 -2.448,5.607 -2.156,4.332 -6.18,10.187 -7,10.187 -0.41,0 -3.25,-2.352 -3.25,-2.692 0,-0.115 0.468,-0.974 1.04,-1.909 0.572,-0.935 1.283,-2.175 1.58,-2.756 0.504,-0.989 0.508,-1.048 0.058,-0.93 -0.265,0.069 -1.05,1.067 -1.745,2.217 -1.506,2.491 -1.838,2.823 -2.377,2.375 -0.381,-0.316 -1.04,-0.142 -0.885,0.234 0.044,0.107 1.78,1.65 3.86,3.43 9.443,8.08 17.083,15.901 18.8,19.246 0.46,0.895 -0.384,5.126 -1.021,5.126 -0.113,0 -1.217,-1.16 -2.454,-2.58 -2.725,-3.125 -9.356,-9.642 -13.152,-12.926 -4.21,-3.641 -10.41,-8.584 -10.664,-8.5 -0.6,0.2 -0.025,0.81 3.265,3.463 8.093,6.526 15.498,13.425 20.048,18.681 1.192,1.377 2.168,2.71 2.168,2.961 0,0.44 -2.658,2.738 -3.166,2.738 -0.136,0 -2.128,-1.847 -4.427,-4.103 -2.3,-2.257 -5.61,-5.31 -7.356,-6.786 -5.355,-4.524 -14.446,-12.11 -14.963,-12.484 -0.507,-0.367 -1.168,-0.192 -0.903,0.238 0.083,0.134 4.044,3.486 8.802,7.448 8.813,7.339 17.6,15.562 17.457,16.335 -0.042,0.226 -0.806,0.796 -1.697,1.268 l -1.62,0.857 -1.071,-0.857 c -0.59,-0.472 -3.312,-2.871 -6.052,-5.333 -5.451,-4.897 -13.687,-11.986 -17.395,-14.973 l -2.361,-1.9 -0.391,0.752 c -1.08,2.08 -10.075,12.526 -10.785,12.526 -0.216,0 -0.681,-0.188 -1.034,-0.42 -0.744,-0.487 -1.394,-0.274 -0.917,0.302 0.572,0.689 4.578,3.105 7.24,4.367 3.63,1.72 6.748,2.773 10.714,3.62 3.02,0.646 3.869,0.713 9.022,0.721 3.587,0.006 6.358,-0.117 7.5,-0.333 1.383,-0.262 1.898,-0.27 2.182,-0.034 0.648,0.537 0.419,0.72 -1.413,1.132 -4.831,1.086 -11.99,1.325 -17.068,0.57 -6.777,-1.005 -13.635,-3.476 -18.922,-6.815 -1.17,-0.739 -1.767,-0.979 -1.96,-0.786 -0.407,0.407 1.452,1.66 5.378,3.627 9.618,4.819 20.593,6.446 30.909,4.582 4.426,-0.8 5.121,-0.866 4.991,-0.476 -0.139,0.416 -5.272,2.725 -7.928,3.564 -6.891,2.18 -16.211,1.187 -26.495,-2.82 -2.61,-1.018 -4.226,-1.862 -6.497,-3.396 l -3.024,-2.041 -3.647,4.131 c -4.095,4.64 -6.686,7.268 -6.927,7.027 z M 98.6,124.356 a 0.295,0.295 0 0 0 -0.405,-0.096 0.295,0.295 0 0 0 -0.096,0.405 c 0.085,0.138 0.267,0.181 0.405,0.096 a 0.295,0.295 0 0 0 0.096,-0.405 z m 5.021,-4.594 c -0.094,-0.372 0.067,-1.048 0.409,-1.718 l 0.563,-1.103 -0.675,0.442 c -0.37,0.243 -0.674,0.518 -0.674,0.612 0,0.094 -0.296,0.49 -0.657,0.88 l -0.658,0.709 0.689,0.541 c 0.813,0.64 1.218,0.494 1.003,-0.363 z m -1.964,35.13 c -3.506,-0.355 -7.673,-1.276 -7.673,-1.697 0,-0.144 0.46,-0.756 1.024,-1.36 l 1.023,-1.097 4.599,1.508 c 2.53,0.83 5.299,1.698 6.155,1.93 1.091,0.297 1.447,0.492 1.19,0.654 -0.348,0.221 -4.357,0.26 -6.318,0.062 z m 9.128,-0.775 c -4.728,-0.84 -13.265,-3.513 -13.544,-4.242 -0.148,-0.385 1.064,-2.162 1.62,-2.376 0.179,-0.068 1.03,0.274 1.89,0.761 2.252,1.273 6.239,2.939 9.331,3.9 2.773,0.861 3.968,1.542 3.64,2.073 -0.226,0.365 -0.232,0.365 -2.937,-0.116 z m -21.1,-1.987 c -1.128,-0.442 -2.051,-0.933 -2.051,-1.091 0,-0.159 1.226,-1.549 2.724,-3.09 1.498,-1.54 3.66,-3.932 4.804,-5.314 1.143,-1.383 2.225,-2.55 2.403,-2.594 0.32,-0.078 2.722,1.833 3.092,2.46 0.21,0.356 -1.589,3.105 -3.981,6.087 -2.432,3.03 -3.776,4.366 -4.382,4.355 -0.308,-0.006 -1.482,-0.371 -2.61,-0.813 z m 17.925,-1.713 c -3.035,-1.056 -7.805,-3.496 -7.805,-3.993 0,-0.55 1.553,-2.996 1.902,-2.996 0.27,0 7.369,6.11 8.259,7.108 0.496,0.556 0.496,0.565 0,0.545 -0.277,-0.01 -1.338,-0.31 -2.356,-0.664 z m -23.568,-0.89 c -1.03,-0.571 -2.015,-1.21 -2.19,-1.42 -0.26,-0.314 0.138,-0.875 2.215,-3.126 1.393,-1.509 3.745,-4.261 5.227,-6.117 1.482,-1.855 2.816,-3.372 2.965,-3.37 0.386,0.003 4.37,3.408 4.37,3.735 0,0.776 -9.717,11.348 -10.423,11.34 -0.16,-0.002 -1.134,-0.471 -2.164,-1.042 z m 59.803,0.165 c -2.136,-0.823 -3.08,-1.744 -5.603,-5.47 -1.536,-2.27 -3.305,-4.075 -4.39,-4.483 -1.07,-0.402 -2.215,-0.346 -2.393,0.117 -0.335,0.873 -0.964,0.245 -3.203,-3.199 -4.66,-7.167 -7.51,-10.722 -10.944,-13.651 l -1.41,-1.203 1.421,-2.464 c 0.782,-1.356 1.57,-2.514 1.75,-2.574 0.459,-0.153 6.486,5.981 8.386,8.534 2.012,2.704 4.127,6.214 5.013,8.32 0.549,1.302 0.66,1.893 0.525,2.79 l -0.17,1.136 1.473,0.675 c 1.72,0.788 3.272,2.304 5.268,5.148 1.556,2.218 3.5,4.157 4.574,4.566 0.926,0.352 2.325,0.322 3.18,-0.067 0.416,-0.19 1.285,-1.215 2.1,-2.478 1.595,-2.473 2.643,-3.377 4.438,-3.828 1.501,-0.377 3.124,-0.22 5.444,0.529 2.975,0.96 3.7,0.719 4.53,-1.505 1.183,-3.165 3.133,-4.558 6.388,-4.563 2.784,-0.004 6.841,1.394 6.841,2.358 0,0.824 -0.774,0.86 -2.613,0.12 -2.476,-0.994 -4.914,-1.139 -6.472,-0.384 -1.355,0.656 -1.793,1.226 -2.6,3.386 -1.143,3.054 -2.625,3.592 -6.327,2.298 -1.55,-0.543 -2.333,-0.667 -3.713,-0.59 -2.218,0.125 -3.253,0.86 -4.702,3.335 -1.163,1.988 -1.927,2.8 -3.025,3.216 -0.955,0.361 -2.733,0.329 -3.766,-0.07 z m -79.407,-5.8 c -1.595,-1.779 -1.775,-3.489 -1.014,-9.633 1.092,-8.824 2.604,-13.987 6.34,-21.655 4.643,-9.526 10.197,-16.594 17.076,-21.73 3.71,-2.77 3.646,-2.747 8.301,-2.929 5.545,-0.216 5.8,-0.02 2.309,1.772 -6.516,3.347 -13.72,9.905 -19.768,17.996 -7.3,9.766 -10.517,19.027 -12.152,34.988 -0.1,0.982 -0.267,1.786 -0.37,1.786 -0.104,0 -0.428,-0.268 -0.722,-0.596 z m 63.062,-1.504 c -1.733,-2.345 -7.266,-8.037 -11.953,-12.296 -1.746,-1.586 -3.211,-3.035 -3.256,-3.218 -0.087,-0.358 2.781,-4.083 3.144,-4.083 0.303,0 3.092,2.374 4.238,3.607 2.174,2.34 7.578,9.955 9.877,13.917 0.727,1.252 0.727,1.253 0.287,2.577 -0.242,0.728 -0.524,1.376 -0.627,1.44 -0.104,0.064 -0.873,-0.811 -1.71,-1.944 z m -53.724,-0.777 -1.82,-1.836 0.182,-1.679 c 0.224,-2.068 1.325,-7.573 1.563,-7.811 0.3,-0.3 0.372,-0.033 0.808,2.957 0.468,3.214 1.093,5.614 2.021,7.77 0.451,1.046 0.54,1.532 0.34,1.851 -0.559,0.893 -1.242,0.616 -3.094,-1.252 z m 3.362,-1.292 c -1.787,-4.27 -2.771,-13.124 -1.783,-16.026 0.542,-1.588 0.846,-1.753 1.606,-0.868 0.532,0.618 0.619,1.003 0.62,2.754 0.002,2.626 0.563,6.284 1.548,10.098 l 0.783,3.035 -0.791,1 c -0.436,0.55 -0.967,1 -1.18,1 -0.214,0 -0.575,-0.447 -0.803,-0.993 z m -16.427,-2.235 c -1.106,-2.362 -1.152,-2.702 -0.859,-6.294 0.725,-8.874 4,-18.12 9.857,-27.83 2.586,-4.287 4.574,-6.927 7.341,-9.746 3.396,-3.46 3.962,-3.837 6.973,-4.638 4.086,-1.088 4.156,-0.892 0.674,1.89 -4.564,3.644 -7.333,6.809 -11.36,12.983 -2.138,3.277 -5.45,9.769 -7.065,13.848 -2.094,5.287 -3.56,12.55 -4.107,20.348 -0.1,1.437 -0.611,1.24 -1.454,-0.561 z m 19.844,-0.278 c -0.353,-0.442 -1.555,-5.633 -1.903,-8.221 -0.338,-2.512 -0.362,-4.942 -0.049,-4.942 0.127,0 0.831,0.478 1.566,1.063 l 1.335,1.063 0.167,2.046 c 0.091,1.125 0.405,2.76 0.697,3.633 0.919,2.747 0.925,2.655 -0.268,4.234 -0.604,0.8 -1.139,1.455 -1.19,1.455 -0.05,0 -0.21,-0.15 -0.355,-0.331 z m 3.155,-4.245 c -0.786,-0.948 -1.445,-5.479 -0.797,-5.479 0.314,0 3.033,2.005 3.295,2.43 0.153,0.247 -1.263,2.614 -1.86,3.11 -0.255,0.21 -0.426,0.194 -0.638,-0.061 z m 49.201,-1.165 c -2.172,-4.494 -5.738,-9.265 -10.25,-13.714 l -3.228,-3.184 0.98,-2.297 c 0.54,-1.264 1.06,-2.377 1.155,-2.473 0.241,-0.24 3.371,2.798 5.277,5.122 3.286,4.008 5.568,8.343 6.56,12.462 0.7,2.904 0.835,4.378 0.448,4.907 -0.289,0.395 -0.4,0.299 -0.942,-0.823 z m -74.236,-1.23 c -0.565,-2.687 1.538,-18.888 2.591,-19.953 0.264,-0.267 0.6,-0.252 1.707,0.077 0.758,0.225 1.377,0.506 1.377,0.624 0,0.118 -0.535,1.494 -1.19,3.057 -2.096,5.002 -3.619,10.698 -4.072,15.228 -0.187,1.877 -0.21,1.93 -0.413,0.966 z m 35.19,-18.71 c -2.031,-1.462 -4.74,-3.322 -6.02,-4.133 -1.28,-0.812 -2.328,-1.62 -2.328,-1.797 0,-0.622 0.966,-1.198 2.005,-1.196 1.557,0.002 6.074,0.728 8.259,1.326 1.916,0.525 5.611,2.215 5.611,2.567 0,0.42 -3.308,5.895 -3.56,5.893 -0.152,-0.001 -1.938,-1.198 -3.968,-2.66 z m -30.652,-2 c -0.698,-0.214 -1.329,-0.543 -1.401,-0.732 -0.152,-0.397 0.771,-2.995 1.333,-3.75 0.374,-0.502 0.415,-0.496 1.852,0.271 1.053,0.562 1.468,0.937 1.464,1.323 -0.007,0.636 -1.332,3.12 -1.714,3.213 -0.145,0.036 -0.836,-0.11 -1.534,-0.325 z m 37.253,-2.895 c -1.732,-1.027 -5.864,-2.228 -9.376,-2.725 -1.81,-0.257 -3.333,-0.593 -3.384,-0.747 -0.052,-0.155 0.715,-1.025 1.703,-1.934 l 1.797,-1.652 2.249,0.147 c 3.307,0.217 9.97,2.364 10.625,3.423 0.284,0.46 -1.894,4.22 -2.398,4.14 -0.087,-0.013 -0.634,-0.307 -1.216,-0.652 z m -35.123,-2.118 c -1.48,-0.77 -1.548,-1.142 -0.509,-2.775 1.245,-1.956 1.441,-2.033 2.892,-1.135 0.688,0.425 1.289,0.967 1.334,1.203 0.126,0.655 -1.513,3.388 -2.023,3.374 -0.24,-0.007 -1.003,-0.307 -1.694,-0.667 z m 36.975,-3.3 c -2.33,-1.123 -5.259,-1.996 -7.614,-2.268 -2.433,-0.282 -2.342,-0.53 0.914,-2.507 l 1.766,-1.072 2.073,0.56 c 2.319,0.625 6.363,2.547 6.788,3.225 0.214,0.341 0.1,0.728 -0.502,1.699 -0.428,0.691 -0.898,1.286 -1.044,1.32 -0.145,0.035 -1.217,-0.395 -2.38,-0.956 z m -34.065,-1.251 c -0.546,-0.374 -0.992,-0.884 -0.992,-1.134 0,-0.397 1.88,-2.367 2.26,-2.367 0.42,0 2.238,1.114 2.238,1.371 0,0.608 -1.652,2.862 -2.078,2.836 -0.24,-0.015 -0.882,-0.332 -1.428,-0.706 z m 36.843,-2.655 c -0.655,-0.385 -2.2,-1.08 -3.432,-1.545 -1.233,-0.465 -2.28,-0.962 -2.328,-1.103 -0.047,-0.142 0.742,-0.583 1.755,-0.98 l 1.84,-0.722 1.45,0.456 c 1.537,0.483 4.158,1.868 4.15,2.193 -0.001,0.106 -0.273,0.67 -0.602,1.252 -0.728,1.287 -1.26,1.372 -2.833,0.449 z m -33.903,-1.114 -0.625,-0.531 0.964,-0.858 c 1.198,-1.066 5.133,-3.457 5.48,-3.331 0.402,0.145 -4.192,5.252 -4.724,5.252 -0.259,0 -0.752,-0.239 -1.095,-0.532 z m 35.822,-2.599 c -1.056,-0.524 -1.919,-1.041 -1.919,-1.15 0,-0.253 2.984,-1.174 4.583,-1.414 0.725,-0.109 1.238,-0.083 1.238,0.062 0,0.311 -1.558,3.204 -1.803,3.349 -0.1,0.059 -1.044,-0.322 -2.1,-0.847 z"
         style="fill:#d8d6d6;stroke-width:0.26458335"
         inkscape:connector-curvature="0" />
      <path
         id="path950"
         transform="translate(-0.756,14.363)"
         d="m 97.688,161.765 c -4.122,-0.441 -10.196,-2.004 -14.87,-3.825 -2.648,-1.032 -4.236,-1.87 -6.794,-3.582 -4.88,-3.267 -4.759,-3.1 -4.363,-5.986 l 0.166,-1.215 0.994,0.507 c 0.547,0.278 1.811,1.166 2.81,1.973 2.401,1.939 8.166,4.84 12.272,6.175 8.319,2.705 16.262,3.31 24.327,1.853 4.427,-0.8 5.122,-0.866 4.992,-0.477 -0.138,0.415 -5.267,2.724 -7.903,3.557 -3.29,1.041 -7.77,1.434 -11.631,1.02 z m 3.043,-4.342 c -7.732,-0.42 -16.478,-3.133 -22.5,-6.98 -0.734,-0.469 -1.799,-1.072 -2.366,-1.342 -0.568,-0.269 -1.75,-1.165 -2.629,-1.99 l -1.596,-1.5 0.08,-1.943 c 0.043,-1.068 0.144,-2.047 0.223,-2.176 0.08,-0.128 0.814,0.412 1.634,1.2 0.819,0.788 1.965,1.77 2.547,2.182 a 24.335,24.335 0 0 1 2.117,1.743 c 2.329,2.184 7.842,5.165 12.673,6.85 1.295,0.452 3.855,1.143 5.689,1.534 3.02,0.646 3.869,0.713 9.022,0.721 3.587,0.006 6.358,-0.117 7.5,-0.333 1.383,-0.262 1.898,-0.27 2.182,-0.034 0.648,0.537 0.42,0.72 -1.413,1.134 -3.895,0.878 -8.36,1.195 -13.163,0.934 z m 16.853,-1.363 c -0.59,-0.472 -3.275,-2.837 -5.968,-5.256 -8.239,-7.401 -17.198,-14.997 -19.881,-16.856 -0.873,-0.605 -2.123,-1.62 -2.778,-2.254 -1.205,-1.168 -7.377,-6.087 -10.653,-8.491 -0.98,-0.72 -1.783,-1.449 -1.783,-1.621 0,-0.483 1.26,-3.22 1.572,-3.412 0.355,-0.219 5.257,3.07 9.32,6.251 1.735,1.359 3.549,2.709 4.031,3 1.017,0.614 3.897,3.008 4.203,3.494 0.115,0.182 4.103,3.574 8.864,7.538 8.817,7.343 17.605,15.566 17.46,16.339 -0.041,0.226 -0.805,0.796 -1.696,1.268 l -1.62,0.857 z m -15.927,-1.168 c -3.506,-0.355 -7.673,-1.276 -7.673,-1.697 0,-0.144 0.46,-0.756 1.024,-1.36 l 1.023,-1.097 4.599,1.508 c 2.53,0.83 5.299,1.698 6.155,1.93 1.091,0.297 1.447,0.492 1.19,0.654 -0.348,0.221 -4.357,0.26 -6.318,0.062 z m 9.128,-0.775 c -4.728,-0.84 -13.265,-3.513 -13.544,-4.242 -0.148,-0.385 1.064,-2.162 1.62,-2.376 0.179,-0.068 1.03,0.274 1.89,0.761 2.252,1.273 6.239,2.939 9.331,3.9 2.773,0.861 3.968,1.542 3.64,2.073 -0.226,0.365 -0.232,0.365 -2.937,-0.116 z m 8.062,-4.145 c -2.406,-2.362 -5.74,-5.443 -7.409,-6.846 -9.926,-8.343 -14.48,-12.096 -15.565,-12.828 -0.675,-0.455 -2.22,-1.731 -3.43,-2.835 -2.646,-2.41 -7.38,-6.041 -11.093,-8.508 -1.492,-0.99 -2.712,-1.914 -2.712,-2.053 0,-0.138 0.431,-1.073 0.959,-2.076 0.624,-1.188 1.119,-1.825 1.418,-1.825 0.42,0 6.366,4.031 11.91,8.076 1.237,0.902 2.546,1.796 2.91,1.986 0.802,0.42 4.693,3.368 4.911,3.722 0.087,0.14 1.904,1.662 4.04,3.382 5.34,4.303 10.132,8.547 14.078,12.468 4.06,4.034 7.664,8.155 7.664,8.765 0,0.379 -2.766,2.878 -3.175,2.87 -0.073,-0.003 -2.1,-1.936 -4.506,-4.298 z m -29.163,2.158 c -1.127,-0.442 -2.05,-0.933 -2.05,-1.091 0,-0.159 1.226,-1.549 2.724,-3.09 1.498,-1.54 3.66,-3.932 4.804,-5.314 1.143,-1.383 2.225,-2.55 2.403,-2.593 0.32,-0.079 2.722,1.832 3.092,2.46 0.21,0.355 -1.589,3.104 -3.981,6.086 -2.432,3.03 -3.776,4.366 -4.382,4.355 -0.308,-0.006 -1.482,-0.371 -2.61,-0.813 z m 17.926,-1.713 c -3.035,-1.056 -7.805,-3.496 -7.805,-3.993 0,-0.55 1.553,-2.996 1.902,-2.996 0.27,0 7.369,6.11 8.259,7.108 0.496,0.556 0.496,0.565 0,0.545 -0.277,-0.01 -1.338,-0.31 -2.356,-0.664 z m -23.568,-0.89 c -1.03,-0.571 -2.015,-1.21 -2.19,-1.42 -0.26,-0.314 0.138,-0.875 2.215,-3.126 1.393,-1.509 3.745,-4.261 5.227,-6.117 1.482,-1.855 2.816,-3.372 2.965,-3.37 0.386,0.003 4.37,3.408 4.37,3.735 0,0.776 -9.717,11.348 -10.423,11.34 -0.16,-0.002 -1.134,-0.471 -2.164,-1.042 z m -15.699,-1.444 -2.213,-2.225 0.186,-2.207 c 0.45,-5.35 1.81,-13.378 2.927,-17.288 2.58,-9.029 7.353,-17 15.117,-25.249 7.094,-7.536 15.94,-13.135 19.866,-12.573 1.9,0.272 6.208,1.7 6.1,2.023 -0.051,0.156 -1.517,0.675 -3.257,1.154 -9.576,2.636 -15.567,6.352 -21.736,13.478 -5.569,6.434 -9.416,13.705 -11.899,22.49 -1.835,6.494 -2.967,15.137 -2.641,20.174 0.087,1.346 0.07,2.447 -0.04,2.447 -0.108,0 -1.192,-1 -2.41,-2.224 z m 56.52,-0.355 c -2.727,-3.128 -9.359,-9.646 -13.152,-12.926 -3.764,-3.254 -10.086,-8.34 -10.58,-8.51 -0.22,-0.075 -0.936,-0.569 -1.591,-1.096 a 79.118,79.118 0 0 0 -2.249,-1.737 c -0.582,-0.428 -1.098,-0.874 -1.147,-0.99 -0.096,-0.229 -8.469,-6.246 -12.28,-8.827 -1.274,-0.862 -2.316,-1.7 -2.316,-1.864 0,-0.388 2.88,-4.333 3.164,-4.333 0.386,0 7.989,5.15 11.47,7.77 1.865,1.404 3.71,2.718 4.102,2.922 0.391,0.204 1.009,0.691 1.373,1.083 0.364,0.392 1.289,1.131 2.056,1.642 0.767,0.511 1.54,1.133 1.72,1.382 0.178,0.25 2.026,1.91 4.105,3.69 9.456,8.095 17.083,15.903 18.8,19.247 0.46,0.894 -0.384,5.126 -1.021,5.126 -0.113,0 -1.217,-1.16 -2.454,-2.58 z m 18.982,1.964 c -2.136,-0.823 -3.08,-1.744 -5.603,-5.47 -1.536,-2.27 -3.305,-4.075 -4.39,-4.483 -1.07,-0.402 -2.215,-0.346 -2.393,0.117 -0.335,0.873 -0.964,0.245 -3.203,-3.199 -4.66,-7.167 -7.51,-10.722 -10.944,-13.651 l -1.41,-1.203 1.421,-2.464 c 0.782,-1.356 1.57,-2.514 1.75,-2.574 0.459,-0.153 6.486,5.981 8.386,8.534 2.012,2.704 4.127,6.214 5.013,8.32 0.549,1.302 0.66,1.893 0.525,2.79 l -0.17,1.136 1.473,0.675 c 1.72,0.788 3.272,2.304 5.268,5.148 1.556,2.218 3.5,4.157 4.574,4.566 0.926,0.352 2.325,0.322 3.18,-0.067 0.416,-0.19 1.285,-1.215 2.1,-2.478 1.595,-2.473 2.643,-3.377 4.438,-3.828 1.501,-0.377 3.124,-0.22 5.444,0.529 2.975,0.96 3.7,0.719 4.53,-1.505 1.183,-3.165 3.133,-4.558 6.388,-4.563 2.784,-0.004 6.841,1.394 6.841,2.358 0,0.824 -0.774,0.86 -2.613,0.12 -2.476,-0.994 -4.914,-1.139 -6.472,-0.384 -1.355,0.656 -1.793,1.226 -2.6,3.386 -1.143,3.054 -2.625,3.592 -6.327,2.298 -1.55,-0.543 -2.333,-0.667 -3.713,-0.59 -2.218,0.125 -3.253,0.86 -4.702,3.335 -1.163,1.988 -1.927,2.8 -3.025,3.216 -0.955,0.361 -2.733,0.329 -3.766,-0.07 z m -64.694,-3.18 c -1.427,-0.863 -2.365,-1.668 -2.365,-2.028 0,-0.178 0.677,-1.054 1.505,-1.946 1.806,-1.948 6.159,-7.388 7.6,-9.5 0.608,-0.888 1.232,-1.516 1.507,-1.516 0.598,0 3.782,2.428 3.886,2.963 0.168,0.86 -9.88,12.67 -10.74,12.622 -0.248,-0.013 -0.875,-0.281 -1.393,-0.595 z m -14.713,-2.62 c -1.595,-1.779 -1.775,-3.489 -1.014,-9.633 1.092,-8.824 2.604,-13.987 6.34,-21.655 4.643,-9.526 10.197,-16.594 17.076,-21.73 3.71,-2.77 3.646,-2.747 8.301,-2.929 5.545,-0.216 5.8,-0.02 2.309,1.772 -6.516,3.347 -13.72,9.905 -19.768,17.996 -7.3,9.766 -10.517,19.027 -12.152,34.988 -0.1,0.982 -0.267,1.786 -0.37,1.786 -0.104,0 -0.428,-0.268 -0.722,-0.596 z m 63.062,-1.504 c -1.733,-2.345 -7.266,-8.037 -11.953,-12.296 -1.746,-1.586 -3.211,-3.035 -3.256,-3.218 -0.087,-0.358 2.781,-4.083 3.144,-4.083 0.303,0 3.092,2.374 4.238,3.607 2.174,2.34 7.578,9.955 9.877,13.917 0.727,1.252 0.727,1.253 0.287,2.577 -0.242,0.728 -0.524,1.376 -0.627,1.44 -0.104,0.064 -0.873,-0.811 -1.71,-1.944 z m -53.724,-0.777 -1.82,-1.836 0.182,-1.679 c 0.224,-2.068 1.325,-7.573 1.563,-7.811 0.3,-0.3 0.372,-0.033 0.808,2.957 0.468,3.214 1.093,5.614 2.021,7.77 0.451,1.046 0.54,1.532 0.34,1.851 -0.559,0.893 -1.242,0.616 -3.094,-1.252 z m 3.362,-1.292 c -1.787,-4.27 -2.771,-13.124 -1.783,-16.026 0.542,-1.588 0.846,-1.753 1.606,-0.868 0.532,0.618 0.619,1.003 0.62,2.754 0.002,2.626 0.563,6.284 1.548,10.098 l 0.783,3.035 -0.791,1 c -0.436,0.55 -0.967,1 -1.18,1 -0.214,0 -0.575,-0.447 -0.803,-0.993 z m -16.427,-2.235 c -1.106,-2.362 -1.152,-2.702 -0.859,-6.294 0.725,-8.874 4,-18.12 9.857,-27.83 2.586,-4.287 4.574,-6.927 7.341,-9.746 3.396,-3.46 3.962,-3.837 6.973,-4.638 4.086,-1.088 4.156,-0.892 0.674,1.89 -4.564,3.644 -7.333,6.809 -11.36,12.983 -2.138,3.277 -5.45,9.769 -7.065,13.848 -2.094,5.287 -3.56,12.55 -4.107,20.348 -0.1,1.437 -0.611,1.24 -1.454,-0.561 z m 19.844,-0.278 c -0.353,-0.442 -1.555,-5.633 -1.903,-8.221 -0.338,-2.512 -0.362,-4.942 -0.049,-4.942 0.127,0 0.831,0.478 1.566,1.063 l 1.335,1.063 0.167,2.046 c 0.091,1.125 0.405,2.76 0.697,3.633 0.919,2.747 0.925,2.655 -0.268,4.234 -0.604,0.8 -1.139,1.455 -1.19,1.455 -0.05,0 -0.21,-0.15 -0.355,-0.331 z m 3.155,-4.245 c -0.786,-0.948 -1.445,-5.479 -0.797,-5.479 0.314,0 3.033,2.005 3.295,2.43 0.153,0.247 -1.263,2.614 -1.86,3.11 -0.255,0.21 -0.426,0.194 -0.638,-0.061 z m 49.201,-1.165 c -2.172,-4.494 -5.738,-9.265 -10.25,-13.714 l -3.228,-3.184 0.98,-2.297 c 0.54,-1.264 1.06,-2.377 1.155,-2.473 0.241,-0.24 3.371,2.798 5.277,5.122 3.286,4.008 5.568,8.343 6.56,12.462 0.7,2.904 0.835,4.378 0.448,4.907 -0.289,0.395 -0.4,0.299 -0.942,-0.823 z m -74.236,-1.23 c -0.565,-2.687 1.538,-18.888 2.591,-19.953 0.264,-0.267 0.6,-0.252 1.707,0.077 0.758,0.225 1.377,0.506 1.377,0.624 0,0.118 -0.535,1.494 -1.19,3.057 -2.096,5.002 -3.619,10.698 -4.072,15.228 -0.187,1.877 -0.21,1.93 -0.413,0.966 z m 74.877,-5.534 c -1.746,-4.727 -4.657,-9.137 -8.832,-13.38 l -2.734,-2.779 0.276,-1.08 c 0.152,-0.594 0.348,-1.46 0.436,-1.922 0.322,-1.698 0.774,-1.642 2.576,0.32 3.5,3.812 5.875,7.428 7.6,11.566 1.002,2.406 1.387,4.02 1.729,7.248 0.243,2.294 -0.21,2.306 -1.05,0.027 z m -24.156,-0.934 c -0.764,-0.685 -1.39,-1.333 -1.39,-1.44 0,-0.106 0.496,-1 1.1,-1.984 0.605,-0.985 1.38,-2.4 1.723,-3.144 0.7,-1.52 4.183,-7.948 4.555,-8.405 0.602,-0.74 3.79,-8.33 4.929,-11.734 0.186,-0.556 0.872,-0.078 2.246,1.568 1.433,1.714 1.44,1.766 0.614,4.182 -0.997,2.913 -3.954,10.129 -5.04,12.3 -2.133,4.262 -6.096,9.936 -6.924,9.913 -0.233,-0.006 -1.05,-0.572 -1.813,-1.256 z m -3.113,-2.528 c -1.261,-0.721 -2.528,-1.873 -2.666,-2.424 -0.165,-0.656 0.345,-1.762 2.929,-6.348 0.902,-1.6 2.24,-4.041 2.974,-5.424 a 3329.35,3329.35 0 0 1 2.535,-4.762 c 0.66,-1.237 1.819,-3.738 2.575,-5.557 0.755,-1.819 1.455,-3.395 1.553,-3.503 0.1,-0.108 0.988,0.366 1.976,1.054 2.144,1.492 2.14,1.148 0.05,6.154 -3.39,8.117 -6.116,13.7 -8.464,17.33 -2.77,4.285 -2.51,4.024 -3.462,3.48 z m -6.015,-4.75 c -0.837,-0.78 -1.522,-1.488 -1.522,-1.573 0,-0.085 1.028,-1.92 2.284,-4.08 2.431,-4.18 7.563,-13.35 9.858,-17.617 0.764,-1.42 1.529,-2.578 1.7,-2.575 0.173,0.003 0.886,0.364 1.585,0.803 1.5,0.942 1.561,0.466 -0.75,5.807 -3.381,7.81 -4.416,10.006 -6.414,13.607 -2.66,4.793 -4.068,6.88 -4.706,6.972 -0.322,0.047 -1.084,-0.457 -2.035,-1.344 z m -6.404,-4.964 c -2.03,-1.462 -4.739,-3.322 -6.02,-4.133 -1.28,-0.812 -2.327,-1.62 -2.327,-1.797 0,-0.622 0.966,-1.198 2.005,-1.196 1.557,0.002 6.074,0.728 8.259,1.326 1.916,0.525 5.611,2.215 5.611,2.567 0,0.42 -3.308,5.895 -3.56,5.893 -0.152,-0.001 -1.938,-1.198 -3.968,-2.66 z m -30.65,-2 c -0.7,-0.214 -1.33,-0.543 -1.402,-0.732 -0.152,-0.397 0.771,-2.995 1.333,-3.75 0.374,-0.502 0.415,-0.496 1.852,0.271 1.053,0.562 1.468,0.937 1.464,1.323 -0.007,0.636 -1.332,3.12 -1.714,3.213 -0.145,0.036 -0.836,-0.11 -1.534,-0.325 z m 64.636,-2.002 c -0.945,-1.172 -2.285,-2.612 -2.976,-3.2 -1.34,-1.137 -1.431,-1.37 -0.95,-2.427 0.45,-0.987 1.1,-0.825 1.806,0.45 0.343,0.62 1.063,1.78 1.6,2.58 1.167,1.738 2.727,4.77 2.442,4.746 -0.11,-0.01 -0.976,-0.977 -1.922,-2.15 z m -27.384,-0.893 c -1.732,-1.027 -5.864,-2.228 -9.376,-2.725 -1.81,-0.257 -3.333,-0.593 -3.384,-0.747 -0.052,-0.155 0.715,-1.025 1.703,-1.934 l 1.797,-1.652 2.249,0.147 c 3.307,0.217 9.97,2.364 10.625,3.423 0.284,0.46 -1.894,4.22 -2.398,4.14 -0.087,-0.013 -0.634,-0.307 -1.216,-0.652 z m -35.123,-2.118 c -1.48,-0.77 -1.548,-1.142 -0.509,-2.775 1.245,-1.956 1.441,-2.033 2.892,-1.135 0.688,0.425 1.289,0.967 1.334,1.203 0.126,0.655 -1.513,3.388 -2.023,3.374 -0.24,-0.007 -1.003,-0.307 -1.694,-0.667 z m 36.975,-3.3 c -2.33,-1.123 -5.259,-1.996 -7.614,-2.268 -2.433,-0.282 -2.342,-0.53 0.914,-2.507 l 1.766,-1.072 2.073,0.56 c 2.319,0.625 6.363,2.547 6.788,3.225 0.214,0.341 0.1,0.728 -0.502,1.699 -0.429,0.691 -0.898,1.286 -1.044,1.32 -0.145,0.035 -1.217,-0.395 -2.38,-0.956 z m -34.065,-1.251 c -0.546,-0.374 -0.992,-0.884 -0.992,-1.134 0,-0.397 1.88,-2.367 2.26,-2.367 0.42,0 2.238,1.114 2.238,1.371 0,0.608 -1.652,2.862 -2.078,2.836 -0.24,-0.015 -0.882,-0.332 -1.428,-0.706 z m 36.843,-2.655 c -0.655,-0.385 -2.2,-1.08 -3.432,-1.545 -1.233,-0.465 -2.28,-0.962 -2.328,-1.103 -0.047,-0.142 0.742,-0.583 1.755,-0.98 l 1.84,-0.722 1.45,0.456 c 1.537,0.483 4.158,1.868 4.15,2.193 -0.001,0.106 -0.273,0.67 -0.602,1.252 -0.728,1.287 -1.26,1.372 -2.833,0.449 z m -33.903,-1.114 -0.625,-0.531 0.964,-0.858 c 1.198,-1.066 5.133,-3.457 5.48,-3.331 0.402,0.145 -4.192,5.252 -4.724,5.252 -0.259,0 -0.752,-0.239 -1.095,-0.532 z m 35.822,-2.599 c -1.056,-0.524 -1.919,-1.041 -1.919,-1.15 0,-0.253 2.984,-1.174 4.583,-1.414 0.725,-0.109 1.238,-0.083 1.238,0.062 0,0.311 -1.558,3.204 -1.803,3.349 -0.1,0.059 -1.044,-0.322 -2.1,-0.847 z"
         style="fill:#f4b4c7;stroke-width:0.26458335"
         inkscape:connector-curvature="0" />
      <path
         id="path952"
         transform="translate(-0.756,14.363)"
         d="m 98.564,161.674 c -6.356,-0.522 -15.846,-3.319 -20.216,-5.958 -2.567,-1.551 -6.113,-4.01 -6.374,-4.422 -0.274,-0.43 -0.276,-3.897 -0.002,-3.897 0.342,0 2.457,1.418 3.864,2.59 1.547,1.29 6.517,3.905 9.908,5.215 8.634,3.334 19.167,4.223 27.951,2.358 l 2.615,-0.556 c 2.6,-0.554 -2.563,2.17 -6.584,3.475 -3.478,1.129 -7.165,1.523 -11.162,1.195 z m -0.082,-4.498 c -7.224,-0.885 -14.27,-3.264 -20.184,-6.815 -0.904,-0.543 -1.996,-1.164 -2.426,-1.38 -0.43,-0.216 -1.532,-1.092 -2.448,-1.945 l -1.665,-1.552 0.004,-1.623 c 0.006,-2.551 0.239,-2.655 2.032,-0.907 0.845,0.822 2.131,1.94 2.859,2.482 0.727,0.543 1.36,1.083 1.407,1.2 0.19,0.473 3.646,2.72 6.46,4.197 3.606,1.894 9.03,3.749 13.167,4.503 2.444,0.445 4.057,0.55 8.202,0.538 2.955,-0.01 5.965,-0.161 7.045,-0.355 2.035,-0.365 2.48,-0.33 2.48,0.201 0,0.353 -0.268,0.43 -3.836,1.102 -2.554,0.48 -10.346,0.69 -13.097,0.354 z m 15.465,-4.49 c -8.26,-7.462 -20.061,-17.493 -22.52,-19.142 -0.605,-0.406 -1.736,-1.33 -2.513,-2.053 -0.777,-0.723 -3.794,-3.167 -6.704,-5.432 -2.91,-2.264 -5.332,-4.291 -5.381,-4.505 -0.138,-0.603 1.033,-3.261 1.436,-3.261 0.474,0 4.781,2.927 8.515,5.786 a 273.012,273.012 0 0 0 4.894,3.664 c 1.052,0.76 2.568,2.017 3.368,2.794 0.8,0.778 4.075,3.592 7.276,6.254 3.202,2.661 7.243,6.048 8.98,7.524 3.621,3.078 10.732,10 10.732,10.447 0,0.292 -2.896,1.895 -3.423,1.895 -0.144,0 -2.241,-1.787 -4.66,-3.972 z m -14.318,1.853 c -2.746,-0.401 -5.38,-1.096 -5.38,-1.418 0,-0.179 0.452,-0.767 1.005,-1.307 l 1.005,-0.982 2.765,1.034 a 77.477,77.477 0 0 0 5.41,1.762 c 1.456,0.4 2.76,0.83 2.898,0.953 0.305,0.272 -5.785,0.239 -7.703,-0.042 z m 9.9,-0.788 c -3.257,-0.687 -7.07,-1.785 -9.848,-2.836 -1.305,-0.494 -2.419,-0.945 -2.476,-1.002 -0.176,-0.176 1.391,-2.24 1.705,-2.246 0.163,-0.003 1.617,0.655 3.23,1.462 1.613,0.807 4.656,2.035 6.762,2.73 2.105,0.694 4.015,1.417 4.244,1.607 1.128,0.936 -0.08,1.03 -3.617,0.285 z m 12.06,-1.231 c -2.101,-2.46 -7.961,-7.749 -16.214,-14.632 -4.284,-3.574 -8.281,-6.855 -8.881,-7.292 -1.428,-1.039 -3.943,-3.125 -4.049,-3.358 -0.247,-0.546 -7.342,-5.94 -11.373,-8.647 l -2.461,-1.653 1.03,-1.902 c 0.647,-1.192 1.187,-1.89 1.449,-1.87 0.42,0.034 7.005,4.512 11.464,7.797 1.324,0.975 2.753,1.96 3.175,2.188 0.803,0.435 1.94,1.328 8.625,6.778 9.523,7.764 17.891,15.74 21.558,20.548 0.677,0.887 0.68,0.909 0.188,1.462 -0.699,0.788 -2.496,2.073 -2.899,2.073 -0.185,0 -0.91,-0.672 -1.611,-1.492 z m -31.363,-0.35 c -1.121,-0.417 -2.166,-0.836 -2.321,-0.933 -0.165,-0.101 0.84,-1.356 2.402,-3 1.477,-1.553 3.699,-4.04 4.938,-5.526 2.505,-3.004 2.28,-2.942 4.292,-1.183 1.392,1.218 1.45,0.981 -1.156,4.626 -1.65,2.31 -5.589,6.811 -5.936,6.786 -0.1,-0.007 -1.098,-0.353 -2.22,-0.77 z m 16.366,-2.27 c -2.871,-1.123 -6.528,-3.002 -6.696,-3.44 -0.15,-0.392 1.476,-2.767 1.894,-2.767 0.224,0 6.559,5.34 8.188,6.903 0.551,0.528 -1.154,0.179 -3.386,-0.695 z m -22.86,-0.702 c -1.056,-0.609 -1.919,-1.219 -1.919,-1.356 0,-0.136 0.774,-1.068 1.719,-2.07 0.946,-1.003 2.92,-3.28 4.389,-5.06 1.468,-1.78 3.046,-3.69 3.506,-4.242 l 0.837,-1.006 1.984,1.632 c 1.092,0.897 2.02,1.83 2.062,2.073 0.166,0.95 -9.068,11.14 -10.093,11.137 -0.312,0 -1.43,-0.499 -2.486,-1.108 z m -15.375,-1.22 c -2.137,-2.013 -2.177,-2.072 -2.041,-3.103 0.076,-0.577 0.27,-2.3 0.43,-3.828 1.39,-13.188 4.126,-21.518 9.911,-30.162 2.908,-4.344 5.873,-7.834 10.233,-12.041 5.16,-4.98 9.954,-8.234 14.444,-9.804 1.566,-0.547 1.771,-0.56 3.572,-0.219 2.168,0.41 5.217,1.421 5.217,1.73 0,0.112 -0.506,0.33 -1.124,0.485 -2.686,0.67 -7.408,2.27 -9.796,3.32 -4.096,1.8 -7.502,4.233 -11.455,8.18 -6.294,6.286 -10.436,13.041 -13.437,21.916 -2.374,7.018 -3.36,12.633 -3.518,20.024 -0.063,2.977 -0.147,5.445 -0.185,5.483 -0.04,0.039 -1.052,-0.853 -2.25,-1.981 z m 57.465,0.663 c -4.42,-5.515 -18.126,-18.023 -24.78,-22.612 -2.114,-1.458 -4.507,-3.264 -4.81,-3.629 -0.37,-0.449 -5.616,-4.256 -10.39,-7.54 -2.24,-1.542 -4.027,-2.952 -4.025,-3.176 0.006,-0.564 2.565,-3.974 2.983,-3.974 0.467,0 6.435,3.994 10.639,7.121 1.892,1.407 4.124,3.011 4.96,3.565 0.838,0.554 1.522,1.113 1.522,1.242 0,0.13 0.506,0.55 1.125,0.936 0.618,0.385 1.842,1.368 2.72,2.186 0.876,0.817 3.258,2.91 5.29,4.652 5.053,4.326 14.283,13.573 15.989,16.016 1.352,1.937 1.382,2.02 1.238,3.44 -0.18,1.784 -0.646,3.18 -1.054,3.162 -0.167,-0.007 -0.8,-0.632 -1.407,-1.389 z m 18.433,1.108 c -1.47,-0.422 -2.948,-1.582 -4.234,-3.323 a 1037.55,1037.55 0 0 1 -2.513,-3.422 c -2.312,-3.163 -4.79,-4.496 -6.09,-3.276 l -0.605,0.568 -2.766,-4.188 c -4.155,-6.29 -6.443,-9.222 -9.316,-11.936 -2.934,-2.772 -2.83,-2.212 -0.991,-5.349 0.554,-0.945 1.19,-1.754 1.414,-1.797 0.592,-0.114 6.916,6.524 9.032,9.48 2.193,3.065 5.05,8.591 4.842,9.367 a 162,162 0 0 1 -0.31,1.13 c -0.14,0.508 0.028,0.67 1.27,1.22 1.972,0.872 3.12,1.955 5.284,4.985 2.932,4.107 4.96,5.559 7.182,5.142 1.058,-0.199 2.142,-1.317 3.69,-3.806 1.849,-2.976 4.609,-3.655 9.276,-2.282 2.93,0.862 3.572,0.684 4.39,-1.22 0.305,-0.706 0.553,-1.383 0.553,-1.505 0,-0.122 0.369,-0.669 0.82,-1.215 1.657,-2.011 4.256,-2.683 7.466,-1.93 2.636,0.618 4.414,1.44 4.414,2.042 0,0.686 -0.739,0.639 -3.01,-0.194 -1.291,-0.473 -2.428,-0.694 -3.609,-0.7 -2.767,-0.016 -4.034,0.911 -5.155,3.772 -1.281,3.269 -2.262,3.657 -6.08,2.41 -2.714,-0.887 -3.787,-0.994 -5.191,-0.518 -1.547,0.525 -2.289,1.232 -3.593,3.423 -0.74,1.245 -1.607,2.336 -2.094,2.638 -1.015,0.627 -2.829,0.842 -4.076,0.484 z m -64.84,-3.237 c -1.387,-0.84 -2.365,-1.665 -2.365,-1.997 0,-0.16 1.341,-1.87 2.98,-3.798 1.638,-1.929 3.911,-4.786 5.05,-6.35 1.14,-1.565 2.173,-2.845 2.297,-2.845 0.499,0 3.569,2.591 3.632,3.065 0.041,0.311 -0.954,1.779 -2.577,3.8 -2.753,3.426 -7.584,8.764 -7.895,8.72 -0.099,-0.013 -0.603,-0.281 -1.122,-0.595 z m -15.404,-3.28 c -1.041,-1.37 -1.097,-1.815 -0.751,-5.945 0.6,-7.16 2.042,-13.903 4.026,-18.825 3.23,-8.009 7.191,-14.76 12.082,-20.59 3.21,-3.826 10.053,-9.222 12.129,-9.565 1.44,-0.238 8.043,-0.22 8.042,0.022 -0.001,0.109 -1.102,0.764 -2.448,1.456 -3.597,1.849 -6.983,4.394 -10.995,8.265 -8.293,8.003 -13.87,16.348 -16.979,25.402 -1.492,4.348 -2.899,11.583 -3.65,18.764 -0.104,1.007 -0.31,1.865 -0.455,1.908 -0.146,0.042 -0.596,-0.359 -1,-0.892 z m 63.706,-0.795 c -1.36,-1.875 -9.54,-10.219 -13.33,-13.597 l -2.217,-1.977 1.424,-1.89 c 0.797,-1.056 1.63,-1.895 1.893,-1.903 0.642,-0.02 4.69,3.908 6.53,6.335 1.887,2.491 5.687,8.06 7.024,10.294 0.99,1.655 1.007,1.722 0.69,2.91 -0.178,0.669 -0.413,1.306 -0.521,1.416 -0.109,0.11 -0.78,-0.605 -1.493,-1.588 z m -53.386,-0.398 c -2.277,-2.228 -2.316,-2.33 -1.914,-4.984 0.35,-2.309 0.858,-5.024 1.098,-5.864 0.26,-0.915 0.56,-0.433 0.74,1.19 0.28,2.541 1.104,6.066 1.854,7.94 0.76,1.902 0.816,2.333 0.36,2.79 -0.485,0.484 -0.612,0.42 -2.138,-1.072 z m 3.336,-1.042 c -1.46,-1.888 -3.102,-11.959 -2.481,-15.227 0.336,-1.769 0.734,-2.715 1.144,-2.715 0.693,0 0.985,0.66 0.99,2.236 0.008,2.516 0.702,7.11 1.631,10.802 l 0.852,3.384 -0.934,0.933 c -0.732,0.732 -0.991,0.859 -1.202,0.587 z m -16.935,-3.059 c -0.704,-1.433 -0.746,-1.712 -0.724,-4.828 0.05,-7.174 2.495,-15.43 7.289,-24.602 3.475,-6.651 7.063,-11.638 11.17,-15.525 2.35,-2.224 2.658,-2.426 4.544,-2.986 1.113,-0.33 2.52,-0.655 3.125,-0.722 l 1.1,-0.123 -0.66,0.567 c -0.364,0.312 -1.874,1.57 -3.356,2.797 -4.65,3.846 -9.716,10.596 -13.492,17.972 -4.47,8.73 -6.336,14.981 -7.4,24.784 -0.25,2.303 -0.543,4.188 -0.652,4.188 -0.109,0 -0.534,-0.685 -0.944,-1.522 z m 19.13,-2.91 c -1.103,-4.653 -1.726,-9.678 -1.238,-9.98 0.252,-0.156 2.25,1.177 2.688,1.791 0.088,0.125 0.231,1.223 0.317,2.441 0.104,1.47 0.39,2.797 0.849,3.946 0.38,0.952 0.606,1.88 0.502,2.064 -0.418,0.73 -2.01,2.582 -2.22,2.582 -0.123,0 -0.527,-1.28 -0.898,-2.844 z m 3.434,-2.778 c -0.545,-1.977 -0.759,-3.829 -0.462,-4.012 0.312,-0.193 3.215,2.135 3.206,2.571 -0.01,0.435 -1.791,2.83 -2.106,2.83 -0.14,0 -0.427,-0.625 -0.638,-1.39 z m 49.47,-0.411 c -2.015,-4.126 -5.817,-9.118 -10.179,-13.366 -1.616,-1.574 -2.939,-2.945 -2.939,-3.045 0,-0.398 1.85,-4.41 2.067,-4.483 0.43,-0.143 5.46,5.354 7.093,7.75 1.859,2.726 2.95,4.819 3.793,7.27 1.099,3.196 1.671,6.905 1.118,7.247 -0.119,0.074 -0.547,-0.544 -0.952,-1.373 z m -74.085,-1.183 c -0.23,-1.076 -0.082,-3.329 0.53,-8.13 0.969,-7.592 1.784,-11.378 2.45,-11.375 0.925,0.003 2.425,0.568 2.425,0.913 0,0.199 -0.413,1.325 -0.917,2.504 -2.022,4.722 -3.72,10.984 -4.095,15.102 -0.168,1.844 -0.195,1.914 -0.393,0.986 z m 75.4,-4.029 a 63.883,63.883 0 0 1 -0.712,-1.785 c -1.698,-4.414 -4.825,-8.973 -8.935,-13.025 -1.177,-1.161 -2.14,-2.316 -2.14,-2.567 0,-0.774 0.776,-3.48 1.082,-3.775 0.206,-0.198 0.71,0.18 1.747,1.308 4.813,5.244 8.133,11.22 8.99,16.186 0.411,2.383 0.392,4.634 -0.031,3.658 z m -24.232,-1.764 c -0.794,-0.647 -1.481,-1.37 -1.527,-1.606 -0.045,-0.236 0.384,-1.182 0.953,-2.101 0.57,-0.92 2.022,-3.578 3.226,-5.906 1.205,-2.328 2.422,-4.561 2.704,-4.963 0.616,-0.875 3.52,-7.442 4.564,-10.317 0.41,-1.127 0.838,-2.05 0.952,-2.05 0.428,0 2.896,3.037 2.891,3.558 -0.01,1.207 -3.11,9.314 -5.264,13.772 -1.552,3.212 -4.49,7.874 -6.15,9.76 l -0.906,1.03 z m -4.541,-3.527 c -2.158,-1.583 -2.212,-1.266 1.323,-7.74 5.142,-9.415 6.33,-11.734 7.987,-15.58 0.868,-2.015 1.685,-3.7 1.816,-3.743 0.13,-0.043 0.58,0.206 0.998,0.554 0.419,0.348 1.026,0.773 1.35,0.943 1.19,0.625 1.153,1.02 -0.45,4.942 -3.128,7.651 -5.993,13.584 -8.291,17.168 -0.846,1.318 -1.79,2.844 -2.1,3.39 -0.308,0.545 -0.747,0.989 -0.975,0.985 -0.228,-0.004 -0.974,-0.417 -1.658,-0.92 z m -4.782,-3.875 c -0.834,-0.75 -1.515,-1.499 -1.515,-1.662 0,-0.163 0.966,-1.96 2.148,-3.995 2.369,-4.079 7.565,-13.366 9.73,-17.39 0.918,-1.707 1.54,-2.58 1.837,-2.58 0.622,0 2.424,1.263 2.424,1.7 0,0.447 -1.678,4.483 -3.31,7.958 a 130.55,130.55 0 0 0 -1.954,4.365 c -1.46,3.525 -6.816,12.635 -7.575,12.881 -0.149,0.049 -0.952,-0.526 -1.785,-1.277 z m -6.284,-4.892 c -1.961,-1.418 -4.729,-3.333 -6.15,-4.256 -2.246,-1.458 -2.55,-1.742 -2.323,-2.168 0.509,-0.95 1.359,-0.967 6.425,-0.127 3.9,0.647 8.934,2.516 8.934,3.318 0,0.295 -2.302,4.43 -2.969,5.333 -0.326,0.442 -0.614,0.287 -3.917,-2.1 z m -31.26,-2.258 c -0.535,-0.145 -1.028,-0.408 -1.096,-0.584 -0.144,-0.375 1.006,-3.318 1.483,-3.795 0.257,-0.257 0.615,-0.16 1.711,0.467 0.763,0.436 1.384,0.938 1.38,1.117 -0.002,0.18 -0.33,0.921 -0.727,1.649 -0.781,1.433 -1.14,1.583 -2.752,1.146 z m 64.372,-2.675 c -0.903,-1.06 -2.053,-2.256 -2.557,-2.658 -0.503,-0.402 -0.915,-0.972 -0.915,-1.266 0,-0.639 0.456,-1.559 0.773,-1.559 0.201,0 3.419,4.986 4.24,6.571 0.623,1.2 0.081,0.818 -1.541,-1.088 z m -26.888,-0.245 c -0.582,-0.308 -2.016,-0.887 -3.187,-1.286 -1.83,-0.624 -3.293,-0.92 -8.52,-1.726 -0.474,-0.073 -0.86,-0.228 -0.86,-0.344 0,-0.116 0.778,-0.958 1.73,-1.873 l 1.732,-1.662 1.888,0.186 c 3.775,0.372 10.789,2.707 10.789,3.592 0,0.541 -1.889,3.696 -2.206,3.684 -0.169,-0.006 -0.784,-0.263 -1.366,-0.571 z m -34.925,-2.012 c -0.838,-0.463 -1.31,-0.896 -1.287,-1.18 0.063,-0.779 1.712,-3.104 2.201,-3.104 0.498,0 2.665,1.463 2.648,1.788 -0.02,0.363 -1.721,3.066 -1.982,3.147 -0.141,0.043 -0.852,-0.25 -1.58,-0.651 z m 37.439,-3.097 c -1.617,-0.872 -5.536,-2.119 -7.872,-2.505 -1.055,-0.175 -1.918,-0.415 -1.918,-0.534 0,-0.372 3.768,-2.646 4.385,-2.646 1.55,0 8.102,2.666 8.623,3.51 0.26,0.419 -1.138,2.842 -1.63,2.828 -0.22,-0.006 -0.934,-0.3 -1.588,-0.653 z m -34.595,-1.478 c -0.618,-0.438 -1.124,-0.885 -1.124,-0.993 0,-0.108 0.467,-0.652 1.038,-1.21 1.126,-1.1 1.772,-1.149 2.904,-0.221 l 0.569,0.466 -0.94,1.389 c -0.517,0.764 -1.025,1.384 -1.13,1.377 -0.106,-0.006 -0.698,-0.37 -1.317,-0.808 z m 36.505,-2.802 a 27.383,27.383 0 0 0 -3.431,-1.532 c -0.974,-0.34 -1.809,-0.733 -1.855,-0.872 -0.15,-0.452 3.028,-1.465 4.069,-1.296 1.266,0.205 4.303,1.643 4.488,2.125 0.191,0.498 -0.86,2.56 -1.284,2.52 -0.18,-0.018 -1.073,-0.443 -1.987,-0.945 z M 71.428,97.239 c -0.4,-0.217 -0.728,-0.49 -0.728,-0.606 0,-0.376 4.37,-3.34 5.623,-3.813 0.69,-0.261 0.584,-0.067 -0.797,1.46 -0.693,0.765 -1.6,1.837 -2.016,2.383 -0.836,1.098 -1.025,1.15 -2.082,0.576 z m 35.653,-2.804 c -1.833,-0.937 -1.863,-0.958 -1.644,-1.178 0.271,-0.27 5.02,-1.441 5.184,-1.277 0.197,0.196 -1.342,3.112 -1.688,3.2 -0.146,0.037 -0.98,-0.298 -1.852,-0.745 z"
         style="fill:#f0a5bb;stroke-width:0.26458335"
         inkscape:connector-curvature="0" />
      <path
         id="path954"
         transform="translate(-0.756,14.363)"
         d="m 97.159,161.415 c -6.462,-0.901 -15.127,-3.599 -18.83,-5.863 -1.868,-1.142 -5.641,-3.837 -6.033,-4.308 -0.304,-0.367 -0.445,-3.234 -0.172,-3.506 0.076,-0.076 0.947,0.469 1.937,1.21 11.277,8.458 26.907,11.791 40.35,8.607 0.977,-0.23 1.913,-0.374 2.08,-0.318 0.555,0.184 -5.923,2.908 -8.484,3.567 -2.842,0.731 -7.93,1.018 -10.848,0.61 z m -0.397,-4.632 c -5.227,-0.846 -9.928,-2.295 -14.42,-4.444 -2.968,-1.42 -6.965,-3.87 -8.727,-5.35 l -1.562,-1.312 -0.015,-1.918 c -0.008,-1.055 0.065,-1.918 0.163,-1.918 0.097,0 0.968,0.744 1.934,1.653 0.967,0.91 2.345,2.14 3.064,2.736 5.087,4.21 12.274,7.557 19.563,9.11 4.515,0.962 13.145,1.01 17.564,0.099 0.704,-0.145 0.87,-0.106 0.774,0.186 -0.391,1.2 -13.12,2.003 -18.338,1.158 z m 17.198,-4.265 c -4.82,-4.382 -15.763,-13.84 -19.315,-16.692 -1.31,-1.052 -3.274,-2.635 -4.365,-3.517 -5.998,-4.847 -8.333,-6.698 -10.782,-8.548 -1.492,-1.126 -2.712,-2.148 -2.712,-2.27 0,-0.123 0.308,-0.896 0.684,-1.718 l 0.684,-1.495 0.97,0.58 c 1.672,1 6.13,4.191 9.533,6.825 3.807,2.945 4.465,3.485 9.875,8.112 a 638.242,638.242 0 0 0 8.02,6.724 c 6.813,5.597 15.213,13.443 15.213,14.21 0,0.347 -2.461,1.667 -3.078,1.65 -0.272,-0.006 -2.399,-1.744 -4.727,-3.861 z m -12.7,2.02 c -2.339,-0.21 -6.503,-1 -6.813,-1.292 -0.109,-0.102 0.262,-0.636 0.825,-1.185 l 1.023,-0.999 3.276,1.175 c 1.802,0.646 4.08,1.387 5.062,1.646 0.983,0.26 1.786,0.573 1.786,0.697 0,0.256 -2.044,0.24 -5.16,-0.041 z m 7.673,-1.074 c -4.443,-0.949 -11.519,-3.291 -11.499,-3.807 0.006,-0.152 0.34,-0.66 0.742,-1.13 l 0.732,-0.854 3.101,1.554 c 1.706,0.855 4.795,2.113 6.865,2.797 4.145,1.37 5.264,2.001 3.489,1.968 -0.577,-0.01 -2.12,-0.249 -3.43,-0.528 z m 10.45,-3.334 c -4.16,-4.194 -11.794,-10.786 -23.916,-20.651 a 362.393,362.393 0 0 1 -4.261,-3.52 c -2.232,-1.89 -6.964,-5.424 -9.856,-7.363 -1.346,-0.902 -2.447,-1.714 -2.447,-1.806 0,-0.407 1.906,-3.524 2.156,-3.524 0.447,0 12.382,8.358 17.158,12.017 4.336,3.321 10.197,8.137 14.01,11.511 5.597,4.953 14.036,13.708 14.036,14.563 0,0.384 -2.428,2.39 -2.882,2.382 -0.234,-0.004 -2.033,-1.628 -3.997,-3.609 z m -29.236,1.855 c -1.018,-0.37 -1.948,-0.764 -2.067,-0.875 -0.118,-0.11 0.873,-1.318 2.203,-2.684 1.329,-1.366 3.5,-3.764 4.824,-5.328 1.324,-1.565 2.476,-2.844 2.56,-2.843 0.335,0.004 2.667,2.177 2.667,2.485 0,1.122 -7.152,9.975 -8.025,9.934 -0.17,-0.008 -1.143,-0.318 -2.162,-0.689 z m 15.718,-2.563 c -3.111,-1.271 -5.796,-2.717 -5.796,-3.121 0,-0.145 0.367,-0.798 0.816,-1.45 0.711,-1.033 0.873,-1.142 1.257,-0.844 0.447,0.347 6.466,5.553 7.178,6.208 0.75,0.69 -0.56,0.39 -3.455,-0.793 z M 84.128,149.21 c -1.128,-0.594 -2.05,-1.189 -2.05,-1.32 0,-0.133 1.144,-1.518 2.542,-3.08 1.399,-1.56 3.67,-4.237 5.047,-5.949 1.562,-1.94 2.622,-3.043 2.816,-2.928 0.64,0.379 3.882,3.11 3.882,3.27 0,0.59 -9.52,11.123 -10.03,11.096 -0.086,-0.005 -1.08,-0.494 -2.207,-1.089 z M 126.316,149 c -1.386,-1.875 -6.893,-7.578 -10.464,-10.837 -6.467,-5.902 -11.264,-9.775 -22.504,-18.17 -1.183,-0.883 -4.263,-3.068 -6.843,-4.855 -2.58,-1.787 -4.692,-3.311 -4.692,-3.387 0,-0.322 2.468,-3.562 2.814,-3.695 0.43,-0.165 2.446,1.026 6.314,3.729 3.374,2.358 8.693,6.272 10.022,7.376 a 85.184,85.184 0 0 0 2.422,1.91 c 0.768,0.582 3.533,2.922 6.143,5.2 8.375,7.308 15.07,13.973 17.47,17.389 1.428,2.034 1.491,2.432 0.816,5.126 -0.3,1.195 -0.728,1.256 -1.498,0.213 z m 17.013,0.16 c -1.538,-0.745 -2.782,-2.002 -4.37,-4.409 -1.769,-2.683 -2.9,-3.976 -4.196,-4.798 -1.338,-0.849 -2.776,-0.992 -3.488,-0.348 -0.42,0.38 -0.658,0.101 -3.243,-3.8 -4.103,-6.192 -6.502,-9.256 -9.295,-11.871 l -2.492,-2.334 1.304,-2.103 c 0.718,-1.156 1.406,-2.204 1.53,-2.329 0.126,-0.125 1.455,0.99 2.98,2.5 4.302,4.259 7.636,8.787 9.818,13.335 1.026,2.139 1.076,2.35 0.803,3.374 -0.309,1.156 -0.089,1.76 0.64,1.76 1.299,0 3.534,1.963 5.697,5.002 2.887,4.057 4.566,5.405 6.735,5.405 1.578,0 2.293,-0.58 4.122,-3.34 1.93,-2.911 2.87,-3.475 5.758,-3.453 1.332,0.01 2.498,0.202 3.547,0.582 3.072,1.113 4.041,0.717 5.158,-2.11 0.665,-1.68 1.814,-2.926 3.259,-3.528 1.806,-0.754 5.354,-0.394 8.08,0.818 0.544,0.242 1.08,0.422 1.189,0.4 0.36,-0.074 0.206,0.693 -0.169,0.837 -0.201,0.077 -1.362,-0.206 -2.58,-0.63 -2.61,-0.909 -4.612,-0.998 -6.202,-0.275 -1.35,0.613 -2.066,1.512 -2.794,3.509 -1.06,2.909 -2.557,3.462 -5.932,2.19 -3.038,-1.142 -5.671,-0.862 -7.293,0.776 -0.382,0.386 -1.153,1.485 -1.713,2.442 -1.29,2.206 -2.149,2.83 -4.058,2.949 -1.149,0.071 -1.763,-0.05 -2.795,-0.55 z m -74.973,-1.367 -1.947,-1.838 0.178,-2.123 c 0.861,-10.286 2.98,-19.26 6.063,-25.671 5.985,-12.449 18.64,-25.309 28.413,-28.873 l 1.981,-0.723 2.431,0.552 c 1.337,0.303 2.9,0.758 3.474,1.01 l 1.042,0.458 -1.323,0.364 c -3.404,0.938 -8.146,2.593 -10.177,3.553 -5.145,2.43 -10.387,6.728 -14.618,11.985 -2.811,3.494 -4.184,5.632 -6.304,9.821 -4.312,8.518 -6.671,18.076 -7.085,28.7 l -0.18,4.623 z m 10.811,-1.688 c -2.334,-1.477 -2.336,-1.491 -0.335,-3.742 2.13,-2.397 5.305,-6.368 7.03,-8.791 0.698,-0.982 1.367,-1.785 1.486,-1.785 0.245,0 3.725,2.643 3.725,2.83 0,0.696 -9.967,12.264 -10.552,12.246 -0.09,-0.003 -0.699,-0.344 -1.354,-0.758 z M 63.99,142.95 c -0.602,-0.867 -0.698,-1.279 -0.698,-2.978 0,-2.46 0.6,-7.667 1.324,-11.494 1.138,-6.013 2.713,-10.396 6.232,-17.342 3.353,-6.62 8.183,-13.296 12.173,-16.824 2.395,-2.117 6.383,-5.1 7.4,-5.534 0.905,-0.387 7.5,-0.819 8.23,-0.539 0.366,0.14 0.026,0.425 -1.501,1.252 -4.534,2.456 -8.762,5.803 -13.25,10.487 -8.848,9.234 -14.155,18.569 -16.5,29.025 -0.658,2.934 -1.733,9.648 -2.129,13.3 -0.098,0.91 -0.27,1.653 -0.381,1.653 -0.112,0 -0.517,-0.452 -0.9,-1.006 z m 63.73,-0.764 c -1.405,-1.929 -8.71,-9.392 -12.822,-13.1 l -2.5,-2.255 1.44,-1.889 c 0.791,-1.038 1.509,-1.888 1.594,-1.888 0.27,0 3.267,2.725 4.512,4.101 1.72,1.902 3.227,3.946 6.347,8.61 3.895,5.823 3.83,5.68 3.23,7.082 l -0.488,1.14 z m -53.814,-0.753 c -0.89,-0.951 -1.618,-1.933 -1.617,-2.183 0.003,-1.257 1.29,-8.113 1.487,-7.917 0.062,0.063 0.286,1.172 0.498,2.466 0.45,2.753 1.202,5.557 1.973,7.357 0.42,0.978 0.477,1.365 0.247,1.643 -0.52,0.627 -0.923,0.414 -2.588,-1.366 z m 3.558,-1.149 c -1.086,-2.1 -2.266,-8.64 -2.266,-12.566 0,-2.306 0.64,-4.467 1.287,-4.343 0.354,0.067 0.492,0.708 0.757,3.501 0.368,3.887 0.854,6.66 1.752,10.01 l 0.624,2.324 -0.689,0.908 c -0.378,0.5 -0.774,0.913 -0.88,0.918 -0.105,0.005 -0.368,-0.333 -0.585,-0.752 z M 60.779,137.56 c -0.705,-1.571 -0.724,-1.733 -0.592,-5.088 0.232,-5.92 1.75,-11.912 4.71,-18.601 3.522,-7.962 7.75,-14.633 12.222,-19.284 2.957,-3.075 4.021,-3.913 5.544,-4.366 1.944,-0.578 3.912,-0.975 3.912,-0.788 0,0.109 -0.922,0.917 -2.05,1.795 -5.805,4.521 -10.909,11.168 -15.295,19.92 -2.959,5.902 -4.46,9.887 -5.542,14.713 -0.806,3.595 -1.709,9.735 -1.715,11.664 -0.002,0.755 -0.108,1.437 -0.235,1.516 -0.127,0.078 -0.558,-0.588 -0.959,-1.48 z m 19.73,-0.577 c -0.868,-2.247 -2.29,-11.812 -1.755,-11.812 0.107,0 0.705,0.367 1.33,0.815 l 1.135,0.816 0.185,2.161 c 0.101,1.189 0.473,3.004 0.826,4.033 0.353,1.03 0.641,1.982 0.64,2.117 0,0.134 -0.466,0.78 -1.034,1.435 l -1.034,1.19 z m 3.006,-4.538 c -0.432,-1.033 -0.826,-4.099 -0.527,-4.099 0.21,0 2.558,1.841 2.835,2.224 0.187,0.259 -1.359,2.79 -1.708,2.798 -0.117,0.003 -0.387,-0.412 -0.6,-0.923 z m 49.13,-1.189 c -2.24,-4.303 -6.37,-9.594 -10.57,-13.539 -1.19,-1.116 -2.162,-2.16 -2.162,-2.32 0,-0.479 1.645,-4.249 1.853,-4.249 0.77,0 5.368,5.22 7.545,8.567 2.548,3.917 4.506,9.441 4.308,12.155 l -0.08,1.106 z M 58.72,130.33 c -0.456,-1.902 1.858,-17.667 2.764,-18.821 0.176,-0.224 0.498,-0.223 1.269,0.005 0.568,0.168 1.102,0.374 1.185,0.457 0.084,0.084 -0.194,0.918 -0.618,1.853 -2.072,4.569 -3.94,11.16 -4.227,14.92 -0.138,1.798 -0.229,2.186 -0.373,1.587 z m 74.584,-6.151 c -1.618,-3.98 -4.417,-8.011 -8.432,-12.145 l -2.609,-2.686 0.57,-1.878 c 0.314,-1.033 0.674,-1.878 0.8,-1.878 0.126,0 1.145,1.042 2.264,2.315 4.597,5.23 7.768,11.482 8.204,16.171 0.096,1.038 0.12,1.887 0.052,1.887 -0.068,0 -0.45,-0.804 -0.85,-1.786 z m -23.67,0.264 -1.384,-1.256 1.279,-2.117 c 3.682,-6.095 8.86,-16.644 10.553,-21.497 0.266,-0.764 0.56,-1.39 0.65,-1.39 0.391,0 2.62,2.669 2.62,3.136 0,1.502 -3.813,11.5 -5.856,15.352 -1.965,3.706 -5.672,9.03 -6.289,9.03 -0.104,0 -0.812,-0.566 -1.573,-1.258 z m -4.244,-3.372 c -1.544,-1.137 -1.932,-1.81 -1.38,-2.396 1.042,-1.102 9.149,-16.733 11.144,-21.484 0.627,-1.491 1.238,-2.712 1.36,-2.712 0.29,0 2.687,1.827 2.918,2.225 0.331,0.57 -4.948,12.924 -7.512,17.58 -1.038,1.885 -4.73,7.977 -4.835,7.977 -0.043,0 -0.806,-0.536 -1.695,-1.19 z m -4.43,-3.523 c -0.708,-0.561 -1.428,-1.19 -1.599,-1.399 -0.25,-0.304 0.4,-1.618 3.33,-6.724 a 665.995,665.995 0 0 0 6.51,-11.638 c 1.577,-2.91 3.01,-5.452 3.185,-5.647 0.262,-0.293 0.504,-0.237 1.387,0.32 0.587,0.371 1.13,0.774 1.205,0.896 0.275,0.446 -4.956,12.101 -7.63,16.998 -2.073,3.799 -4.35,7.593 -4.76,7.933 -0.252,0.21 -0.669,0.02 -1.627,-0.739 z m -5.918,-4.584 c -1.382,-1.026 -4.031,-2.875 -5.887,-4.107 -1.855,-1.233 -3.373,-2.339 -3.373,-2.457 0,-0.118 0.187,-0.37 0.417,-0.56 0.829,-0.688 8.056,0.446 11.754,1.843 1.726,0.653 3.244,1.543 3.094,1.816 -0.982,1.785 -3.2,5.35 -3.326,5.342 -0.09,-0.006 -1.296,-0.85 -2.679,-1.877 z m -31.816,-2.8 c -0.691,-0.204 -1.257,-0.48 -1.257,-0.616 0,-0.54 1.396,-3.692 1.635,-3.692 0.426,0 2.599,1.356 2.599,1.622 0,0.349 -1.27,2.816 -1.517,2.947 -0.112,0.059 -0.769,-0.059 -1.46,-0.262 z m 62.941,-4.006 c -1.582,-1.592 -2.046,-2.223 -1.978,-2.691 0.172,-1.176 0.748,-0.808 2.156,1.377 1.459,2.264 2.115,3.394 1.972,3.394 -0.045,0 -1.012,-0.936 -2.15,-2.08 z m -25.436,1.224 c -2.787,-1.458 -6.919,-2.609 -10.782,-3.004 -0.982,-0.1 -1.786,-0.267 -1.786,-0.37 0,-0.104 0.684,-0.861 1.519,-1.684 1.407,-1.384 1.61,-1.495 2.749,-1.495 3.01,0 10.874,2.336 11.26,3.344 0.144,0.373 -0.728,2.256 -1.505,3.254 -0.39,0.501 -0.413,0.5 -1.455,-0.045 z m -35.256,-2.205 c -0.619,-0.37 -1.125,-0.817 -1.125,-0.993 0,-0.418 1.802,-3.09 2.084,-3.09 0.317,0 2.415,1.555 2.412,1.788 -0.006,0.468 -1.626,2.974 -1.921,2.972 -0.18,-0.001 -0.832,-0.306 -1.45,-0.677 z m 37.505,-3.073 c -2.394,-1.142 -4.845,-1.943 -7.16,-2.34 -1.082,-0.186 -2.067,-0.425 -2.188,-0.53 -0.12,-0.106 0.685,-0.757 1.79,-1.445 l 2.01,-1.253 2.305,0.719 c 2.437,0.76 6.418,2.63 6.418,3.015 0,0.21 -1.314,2.69 -1.412,2.665 -0.024,-0.006 -0.817,-0.38 -1.763,-0.831 z m -34.467,-1.416 c -0.543,-0.37 -0.988,-0.762 -0.988,-0.873 0,-0.11 0.468,-0.657 1.039,-1.215 l 1.038,-1.014 0.946,0.585 c 0.52,0.322 0.946,0.643 0.946,0.714 0,0.255 -1.617,2.474 -1.803,2.474 -0.105,0 -0.635,-0.302 -1.178,-0.671 z m 36.716,-2.7 c -0.728,-0.384 -2.276,-1.084 -3.44,-1.555 l -2.117,-0.856 1.574,-0.701 1.574,-0.701 1.734,0.564 c 0.953,0.31 2.184,0.86 2.736,1.221 l 1.003,0.658 -0.589,1.047 c -0.324,0.576 -0.715,1.042 -0.87,1.035 -0.156,-0.006 -0.878,-0.327 -1.605,-0.711 z M 71.376,96.983 c -0.308,-0.233 -0.414,-0.476 -0.264,-0.605 1.313,-1.136 4.532,-3.222 4.973,-3.222 0.098,0 -0.627,0.953 -1.611,2.116 -0.984,1.164 -1.968,2.113 -2.186,2.109 -0.218,-0.005 -0.629,-0.183 -0.912,-0.398 z m 35.64,-2.742 c -0.764,-0.378 -1.39,-0.762 -1.39,-0.854 0,-0.237 4.532,-1.343 4.723,-1.151 0.261,0.26 -1.119,2.636 -1.549,2.666 -0.218,0.015 -1.021,-0.282 -1.785,-0.66 z"
         style="fill:#ee8ba8;stroke-width:0.26458335"
         inkscape:connector-curvature="0" />
      <path
         id="path956"
         transform="translate(-0.756,14.363)"
         d="m 96.771,161.135 c -5,-0.69 -12.7,-2.953 -16.658,-4.896 -1.03,-0.506 -3.211,-1.877 -4.848,-3.048 l -2.977,-2.13 v -1.435 c 0,-0.79 0.07,-1.435 0.154,-1.435 0.084,0 1.126,0.701 2.315,1.559 5.981,4.313 13.36,7.29 21.476,8.664 3.94,0.667 11.739,0.61 15.738,-0.113 1.67,-0.303 3.068,-0.52 3.105,-0.484 0.17,0.17 -5.44,2.36 -7.268,2.837 -2.404,0.628 -8.159,0.879 -11.037,0.481 z m 3.96,-4.243 c -6.674,-0.359 -13.246,-2.157 -19.355,-5.296 -3.163,-1.625 -7.508,-4.498 -8.484,-5.61 -0.657,-0.748 -0.726,-1.003 -0.645,-2.374 l 0.092,-1.536 0.834,0.916 c 1.243,1.364 5.34,4.695 7.45,6.055 4.639,2.992 10.265,5.27 15.991,6.475 2.907,0.611 3.97,0.701 8.482,0.719 2.838,0.01 5.99,-0.076 7.003,-0.192 2.891,-0.332 1.91,-0.001 -1.318,0.444 -3.738,0.515 -6.12,0.61 -10.05,0.399 z m 14.543,-3.492 c -4.578,-4.228 -12.748,-11.34 -18.248,-15.884 -2.764,-2.284 -5.89,-4.867 -6.944,-5.74 -1.958,-1.62 -10.954,-8.669 -12.346,-9.675 l -0.77,-0.556 0.505,-1.257 c 0.278,-0.691 0.655,-1.317 0.838,-1.39 0.86,-0.346 10.334,6.814 21.134,15.97 2.6,2.204 6.564,5.531 8.808,7.394 4.709,3.906 10.817,9.531 12.252,11.283 0.745,0.91 0.907,1.268 0.661,1.464 -0.63,0.502 -2.024,1.12 -2.495,1.103 -0.262,-0.009 -1.79,-1.229 -3.395,-2.712 z m -0.967,2.283 c 0.191,-0.076 0.42,-0.067 0.507,0.02 0.088,0.089 -0.068,0.151 -0.347,0.14 -0.308,-0.013 -0.371,-0.076 -0.16,-0.16 z m -13.61,-1.43 c -2.146,-0.251 -5.657,-0.95 -5.877,-1.17 -0.081,-0.08 0.213,-0.507 0.653,-0.947 l 0.8,-0.8 4.478,1.504 c 2.463,0.828 4.527,1.55 4.588,1.603 0.18,0.16 -2.618,0.045 -4.642,-0.19 z m 7.442,-1.21 c -2.95,-0.674 -9.876,-2.863 -10.268,-3.245 -0.117,-0.115 0.09,-0.569 0.461,-1.01 l 0.675,-0.8 3.015,1.51 c 1.659,0.831 4.755,2.086 6.881,2.789 2.127,0.702 3.866,1.318 3.866,1.369 0,0.251 -2.023,-0.016 -4.63,-0.612 z m 13.539,-1.004 c -1.775,-2.056 -7.58,-7.392 -12.36,-11.36 -4.219,-3.503 -9.902,-8.233 -16.128,-13.422 -3.904,-3.254 -8.212,-6.507 -11.51,-8.692 -1.164,-0.771 -2.219,-1.495 -2.345,-1.609 -0.248,-0.223 1.4,-3.426 1.764,-3.426 0.401,0 13.197,9.037 17.383,12.276 a 349.788,349.788 0 0 1 12.038,9.798 c 4.21,3.602 12.64,11.954 14.414,14.28 l 1.185,1.554 -1.185,1.022 c -0.652,0.561 -1.37,1.021 -1.597,1.022 -0.227,0 -0.974,-0.65 -1.66,-1.443 z m -31.35,-0.263 c -0.918,-0.341 -1.737,-0.688 -1.82,-0.77 -0.082,-0.083 0.954,-1.316 2.304,-2.74 1.35,-1.424 3.419,-3.75 4.599,-5.168 1.18,-1.42 2.204,-2.575 2.277,-2.569 0.073,0.006 0.667,0.48 1.32,1.054 l 1.187,1.042 -0.478,0.888 c -1.237,2.296 -6.754,8.926 -7.404,8.897 -0.172,-0.008 -1.065,-0.293 -1.984,-0.634 z m 15.708,-2.543 c -2.875,-1.163 -5.702,-2.63 -5.702,-2.961 0,-0.115 0.316,-0.687 0.702,-1.27 0.692,-1.047 0.71,-1.054 1.257,-0.573 0.305,0.268 1.894,1.651 3.53,3.074 2.609,2.265 3.184,2.819 2.911,2.8 -0.036,-0.003 -1.25,-0.484 -2.698,-1.07 z m -21.71,-0.158 c -0.873,-0.506 -1.695,-1.027 -1.828,-1.156 -0.143,-0.14 0.448,-0.967 1.456,-2.038 1.991,-2.115 5.17,-5.87 6.952,-8.21 0.847,-1.113 1.372,-1.591 1.6,-1.456 0.621,0.371 3.564,2.846 3.58,3.01 0.052,0.565 -9.38,10.842 -9.907,10.794 -0.146,-0.013 -0.98,-0.438 -1.853,-0.944 z m 40.346,-2.344 c -5.279,-5.995 -13.629,-13.511 -23.362,-21.03 -5.503,-4.25 -12.804,-9.56 -16.719,-12.16 -1.164,-0.773 -2.222,-1.5 -2.35,-1.617 -0.297,-0.268 2.12,-3.685 2.606,-3.685 0.793,0 11.263,7.397 17.868,12.623 8.14,6.442 21.737,19.37 24.152,22.963 l 1.245,1.852 -0.279,1.72 c -0.153,0.946 -0.371,1.814 -0.485,1.93 -0.114,0.114 -1.318,-1.053 -2.676,-2.596 z m 18.655,2.175 c -1.503,-0.716 -2.432,-1.689 -4.401,-4.606 -0.757,-1.122 -1.862,-2.569 -2.455,-3.215 -1.708,-1.86 -4.145,-2.695 -5.168,-1.77 -0.383,0.347 -0.69,-0.015 -3.064,-3.626 -3.97,-6.04 -6.166,-8.85 -9.053,-11.591 l -2.616,-2.484 1.208,-2.051 c 0.665,-1.128 1.343,-2.054 1.507,-2.057 0.544,-0.012 6.816,6.724 8.628,9.267 0.98,1.375 2.464,3.84 3.296,5.476 l 1.514,2.977 -0.334,1.25 c -0.3,1.118 -0.286,1.285 0.127,1.587 0.255,0.186 0.655,0.338 0.89,0.338 0.748,0 2.75,1.453 3.855,2.799 a 62.204,62.204 0 0 1 2.287,3.036 c 2.211,3.145 4.124,4.484 6.409,4.484 1.512,0 2.479,-0.806 4.227,-3.522 1.688,-2.622 2.726,-3.233 5.448,-3.204 1.292,0.014 2.573,0.222 3.672,0.596 3.136,1.066 4.117,0.718 5.03,-1.788 1.107,-3.035 2.777,-4.237 5.902,-4.247 2.455,-0.008 6.845,1.387 6.247,1.985 -0.057,0.057 -1.11,-0.247 -2.341,-0.676 -4.812,-1.674 -7.62,-0.679 -9.16,3.246 -1.184,3.017 -2.31,3.427 -5.93,2.16 -1.55,-0.542 -2.334,-0.666 -3.714,-0.588 -2.36,0.132 -3.563,0.938 -4.96,3.32 -1.571,2.682 -2.358,3.325 -4.205,3.44 -1.194,0.076 -1.807,-0.04 -2.846,-0.536 z m -74.942,-1.403 c -1.904,-1.814 -1.842,-1.49 -1.246,-6.588 1.234,-10.551 2.777,-16.536 5.937,-23.019 3.016,-6.186 6.6,-11.147 12.308,-17.033 5.254,-5.418 10.245,-9.094 15.016,-11.058 1.83,-0.753 2.397,-0.875 3.506,-0.75 1.602,0.182 5.159,1.192 5.159,1.466 0,0.108 -0.446,0.28 -0.992,0.382 -2.063,0.387 -7.38,2.3 -10.216,3.678 -7.869,3.82 -15.798,12.135 -20.48,21.48 -4.52,9.017 -6.884,19.152 -7.278,31.184 l -0.06,1.833 z m 10.555,-1.892 c -0.744,-0.546 -1.354,-1.086 -1.356,-1.2 -0.003,-0.114 1.084,-1.476 2.415,-3.026 1.33,-1.55 3.488,-4.254 4.793,-6.01 a 315.346,315.346 0 0 1 2.469,-3.295 c 0.146,-0.16 3.06,2.152 3.212,2.549 0.253,0.658 -9.18,11.974 -9.982,11.974 -0.109,0 -0.807,-0.446 -1.551,-0.992 z m -14.795,-2.894 c -0.495,-0.695 -0.588,-1.176 -0.588,-3.042 0,-4.384 1.367,-12.89 2.805,-17.455 1.415,-4.49 4.527,-11.17 7.413,-15.911 2.162,-3.551 5.75,-8.222 8.113,-10.564 1.877,-1.86 7.174,-6.053 8.563,-6.778 0.313,-0.164 2.277,-0.372 4.366,-0.462 l 3.797,-0.165 -2.434,1.417 c -4.139,2.409 -6.661,4.424 -11.21,8.955 -6.552,6.527 -10.145,11.342 -13.474,18.053 -3.004,6.059 -4.644,11.949 -5.821,20.903 -0.311,2.368 -0.65,4.658 -0.754,5.09 l -0.188,0.785 z m 62.984,-1.605 c -1.898,-2.334 -8.856,-9.33 -12.486,-12.554 l -1.963,-1.743 1.392,-1.75 1.393,-1.75 0.967,0.769 c 1.555,1.236 4.33,4.235 5.939,6.418 1.8,2.443 7.332,10.802 7.332,11.08 0,0.109 -0.156,0.568 -0.346,1.02 l -0.346,0.823 z m -52.948,0.156 c -0.993,-1.006 -1.628,-1.874 -1.628,-2.226 0,-0.68 0.991,-6.483 1.131,-6.623 0.053,-0.053 0.294,1.015 0.534,2.374 0.241,1.359 0.808,3.53 1.26,4.825 0.452,1.295 0.842,2.52 0.866,2.723 0.103,0.843 -0.63,0.479 -2.163,-1.073 z m 3.178,-1.884 c -0.868,-2.32 -1.647,-6.6 -1.818,-9.985 -0.167,-3.324 -0.026,-4.642 0.582,-5.438 0.618,-0.81 0.919,-0.03 0.924,2.402 0.007,2.584 0.535,5.956 1.554,9.913 l 0.768,2.98 -0.725,0.812 -0.725,0.812 z m 99.46,-1.137 c 0.013,-0.308 0.076,-0.371 0.16,-0.16 0.077,0.191 0.067,0.42 -0.02,0.507 -0.089,0.088 -0.151,-0.068 -0.14,-0.347 z M 60.901,137.343 c -0.58,-1.08 -0.634,-1.456 -0.57,-4.062 0.165,-6.833 2.172,-14.104 6.146,-22.264 2.024,-4.158 4.438,-8.28 6.763,-11.55 1.755,-2.471 6.957,-7.87 8.188,-8.5 0.86,-0.44 4.085,-1.342 4.241,-1.185 0.052,0.051 -1.054,1.04 -2.458,2.197 -5.151,4.248 -10.16,11.017 -14.336,19.374 -4.148,8.302 -5.765,13.782 -6.885,23.344 l -0.45,3.836 z m 19.236,-2.804 c -0.777,-3.288 -1.314,-7.034 -1.188,-8.292 l 0.086,-0.854 0.984,0.882 c 0.945,0.846 0.995,0.978 1.237,3.268 0.138,1.312 0.5,3.013 0.801,3.78 0.302,0.766 0.545,1.538 0.54,1.715 -0.006,0.176 -0.408,0.785 -0.894,1.353 l -0.883,1.032 z m 3.56,-2.245 c -0.39,-1.119 -0.675,-3.418 -0.424,-3.418 0.113,0 0.724,0.425 1.357,0.944 l 1.152,0.944 -0.806,1.173 c -0.444,0.645 -0.85,1.173 -0.9,1.173 -0.052,0 -0.223,-0.367 -0.379,-0.816 z m 49.093,-1.19 c -1.889,-4.046 -5.997,-9.243 -11.145,-14.102 -1.686,-1.591 -1.68,-1.539 -0.52,-4.15 l 0.697,-1.57 2.616,2.73 c 2.99,3.123 5.65,6.948 7.006,10.078 1.11,2.56 2.03,6.027 1.914,7.205 l -0.084,0.844 z m -73.9,-3.154 c 0.002,-1.455 0.046,-2.017 0.1,-1.248 0.053,0.77 0.053,1.96 -0.002,2.646 -0.054,0.686 -0.098,0.057 -0.097,-1.398 z m 50.895,-3.643 -1.264,-1.12 1.279,-2.116 c 3.626,-6.001 7.538,-13.817 9.724,-19.426 l 1.28,-3.286 1.142,1.261 c 0.628,0.694 1.142,1.48 1.142,1.747 0,0.828 -2.905,8.963 -4.347,12.174 -0.755,1.68 -1.946,4.019 -2.648,5.198 -1.438,2.419 -4.537,6.7 -4.843,6.692 -0.11,-0.003 -0.77,-0.509 -1.465,-1.124 z m 23.526,-0.692 c -0.539,-1.499 -3.093,-5.774 -4.553,-7.622 -0.553,-0.7 -2.188,-2.479 -3.634,-3.954 l -2.628,-2.682 0.46,-1.419 c 0.254,-0.78 0.571,-1.537 0.705,-1.682 0.276,-0.297 2.12,1.685 4.504,4.843 1.672,2.216 4.099,6.742 4.92,9.178 0.502,1.489 1.046,4.63 0.801,4.63 -0.06,0 -0.32,-0.581 -0.575,-1.292 z m -73.706,-0.56 c -0.018,-1.621 1.33,-9.652 1.85,-11.017 0.2,-0.53 0.304,-0.554 1.307,-0.3 0.625,0.16 1.034,0.402 0.96,0.571 -1.316,3.042 -2.496,6.161 -3.215,8.497 -0.492,1.601 -0.898,2.613 -0.902,2.25 z m 45.69,-2.403 c -0.692,-0.593 -1.257,-1.164 -1.257,-1.27 0,-0.105 1.08,-2.078 2.4,-4.386 2.86,-4.997 7.169,-13.521 8.7,-17.208 0.605,-1.456 1.19,-2.738 1.303,-2.851 0.298,-0.3 2.678,1.603 2.678,2.141 0,1.067 -3.02,8.208 -5.962,14.1 -2.444,4.893 -5.823,10.555 -6.297,10.553 -0.17,-10e-4 -0.874,-0.487 -1.565,-1.08 z m -4.44,-3.566 c -0.796,-0.658 -1.42,-1.305 -1.385,-1.437 0.034,-0.133 1.652,-3.016 3.595,-6.406 a 670.47,670.47 0 0 0 6.402,-11.455 c 1.578,-2.91 2.952,-5.391 3.055,-5.513 0.102,-0.121 0.675,0.088 1.272,0.465 l 1.086,0.685 -0.436,1.123 c -1.146,2.954 -4.07,9.261 -6.286,13.558 -2.18,4.23 -5.143,9.45 -5.666,9.983 -0.105,0.107 -0.841,-0.345 -1.637,-1.003 z m -5.945,-4.507 a 149.273,149.273 0 0 0 -5.73,-3.99 c -3.8,-2.497 -3.878,-2.887 -0.526,-2.63 3.188,0.245 7.24,1.12 9.451,2.04 3.02,1.258 2.954,1.038 1.22,4.006 -0.828,1.417 -1.564,2.568 -1.637,2.557 -0.073,-0.01 -1.323,-0.903 -2.778,-1.983 z m -31.353,-2.533 c -0.51,-0.144 -1.021,-0.353 -1.137,-0.464 -0.207,-0.2 0.702,-2.85 1.127,-3.286 0.23,-0.235 2.385,0.87 2.389,1.224 0.002,0.23 -1.294,2.85 -1.392,2.811 a 48.204,48.204 0 0 0 -0.987,-0.285 z m 37.041,-3.015 c -1.994,-1.053 -5.822,-2.174 -9.087,-2.662 l -3.1,-0.463 1.398,-1.432 1.397,-1.432 2.249,0.147 c 1.237,0.08 3.123,0.394 4.191,0.696 2.733,0.771 5.863,2.129 5.863,2.542 0,0.257 -1.369,2.854 -1.682,3.191 -0.02,0.023 -0.574,-0.241 -1.229,-0.587 z m 25.07,-1.822 c -0.692,-0.637 -1.257,-1.34 -1.257,-1.562 0,-0.922 0.508,-0.581 1.535,1.03 0.6,0.94 1.065,1.705 1.034,1.7 -0.03,-0.007 -0.621,-0.532 -1.312,-1.168 z m -60.06,-0.203 c -0.546,-0.317 -0.993,-0.67 -0.993,-0.784 0,-0.322 1.61,-2.862 1.813,-2.862 0.262,0 2.156,1.313 2.156,1.495 0,0.41 -1.444,2.737 -1.696,2.732 -0.159,-0.003 -0.735,-0.265 -1.28,-0.581 z m 38.29,-2.677 c -1.114,-0.756 -4.824,-2.104 -7.346,-2.67 L 93.91,99.067 94.674,98.54 c 2.494,-1.719 2.566,-1.74 4.387,-1.273 1.793,0.46 6.375,2.514 6.67,2.99 0.143,0.232 -0.98,2.425 -1.24,2.425 -0.04,0 -0.306,-0.159 -0.593,-0.353 z m -35.248,-1.81 c -0.473,-0.292 -0.86,-0.616 -0.86,-0.72 0,-0.103 0.404,-0.58 0.898,-1.058 0.735,-0.713 0.986,-0.82 1.389,-0.59 1.244,0.71 1.243,0.703 0.482,1.851 -0.397,0.601 -0.796,1.083 -0.886,1.071 -0.09,-0.012 -0.55,-0.261 -1.023,-0.554 z m 36.579,-2.79 c -0.728,-0.383 -2.157,-1.023 -3.175,-1.424 l -1.853,-0.728 1.323,-0.572 c 1.287,-0.556 1.363,-0.56 2.779,-0.126 0.8,0.245 1.967,0.74 2.593,1.1 l 1.137,0.656 -0.478,0.82 c -0.264,0.45 -0.597,0.853 -0.741,0.894 -0.145,0.04 -0.858,-0.239 -1.585,-0.62 z M 71.626,96.862 a 0.554,0.554 0 0 1 10e-4,-0.53 c 0.183,-0.297 3.189,-2.38 3.433,-2.38 0.086,0 -0.414,0.705 -1.11,1.568 -1.201,1.49 -1.96,1.929 -2.324,1.342 z m 35.612,-2.807 c -0.73,-0.387 -1.027,-0.668 -0.794,-0.752 0.894,-0.322 3.517,-0.925 3.612,-0.83 0.21,0.21 -1.012,2.27 -1.327,2.236 -0.179,-0.02 -0.85,-0.313 -1.49,-0.654 z"
         style="fill:#ed7e9f;stroke-width:0.26458335"
         inkscape:connector-curvature="0" />
    </g>
  </g>
</svg>
