<?xml version="1.0" encoding="UTF-8" standalone="no"?>
<!-- Created with Inkscape (http://www.inkscape.org/) -->

<svg
   xmlns:dc="http://purl.org/dc/elements/1.1/"
   xmlns:cc="http://creativecommons.org/ns#"
   xmlns:rdf="http://www.w3.org/1999/02/22-rdf-syntax-ns#"
   xmlns:svg="http://www.w3.org/2000/svg"
   xmlns="http://www.w3.org/2000/svg"
   xmlns:sodipodi="http://sodipodi.sourceforge.net/DTD/sodipodi-0.dtd"
   xmlns:inkscape="http://www.inkscape.org/namespaces/inkscape"
   width="47.696999mm"
   height="48.546001mm"
   viewBox="0 0 47.696999 48.546001"
   version="1.1"
   id="svg8"
   inkscape:version="0.92.2 5c3e80d, 2017-08-06"
   sodipodi:docname="kipas-mask1.svg">
  <defs
     id="defs2" />
  <sodipodi:namedview
     id="base"
     pagecolor="#ffffff"
     bordercolor="#666666"
     borderopacity="1.0"
     inkscape:pageopacity="0.0"
     inkscape:pageshadow="2"
     inkscape:zoom="1"
     inkscape:cx="84.285714"
     inkscape:cy="17.142857"
     inkscape:document-units="mm"
     inkscape:current-layer="layer1"
     showgrid="false"
     inkscape:window-width="1280"
     inkscape:window-height="756"
     inkscape:window-x="0"
     inkscape:window-y="0"
     inkscape:window-maximized="1" />
  <metadata
     id="metadata5">
    <rdf:RDF>
      <cc:Work
         rdf:about="">
        <dc:format>image/svg+xml</dc:format>
        <dc:type
           rdf:resource="http://purl.org/dc/dcmitype/StillImage" />
        <dc:title></dc:title>
      </cc:Work>
    </rdf:RDF>
  </metadata>
  <g
     inkscape:label="Layer 1"
     inkscape:groupmode="layer"
     id="layer1"
     transform="translate(0,-248.454)">
    <g
       id="g1108"
       transform="matrix(0.26458333,0,0,0.26458333,-5.6371902,237.86718)">
      <path
         id="path1079"
         transform="translate(2.268,-3.024)"
         d="m 126.792,226.465 c -8.824,-1.276 -13.485,-2.674 -20.284,-6.084 -3.6,-1.805 -6.414,-3.533 -9.16,-5.623 -4.346,-3.308 -6.422,-5.58 -9.164,-10.03 -0.829,-1.346 -1.734,-2.568 -2.012,-2.717 -0.277,-0.148 -1.49,-0.395 -2.696,-0.548 -8.322,-1.054 -15.198,-3.75 -19.35,-7.584 -3.921,-3.62 -5.577,-7.265 -6.283,-13.825 -0.732,-6.805 0.106,-10.377 3.112,-13.268 2.664,-2.561 4.16,-2.865 14.157,-2.881 5.617,-0.01 6.428,0.046 7.863,0.529 3.088,1.04 9.884,0.575 18.875,-1.293 4.296,-0.893 8.543,-3.05 17.27,-8.772 l 4.762,-3.122 2.646,-0.285 c 4.367,-0.47 8.196,0.225 12.477,2.263 3.297,1.569 6.208,3.833 8.894,6.916 4.345,4.988 7.88,7.324 14.648,9.68 4.443,1.547 8.455,2.334 13.06,2.564 5.711,0.285 16.259,2.335 18.416,3.58 1.669,0.962 3.94,3.578 4.633,5.337 0.972,2.465 0.865,5.053 -0.36,8.674 -0.54,1.6 -1.16,3.837 -1.374,4.97 -0.525,2.77 -1.689,4.865 -3.802,6.842 -5.048,4.722 -11.85,7.046 -20.88,7.134 -1.713,0.016 -3.353,0.156 -3.644,0.31 -0.29,0.153 -1.839,1.544 -3.44,3.09 -3.795,3.667 -8.114,6.504 -15.673,10.296 -5.35,2.684 -9.956,3.708 -17.4,3.866 -2.473,0.052 -4.854,0.044 -5.29,-0.02 z m 50.139,-20.87 c 7.302,-1.12 11.505,-3.316 14.223,-7.429 3.168,-4.794 4.507,-8.65 4.176,-12.026 -0.308,-3.144 -2.325,-6.376 -4.831,-7.74 -1.443,-0.785 -5.061,-1.787 -8.74,-2.422 -3.837,-0.661 -3.87,-0.655 -4.559,0.948 -0.324,0.753 -0.808,2.867 -1.075,4.696 -0.74,5.051 -1.91,9.143 -5.175,18.085 -2.12,5.804 -2.022,6.277 1.294,6.275 1.195,-0.001 3.304,-0.175 4.687,-0.387 z m -91.362,-7.458 c 0.093,-0.24 -0.09,-2.294 -0.404,-4.564 -0.315,-2.27 -0.928,-7.52 -1.362,-11.667 -0.433,-4.147 -0.91,-8.493 -1.059,-9.657 -0.148,-1.164 -0.27,-2.787 -0.27,-3.607 0,-1.322 -0.067,-1.509 -0.595,-1.65 -0.986,-0.265 -10.828,-0.174 -12.063,0.11 -2.66,0.614 -6.25,3.95 -7.914,7.352 -0.908,1.859 -0.991,2.216 -0.991,4.277 0,1.317 0.154,2.633 0.372,3.175 1.589,3.956 3.405,7.725 4.18,8.677 2.56,3.141 8.333,5.965 15.16,7.417 3.215,0.684 4.72,0.725 4.946,0.137 z M 59.588,144.511 c -3.478,-0.887 -6.265,-2.96 -7.53,-5.6 -0.496,-1.033 -0.66,-1.89 -0.75,-3.918 -0.134,-2.962 0.129,-4.565 1.403,-8.582 0.496,-1.562 0.814,-2.93 0.706,-3.037 -0.108,-0.108 -1.188,0.467 -2.4,1.279 -6.286,4.208 -13.15,4.961 -18.995,2.085 -4.584,-2.256 -7.95,-7.776 -7.376,-12.1 0.415,-3.121 2.773,-6.263 6.543,-8.711 2.06,-1.34 2.871,-2.203 2.428,-2.588 -0.122,-0.106 -1.22,-0.583 -2.437,-1.06 -3.291,-1.287 -5.233,-2.533 -7.447,-4.775 -3.54,-3.586 -5.193,-8.074 -4.564,-12.393 0.351,-2.411 1.495,-5.156 2.825,-6.778 1.094,-1.336 3.692,-2.696 5.712,-2.992 0.8,-0.118 2.407,-0.142 3.572,-0.054 1.164,0.087 2.268,0.107 2.454,0.044 0.714,-0.241 0.872,-1.05 0.435,-2.223 -1.63,-4.38 -2.102,-8.656 -1.32,-11.984 1.552,-6.598 6.865,-11.245 12.856,-11.245 1.807,0 2.254,0.107 3.915,0.938 2.441,1.221 4.466,3.422 6.543,7.11 0.866,1.537 1.684,2.76 1.817,2.717 0.133,-0.043 0.568,-1.406 0.967,-3.028 1.035,-4.209 2.425,-6.739 5.273,-9.596 2.522,-2.531 4.894,-3.952 7.7,-4.613 5.755,-1.357 11.778,1.137 13.889,5.749 0.686,1.5 0.754,1.914 0.748,4.56 -0.005,2.342 -0.146,3.407 -0.72,5.46 -0.815,2.907 -0.876,3.623 -0.324,3.834 0.214,0.083 1.613,-0.455 3.109,-1.193 3.485,-1.723 5.62,-2.233 9.333,-2.23 2.47,0.002 3.23,0.111 5.027,0.723 3.395,1.157 5.365,2.55 7.163,5.065 4.445,6.215 3.303,11.702 -3.43,16.48 -2.921,2.074 -2.945,2.416 -0.247,3.624 5.725,2.562 8.653,5.103 10.69,9.276 1.463,2.999 1.847,5.679 1.237,8.63 -0.813,3.93 -2.633,6.562 -5.503,7.958 -2.45,1.193 -4.636,1.325 -9.646,0.586 -1.713,-0.252 -1.954,0.1 -1.21,1.767 0.346,0.771 0.995,2.415 1.444,3.652 0.759,2.091 0.816,2.5 0.82,5.82 0.003,2.805 -0.102,3.885 -0.49,5.028 -1.427,4.189 -3.823,6.988 -7.535,8.8 -2.18,1.065 -2.403,1.118 -4.67,1.112 -2.096,-0.006 -2.567,-0.1 -3.922,-0.778 -1.85,-0.927 -3.872,-2.83 -5.49,-5.165 -1,-1.445 -1.313,-1.72 -1.954,-1.72 -0.714,0 -0.838,0.17 -1.898,2.619 -1.397,3.227 -2.643,5.139 -4.606,7.065 -1.818,1.784 -4.018,3.158 -6.34,3.96 -2.079,0.719 -5.846,0.922 -7.805,0.422 z m 10.69,-47.655 c 2.129,-1.101 2.15,-4.47 0.034,-5.565 -1.993,-1.03 -4.39,0.188 -4.678,2.377 -0.323,2.469 2.408,4.344 4.643,3.188 z"
         style="fill:#b8e1f7;stroke-width:0.26458332"
         inkscape:connector-curvature="0" />
      <path
         id="path1081"
         transform="translate(2.268,-3.024)"
         d="m 125.072,212.947 c -5.91,-0.966 -7.489,-1.259 -9.211,-1.708 -7.17,-1.867 -14.567,-5.546 -18.736,-9.32 -0.893,-0.81 -1.2,-1.26 -1.077,-1.583 0.314,-0.818 0.973,-0.81 1.856,0.022 3.035,2.863 8.886,6.095 14.51,8.014 5.117,1.746 14.695,3.396 17.5,3.015 12.81,-1.74 18.417,-2.975 24.736,-5.446 1.497,-0.585 2.897,-0.998 3.109,-0.916 0.585,0.224 0.462,1.162 -0.21,1.595 -1.235,0.799 -5.559,2.279 -10.12,3.465 -3.978,1.034 -6.825,1.563 -14.867,2.759 -1.823,0.271 -6.1,0.33 -7.49,0.103 z m 41.408,-4.54 c -1.187,-0.157 -1.332,-0.248 -1.405,-0.885 -0.129,-1.113 0.523,-1.274 5.022,-1.237 8.386,0.069 14.119,-1.372 18.447,-4.636 2.426,-1.829 5.898,-7.622 6.76,-11.28 1.348,-5.722 -1.099,-11.177 -5.804,-12.937 -2.74,-1.025 -11.09,-2.67 -13.557,-2.67 -1.02,0 -1.066,0.039 -1.224,0.993 -0.09,0.545 -0.165,1.383 -0.167,1.86 -0.002,0.478 -0.161,0.93 -0.355,1.004 -0.195,0.074 -2.47,-0.882 -5.055,-2.125 -2.587,-1.244 -4.733,-2.26 -4.77,-2.26 -0.038,0 -2.413,-1.135 -5.279,-2.52 -4.377,-2.117 -8.049,-4.207 -13.912,-7.921 -0.51,-0.323 -1.7,-1.064 -2.646,-1.646 -0.946,-0.583 -2.97,-1.838 -4.498,-2.79 -4.247,-2.646 -4.17,-2.617 -5.846,-2.213 -0.787,0.19 -2.025,0.478 -2.753,0.64 -19.062,4.272 -17.274,3.743 -26.988,7.974 -5.184,2.258 -6.2,2.606 -9.26,3.171 -1.746,0.323 -4.603,0.864 -6.348,1.202 -1.745,0.338 -3.275,0.552 -3.4,0.475 -0.124,-0.077 -0.184,-0.985 -0.134,-2.017 l 0.092,-1.877 -1.19,-0.224 c -2.012,-0.379 -13.146,-0.048 -14.697,0.437 -2.996,0.937 -5.61,3.52 -6.707,6.626 -0.723,2.047 -0.795,5.546 -0.163,7.958 0.413,1.578 1.953,5.626 2.719,7.144 2.356,4.673 9.739,8.488 19.774,10.218 1.746,0.301 3.324,0.67 3.506,0.82 0.181,0.15 0.33,0.555 0.33,0.9 0,0.566 -0.116,0.63 -1.144,0.63 -0.629,0 -2.326,-0.177 -3.77,-0.393 -6.068,-0.909 -11.434,-2.801 -15.255,-5.38 -4.185,-2.825 -7.18,-7.073 -7.961,-11.293 -0.621,-3.356 -0.974,-6.48 -0.974,-8.63 0,-4.662 2.37,-8.701 6.102,-10.403 1.425,-0.65 1.706,-0.677 8.732,-0.844 7.733,-0.184 9.806,0.002 11.064,0.992 0.537,0.422 1.094,0.496 3.705,0.491 5.028,-0.009 15.177,-1.727 18.586,-3.146 3.12,-1.299 9.974,-5.25 13.856,-7.987 3.02,-2.129 4.123,-2.666 6.03,-2.936 4.917,-0.694 10.493,0.651 14.985,3.616 2.088,1.378 3.838,3.04 5.972,5.672 4.133,5.095 11.062,8.886 20.109,11.002 4.608,1.077 6.522,1.3 8.047,0.934 1.572,-0.377 3.587,-0.156 9.944,1.094 5.74,1.129 8.097,1.773 8.996,2.457 1.583,1.204 2.597,2.43 3.406,4.116 0.786,1.638 0.825,1.87 0.812,4.895 -0.012,2.702 -0.116,3.471 -0.697,5.16 -0.375,1.09 -0.769,2.4 -0.874,2.91 -0.614,2.968 -2.916,6.806 -5.325,8.877 -3.472,2.984 -7.33,4.643 -13.197,5.674 -1.934,0.34 -9.816,0.549 -11.641,0.308 z m -37.968,-10.144 c -11.167,-0.605 -23.515,-3.678 -33.271,-8.279 -2.253,-1.062 -2.712,-1.379 -2.712,-1.872 0,-1.051 0.761,-0.965 3.801,0.431 10.201,4.686 21.62,7.425 33.637,8.07 3.45,0.184 12.655,-0.213 19.182,-0.828 4.51,-0.425 8.796,-1.192 11.209,-2.005 1.784,-0.6 2.285,-0.516 2.285,0.389 0,0.535 -0.244,0.726 -1.521,1.193 -5.478,2 -22.045,3.474 -32.61,2.901 z m 32.28,-13.986 c -0.801,-0.113 -4.85,-0.703 -8.997,-1.31 -4.147,-0.608 -8.017,-1.173 -8.599,-1.255 -0.582,-0.082 -2.01,-0.657 -3.175,-1.278 -6.739,-3.591 -16.454,-4.246 -25.636,-1.728 -2.96,0.812 -5.793,0.91 -12.86,0.446 -3.566,-0.234 -6.92,-0.493 -7.454,-0.575 -1.014,-0.156 -1.378,-0.601 -1.095,-1.338 0.146,-0.38 0.5,-0.411 2.836,-0.25 12.933,0.887 14.86,0.891 17.946,0.038 4.43,-1.226 10.528,-1.803 15.15,-1.433 4.666,0.373 7.3,1.084 11.642,3.142 2.06,0.976 3.145,1.32 4.895,1.547 1.237,0.161 4.273,0.594 6.747,0.962 2.474,0.368 5.391,0.787 6.482,0.931 2.313,0.305 3.661,0.522 4.275,0.69 0.586,0.159 0.834,0.872 0.46,1.323 -0.326,0.393 -0.437,0.396 -2.618,0.088 z M 59.588,143.967 c -3.494,-0.853 -5.99,-2.724 -7.218,-5.412 -0.594,-1.301 -0.683,-1.857 -0.688,-4.274 -0.008,-3.878 0.527,-5.756 4.182,-14.684 l 0.433,-1.058 -0.85,1.058 c -1.66,2.068 -4.612,4.802 -6.097,5.647 -2.859,1.627 -5.039,2.228 -8.559,2.362 -3.746,0.142 -5.423,-0.147 -7.958,-1.37 -3.412,-1.65 -5.93,-4.58 -7.023,-8.177 -1.652,-5.44 1.47,-10.112 9.261,-13.86 l 2.022,-0.972 -1.891,-0.318 c -7.09,-1.195 -12.645,-5.434 -14.975,-11.426 -0.496,-1.275 -0.59,-2.03 -0.585,-4.694 0.005,-2.665 0.101,-3.414 0.6,-4.659 1.25,-3.12 3,-4.964 5.675,-5.976 1.66,-0.628 5.82,-0.568 8.794,0.127 1.306,0.305 2.412,0.517 2.458,0.471 0.046,-0.046 -0.352,-0.828 -0.885,-1.737 -3.56,-6.074 -3.967,-12.697 -1.11,-18.067 2.16,-4.06 7.368,-7.148 11.294,-6.697 4.43,0.509 7.957,4.238 11.41,12.064 l 0.642,1.455 0.17,-3.043 c 0.297,-5.29 2.08,-9.338 5.658,-12.84 4.17,-4.083 9.502,-5.484 14.49,-3.805 3.442,1.158 5.554,3.191 6.423,6.184 0.574,1.975 0.406,6.055 -0.355,8.609 -0.633,2.125 -2.068,5.804 -3.341,8.568 -0.529,1.147 -0.924,2.122 -0.88,2.167 0.046,0.045 0.854,-0.864 1.796,-2.021 2.229,-2.736 4.076,-4.232 7.005,-5.675 7.529,-3.707 16.23,-2.112 20.406,3.741 2.11,2.956 2.953,6.457 2.204,9.152 -0.43,1.547 -2.357,4.183 -4.05,5.539 -0.85,0.682 -2.814,1.934 -4.363,2.782 l -2.817,1.542 1.189,0.223 c 4.582,0.859 7.866,2.511 10.867,5.467 3.267,3.219 4.745,6.472 4.739,10.433 -0.007,4.87 -1.963,8.522 -5.493,10.26 -1.666,0.82 -1.931,0.87 -4.553,0.863 -2.038,-0.006 -3.377,-0.169 -5,-0.606 -1.219,-0.329 -2.275,-0.538 -2.348,-0.466 -0.072,0.073 0.32,0.813 0.873,1.645 3.914,5.897 4.317,13.85 0.965,19.033 -1.968,3.042 -5.317,5.34 -8.692,5.964 -5.194,0.96 -10.104,-3.37 -13.654,-12.042 l -0.856,-2.09 -0.159,2.76 c -0.347,6.057 -2.184,10.182 -6.229,13.99 -3.792,3.572 -8.438,4.96 -12.927,3.863 z m 4.101,-41.202 c 0,-0.146 -0.12,-0.191 -0.265,-0.101 -0.145,0.09 -0.264,0.282 -0.264,0.428 0,0.145 0.119,0.19 0.264,0.1 0.146,-0.09 0.265,-0.282 0.265,-0.427 z m 7.274,-4.958 c 2.49,-1.455 2.9,-4.997 0.82,-7.079 -2.866,-2.866 -7.78,-0.56 -7.49,3.516 0.238,3.348 3.79,5.245 6.67,3.563 z M 66.28,84.022 c -0.178,-0.284 -0.36,-0.48 -0.405,-0.434 -0.157,0.157 0.252,0.952 0.49,0.952 0.13,0 0.093,-0.233 -0.085,-0.518 z"
         style="fill:#6cb4df;stroke-width:0.26458332"
         inkscape:connector-curvature="0" />
      <path
         id="path1083"
         transform="translate(2.268,-3.024)"
         d="m 125.734,212.57 c -9.194,-0.965 -17.59,-3.67 -24.022,-7.74 -2.71,-1.713 -5.215,-3.78 -5.215,-4.303 0,-0.59 0.53,-0.423 1.582,0.495 3.495,3.054 9.508,6.218 15.099,7.945 4.737,1.463 5.589,1.66 10.042,2.312 4.93,0.722 6.278,0.672 14.373,-0.532 6.043,-0.9 13.293,-2.814 18.352,-4.847 1.561,-0.627 1.936,-0.65 1.936,-0.12 0,0.312 -2.922,1.626 -5.49,2.469 -5.34,1.75 -12.146,3.165 -20.255,4.21 -3.387,0.438 -3.303,0.436 -6.402,0.11 z m 42.685,-4.457 c -1.553,-0.08 -2.896,-0.218 -2.983,-0.306 -0.312,-0.315 0.184,-1.03 0.741,-1.07 0.312,-0.02 1.639,-0.012 2.948,0.02 4.465,0.109 10.412,-0.676 13.687,-1.806 4.804,-1.657 7.187,-3.578 9.778,-7.88 2.593,-4.306 3.372,-6.614 3.384,-10.024 0.01,-3 -0.865,-5.292 -2.913,-7.625 -1.035,-1.178 -2.165,-1.879 -4.131,-2.561 -1.747,-0.606 -6.774,-1.647 -10.147,-2.1 -4.132,-0.555 -4.009,-0.524 -3.912,-1.006 0.181,-0.905 6.224,-0.415 12.246,0.994 5.973,1.397 5.838,1.35 7.342,2.531 1.963,1.541 3.075,3.748 3.462,6.87 0.258,2.083 0.228,2.42 -0.448,4.957 -0.398,1.497 -0.882,3.316 -1.074,4.044 -1.988,7.526 -7.103,12.09 -15.737,14.04 -1.543,0.35 -3.877,0.701 -5.187,0.782 -1.31,0.081 -2.798,0.179 -3.307,0.217 -0.51,0.038 -2.196,0.004 -3.75,-0.077 z m -85.15,-7.438 C 71.577,198.908 64.403,195.1 60.862,188.778 c -1.57,-2.802 -2.145,-5.406 -2.642,-11.967 -0.374,-4.94 1.756,-9.443 5.28,-11.156 1.198,-0.583 1.972,-0.712 5.878,-0.975 4.588,-0.31 11.533,-0.186 12.964,0.232 0.791,0.23 1.28,1.12 0.615,1.118 -0.193,0 -3.505,0.04 -7.362,0.091 -5.572,0.074 -7.285,0.182 -8.346,0.525 -3.058,0.99 -5.614,3.544 -6.74,6.734 -0.788,2.23 -0.857,5.965 -0.156,8.394 0.745,2.581 2.26,6.353 3.048,7.584 3.205,5.011 10.774,8.583 21.512,10.15 1.275,0.187 1.975,0.678 1.67,1.172 -0.195,0.314 -1.209,0.313 -3.315,-0.006 z m 42.134,-3.018 C 114.307,196.495 104.307,193.79 95,189.435 c -1.041,-0.487 -1.972,-1.012 -2.067,-1.167 -0.349,-0.564 0.633,-0.562 1.743,0.003 3.817,1.948 10.59,4.389 16.109,5.806 8.619,2.212 13.5,2.782 23.68,2.762 12.148,-0.024 21.538,-1.019 26.484,-2.808 0.662,-0.239 0.978,-0.247 1.195,-0.03 0.657,0.657 -3.048,1.812 -8.232,2.566 -8.057,1.171 -22.472,1.723 -28.51,1.09 z m 35.36,-13.75 c -0.064,-0.065 -1.066,-0.241 -2.227,-0.393 -1.16,-0.152 -4.194,-0.584 -6.74,-0.96 -2.547,-0.377 -5.712,-0.84 -7.034,-1.03 -1.943,-0.28 -2.932,-0.607 -5.16,-1.703 -4.834,-2.378 -10.013,-3.282 -16.612,-2.9 -3.404,0.198 -5.627,0.558 -8.501,1.377 -1.743,0.497 -2.644,0.564 -7.408,0.556 -5.678,-0.01 -13.183,-0.53 -13.613,-0.94 -0.629,-0.602 0.332,-0.762 3.041,-0.508 4.77,0.448 13.017,0.741 14.673,0.522 a 31.624,31.624 0 0 0 3.175,-0.625 c 3.86,-1.008 6.609,-1.332 11.377,-1.338 3.64,-0.005 5.28,0.106 6.957,0.473 3.405,0.746 6.61,1.932 8.787,3.25 0.66,0.4 2.098,0.728 5.026,1.146 2.255,0.321 6.065,0.877 8.466,1.235 2.401,0.358 5.02,0.722 5.821,0.809 1.557,0.17 2.381,0.478 2.381,0.89 0,0.247 -2.175,0.373 -2.41,0.138 z M 60.117,144.077 c -2.81,-0.621 -5.537,-2.131 -6.705,-3.71 -1.349,-1.825 -1.721,-3.14 -1.723,-6.086 -10e-4,-3.859 0.882,-7.03 3.708,-13.315 0.512,-1.14 0.878,-2.124 0.813,-2.19 -0.066,-0.065 -0.628,0.541 -1.25,1.348 -2.502,3.242 -5.36,5.348 -9.05,6.669 -1.55,0.555 -2.562,0.716 -5.119,0.813 -3.746,0.142 -5.423,-0.147 -7.958,-1.37 -3.412,-1.65 -5.93,-4.58 -7.023,-8.177 -1.076,-3.542 -0.162,-6.688 2.77,-9.54 1.775,-1.726 4.796,-3.642 7.687,-4.876 0.97,-0.414 1.683,-0.833 1.584,-0.932 -0.098,-0.099 -0.785,-0.182 -1.524,-0.184 -5.35,-0.015 -11.549,-3.725 -14.56,-8.71 -3.655,-6.057 -1.976,-14.325 3.446,-16.964 1.049,-0.51 1.817,-0.651 3.948,-0.723 2.26,-0.076 3.108,0.027 5.809,0.71 1.74,0.44 3.207,0.756 3.26,0.703 0.054,-0.054 -0.179,-0.412 -0.517,-0.795 -3.08,-3.491 -4.858,-9.41 -4.257,-14.169 0.629,-4.986 3.31,-9.013 7.315,-10.988 3.742,-1.845 6.644,-1.807 9.636,0.127 2.272,1.468 4.031,3.79 6.223,8.21 l 1.9,3.83 0.165,-3.036 c 0.289,-5.278 2.073,-9.33 5.653,-12.835 5.023,-4.918 11.793,-5.89 17.323,-2.486 4.448,2.737 5.179,8.732 2.06,16.914 -0.712,1.871 -2.888,6.83 -4.788,10.914 -0.66,1.418 -1.152,2.58 -1.092,2.58 0.06,0 0.786,-1.162 1.614,-2.58 4.462,-7.643 7.798,-10.681 13.472,-12.269 2.74,-0.766 6.934,-0.827 9.235,-0.133 4.008,1.208 6.957,3.573 8.55,6.854 3.122,6.435 0.667,11.124 -8.11,15.491 l -3.014,1.5 1.924,0.212 c 4.367,0.483 8.364,2.42 11.533,5.588 3.134,3.132 4.612,6.444 4.606,10.321 -0.007,4.87 -1.963,8.522 -5.493,10.26 -1.666,0.82 -1.931,0.87 -4.553,0.863 -2.038,-0.006 -3.377,-0.169 -5,-0.606 -1.219,-0.329 -2.275,-0.538 -2.348,-0.466 -0.072,0.073 0.32,0.813 0.873,1.645 3.914,5.897 4.317,13.85 0.965,19.033 -2.72,4.206 -7.802,6.76 -11.773,5.917 -3.794,-0.805 -6.963,-4.179 -9.884,-10.523 a 6789.2,6789.2 0 0 0 -1.665,-3.615 l -0.489,-1.058 0.145,3.096 c 0.178,3.818 -0.257,5.922 -1.93,9.34 -2.726,5.566 -7.836,9.264 -13.164,9.526 -1.193,0.06 -2.646,10e-4 -3.228,-0.127 z m 11.789,-40.142 c -0.358,-1.42 -0.418,-1.334 1.981,-2.829 2.433,-1.515 3.825,-4.403 3.825,-7.935 0,-2.113 -0.775,-4.01 -2.229,-5.457 -0.576,-0.573 -0.932,-1.187 -0.938,-1.612 -0.004,-0.377 0.406,-1.984 0.913,-3.571 0.507,-1.588 0.923,-3.062 0.926,-3.276 0.003,-0.215 -0.64,0.917 -1.43,2.513 -2.02,4.086 -1.907,3.97 -3.489,3.59 -0.717,-0.172 -2.012,-0.355 -2.877,-0.407 -1.301,-0.077 -1.675,-0.212 -2.165,-0.782 -0.326,-0.378 -0.633,-0.688 -0.684,-0.688 -0.05,0 -0.043,0.415 0.016,0.922 0.096,0.821 0.011,0.973 -0.77,1.39 -1.537,0.817 -3.855,3.195 -4.44,4.552 -0.884,2.056 -0.99,3.91 -0.323,5.69 0.822,2.198 1.204,2.855 2.41,4.148 0.76,0.815 1.038,1.314 0.938,1.687 -0.078,0.29 -0.216,0.797 -0.307,1.124 -0.201,0.727 0.322,0.812 0.55,0.09 0.318,-1 0.792,-1.145 2.286,-0.701 0.764,0.227 1.955,0.413 2.646,0.413 1.36,0 1.688,0.216 2.621,1.726 0.75,1.214 0.941,1.007 0.54,-0.587 z"
         style="fill:#edaa09;stroke-width:0.26458332"
         inkscape:connector-curvature="0" />
      <path
         id="path1085"
         transform="translate(2.268,-3.024)"
         d="m 125.734,212.57 c -9.194,-0.965 -17.59,-3.67 -24.022,-7.74 -2.71,-1.713 -5.215,-3.78 -5.215,-4.303 0,-0.59 0.53,-0.423 1.582,0.495 3.495,3.054 9.508,6.218 15.099,7.945 4.737,1.463 5.589,1.66 10.042,2.312 4.93,0.722 6.278,0.672 14.373,-0.532 6.043,-0.9 13.293,-2.814 18.352,-4.847 1.561,-0.627 1.936,-0.65 1.936,-0.12 0,0.312 -2.922,1.626 -5.49,2.469 -5.34,1.75 -12.146,3.165 -20.255,4.21 -3.387,0.438 -3.303,0.436 -6.402,0.11 z m 42.685,-4.457 c -1.553,-0.08 -2.896,-0.218 -2.983,-0.306 -0.312,-0.315 0.184,-1.03 0.741,-1.07 0.312,-0.02 1.639,-0.012 2.948,0.02 4.465,0.109 10.412,-0.676 13.687,-1.806 4.804,-1.657 7.187,-3.578 9.778,-7.88 2.593,-4.306 3.372,-6.614 3.384,-10.024 0.01,-3 -0.865,-5.292 -2.913,-7.625 -1.035,-1.178 -2.165,-1.879 -4.131,-2.561 -1.747,-0.606 -6.774,-1.647 -10.147,-2.1 -4.132,-0.555 -4.009,-0.524 -3.912,-1.006 0.181,-0.905 6.224,-0.415 12.246,0.994 5.973,1.397 5.838,1.35 7.342,2.531 1.963,1.541 3.075,3.748 3.462,6.87 0.258,2.083 0.228,2.42 -0.448,4.957 -0.398,1.497 -0.882,3.316 -1.074,4.044 -1.988,7.526 -7.103,12.09 -15.737,14.04 -1.543,0.35 -3.877,0.701 -5.187,0.782 -1.31,0.081 -2.798,0.179 -3.307,0.217 -0.51,0.038 -2.196,0.004 -3.75,-0.077 z m -85.15,-7.438 C 71.577,198.908 64.403,195.1 60.862,188.778 c -1.57,-2.802 -2.145,-5.406 -2.642,-11.967 -0.374,-4.94 1.756,-9.443 5.28,-11.156 1.198,-0.583 1.972,-0.712 5.878,-0.975 4.588,-0.31 11.533,-0.186 12.964,0.232 0.791,0.23 1.28,1.12 0.615,1.118 -0.193,0 -3.505,0.04 -7.362,0.091 -5.572,0.074 -7.285,0.182 -8.346,0.525 -3.058,0.99 -5.614,3.544 -6.74,6.734 -0.788,2.23 -0.857,5.965 -0.156,8.394 0.745,2.581 2.26,6.353 3.048,7.584 3.205,5.011 10.774,8.583 21.512,10.15 1.275,0.187 1.975,0.678 1.67,1.172 -0.195,0.314 -1.209,0.313 -3.315,-0.006 z m 42.134,-3.018 C 114.307,196.495 104.307,193.79 95,189.435 c -1.041,-0.487 -1.972,-1.012 -2.067,-1.167 -0.349,-0.564 0.633,-0.562 1.743,0.003 3.817,1.948 10.59,4.389 16.109,5.806 8.619,2.212 13.5,2.782 23.68,2.762 12.148,-0.024 21.538,-1.019 26.484,-2.808 0.662,-0.239 0.978,-0.247 1.195,-0.03 0.657,0.657 -3.048,1.812 -8.232,2.566 -8.057,1.171 -22.472,1.723 -28.51,1.09 z m 35.36,-13.75 c -0.064,-0.065 -1.066,-0.241 -2.227,-0.393 -1.16,-0.152 -4.194,-0.584 -6.74,-0.96 -2.547,-0.377 -5.712,-0.84 -7.034,-1.03 -1.943,-0.28 -2.932,-0.607 -5.16,-1.703 -4.834,-2.378 -10.013,-3.282 -16.612,-2.9 -3.404,0.198 -5.627,0.558 -8.501,1.377 -1.743,0.497 -2.644,0.564 -7.408,0.556 -5.678,-0.01 -13.183,-0.53 -13.613,-0.94 -0.629,-0.602 0.332,-0.762 3.041,-0.508 4.77,0.448 13.017,0.741 14.673,0.522 a 31.624,31.624 0 0 0 3.175,-0.625 c 3.86,-1.008 6.609,-1.332 11.377,-1.338 3.64,-0.005 5.28,0.106 6.957,0.473 3.405,0.746 6.61,1.932 8.787,3.25 0.66,0.4 2.098,0.728 5.026,1.146 2.255,0.321 6.065,0.877 8.466,1.235 2.401,0.358 5.02,0.722 5.821,0.809 1.557,0.17 2.381,0.478 2.381,0.89 0,0.247 -2.175,0.373 -2.41,0.138 z M 60.117,144.077 c -2.81,-0.621 -5.537,-2.131 -6.705,-3.71 -1.349,-1.825 -1.721,-3.14 -1.723,-6.086 -0.002,-4.207 0.912,-7.198 4.847,-15.873 1.81,-3.99 1.794,-4.016 -0.397,-0.663 -4.035,6.175 -8.784,9.134 -15.359,9.57 -6.025,0.4 -11.517,-2.516 -13.812,-7.334 -1.688,-3.541 -1.586,-6.519 0.32,-9.353 1.445,-2.149 3.524,-3.756 7.458,-5.765 1.8,-0.919 3.234,-1.79 3.188,-1.935 -0.047,-0.145 -0.968,-0.34 -2.047,-0.43 -5.843,-0.494 -11.144,-3.753 -14.12,-8.682 -3.655,-6.056 -1.976,-14.324 3.446,-16.963 1.049,-0.51 1.817,-0.651 3.948,-0.723 2.26,-0.076 3.108,0.027 5.809,0.71 1.74,0.44 3.207,0.756 3.26,0.703 0.054,-0.054 -0.179,-0.412 -0.517,-0.795 -3.08,-3.491 -4.858,-9.41 -4.257,-14.169 0.629,-4.986 3.31,-9.013 7.315,-10.988 6.391,-3.152 11.266,-0.774 15.48,7.549 0.847,1.673 1.794,3.697 2.104,4.497 5.35,13.797 7.45,19.745 7.45,21.09 0,0.44 -0.257,0.767 -0.849,1.082 -0.467,0.248 -1.527,1.082 -2.355,1.855 -1.897,1.769 -2.66,3.437 -2.78,6.078 -0.111,2.456 0.542,4.301 2.162,6.103 0.647,0.72 1.177,1.457 1.177,1.637 0,0.181 -0.357,1.565 -0.794,3.076 -0.436,1.51 -0.79,2.834 -0.784,2.94 0.005,0.106 0.35,-0.594 0.766,-1.555 0.832,-1.921 2.031,-3.943 2.336,-3.938 0.108,0.002 0.78,0.18 1.494,0.397 0.715,0.217 1.846,0.396 2.514,0.398 1.462,0.005 1.503,0.032 2.736,1.771 1.132,1.599 1.233,1.826 3.625,8.147 2.883,7.616 3.188,8.753 3.365,12.55 0.187,4.03 -0.19,5.883 -1.912,9.41 -2.718,5.563 -7.831,9.265 -13.161,9.527 -1.193,0.06 -2.646,10e-4 -3.228,-0.127 z m -1.323,-30.169 c 0.226,-0.436 0.351,-0.793 0.278,-0.793 -0.072,0 -0.317,0.357 -0.542,0.793 -0.226,0.437 -0.351,0.794 -0.279,0.794 0.073,0 0.317,-0.357 0.543,-0.794 z m 45.244,-2.668 c -3.925,-0.868 -5.144,-1.375 -7.537,-3.136 -5.495,-4.043 -12.75,-7.307 -19.148,-8.617 -0.858,-0.176 -0.855,-0.252 0.107,-2.909 1.049,-2.899 0.202,-6.695 -1.977,-8.864 -0.576,-0.573 -0.932,-1.187 -0.938,-1.612 -0.004,-0.377 0.406,-1.984 0.913,-3.571 0.507,-1.588 0.926,-3.184 0.932,-3.548 0.012,-0.673 0.255,-1.135 3.018,-5.732 4.712,-7.842 7.865,-10.706 13.53,-12.29 2.74,-0.767 6.933,-0.828 9.234,-0.134 4.008,1.208 6.957,3.573 8.55,6.854 3.116,6.421 0.666,11.122 -8.062,15.469 -1.63,0.812 -2.91,1.565 -2.844,1.673 0.067,0.108 0.746,0.276 1.51,0.374 8.542,1.096 15.288,7.274 15.971,14.626 0.449,4.827 -2.128,9.76 -5.82,11.14 -1.624,0.608 -5.32,0.746 -7.44,0.277 z"
         style="fill:#f27301;stroke-width:0.26458332"
         inkscape:connector-curvature="0" />
      <path
         id="path1087"
         transform="translate(2.268,-3.024)"
         d="m 125.734,212.57 c -9.194,-0.965 -17.59,-3.67 -24.022,-7.74 -2.71,-1.713 -5.215,-3.78 -5.215,-4.303 0,-0.59 0.53,-0.423 1.582,0.495 3.495,3.054 9.508,6.218 15.099,7.945 4.737,1.463 5.589,1.66 10.042,2.312 4.93,0.722 6.278,0.672 14.373,-0.532 6.043,-0.9 13.293,-2.814 18.352,-4.847 1.561,-0.627 1.936,-0.65 1.936,-0.12 0,0.312 -2.922,1.626 -5.49,2.469 -5.34,1.75 -12.146,3.165 -20.255,4.21 -3.387,0.438 -3.303,0.436 -6.402,0.11 z m 42.685,-4.457 c -1.553,-0.08 -2.896,-0.218 -2.983,-0.306 -0.312,-0.315 0.184,-1.03 0.741,-1.07 0.312,-0.02 1.639,-0.012 2.948,0.02 4.465,0.109 10.412,-0.676 13.687,-1.806 4.804,-1.657 7.187,-3.578 9.778,-7.88 2.593,-4.306 3.372,-6.614 3.384,-10.024 0.01,-3 -0.865,-5.292 -2.913,-7.625 -1.035,-1.178 -2.165,-1.879 -4.131,-2.561 -1.747,-0.606 -6.774,-1.647 -10.147,-2.1 -4.132,-0.555 -4.009,-0.524 -3.912,-1.006 0.181,-0.905 6.224,-0.415 12.246,0.994 5.973,1.397 5.838,1.35 7.342,2.531 1.963,1.541 3.075,3.748 3.462,6.87 0.258,2.083 0.228,2.42 -0.448,4.957 -0.398,1.497 -0.882,3.316 -1.074,4.044 -1.988,7.526 -7.103,12.09 -15.737,14.04 -1.543,0.35 -3.877,0.701 -5.187,0.782 -1.31,0.081 -2.798,0.179 -3.307,0.217 -0.51,0.038 -2.196,0.004 -3.75,-0.077 z m -85.15,-7.438 C 71.577,198.908 64.403,195.1 60.862,188.778 c -1.57,-2.802 -2.145,-5.406 -2.642,-11.967 -0.374,-4.94 1.756,-9.443 5.28,-11.156 1.198,-0.583 1.972,-0.712 5.878,-0.975 4.588,-0.31 11.533,-0.186 12.964,0.232 0.791,0.23 1.28,1.12 0.615,1.118 -0.193,0 -3.505,0.04 -7.362,0.091 -5.572,0.074 -7.285,0.182 -8.346,0.525 -3.058,0.99 -5.614,3.544 -6.74,6.734 -0.788,2.23 -0.857,5.965 -0.156,8.394 0.745,2.581 2.26,6.353 3.048,7.584 3.205,5.011 10.774,8.583 21.512,10.15 1.275,0.187 1.975,0.678 1.67,1.172 -0.195,0.314 -1.209,0.313 -3.315,-0.006 z m 42.134,-3.018 C 114.307,196.495 104.307,193.79 95,189.435 c -1.041,-0.487 -1.972,-1.012 -2.067,-1.167 -0.349,-0.564 0.633,-0.562 1.743,0.003 3.817,1.948 10.59,4.389 16.109,5.806 8.619,2.212 13.5,2.782 23.68,2.762 12.148,-0.024 21.538,-1.019 26.484,-2.808 0.662,-0.239 0.978,-0.247 1.195,-0.03 0.657,0.657 -3.048,1.812 -8.232,2.566 -8.057,1.171 -22.472,1.723 -28.51,1.09 z m 35.36,-13.75 c -0.064,-0.065 -1.066,-0.241 -2.227,-0.393 -1.16,-0.152 -4.194,-0.584 -6.74,-0.96 -2.547,-0.377 -5.712,-0.84 -7.034,-1.03 -1.943,-0.28 -2.932,-0.607 -5.16,-1.703 -4.834,-2.378 -10.013,-3.282 -16.612,-2.9 -3.404,0.198 -5.627,0.558 -8.501,1.377 -1.743,0.497 -2.644,0.564 -7.408,0.556 -5.678,-0.01 -13.183,-0.53 -13.613,-0.94 -0.629,-0.602 0.332,-0.762 3.041,-0.508 4.77,0.448 13.017,0.741 14.673,0.522 a 31.624,31.624 0 0 0 3.175,-0.625 c 3.86,-1.008 6.609,-1.332 11.377,-1.338 3.64,-0.005 5.28,0.106 6.957,0.473 3.405,0.746 6.61,1.932 8.787,3.25 0.66,0.4 2.098,0.728 5.026,1.146 2.255,0.321 6.065,0.877 8.466,1.235 2.401,0.358 5.02,0.722 5.821,0.809 1.557,0.17 2.381,0.478 2.381,0.89 0,0.247 -2.175,0.373 -2.41,0.138 z M 60.117,144.077 c -2.81,-0.621 -5.537,-2.131 -6.705,-3.71 -1.349,-1.825 -1.721,-3.14 -1.723,-6.086 -0.002,-4.75 1.347,-8.704 6.747,-19.774 1.152,-2.363 2.676,-5.652 3.385,-7.31 1.29,-3.01 2.496,-5.197 2.863,-5.192 0.108,0.002 0.78,0.18 1.494,0.397 0.715,0.217 1.846,0.396 2.514,0.398 1.462,0.005 1.503,0.032 2.736,1.771 1.132,1.599 1.233,1.826 3.625,8.147 2.883,7.616 3.188,8.753 3.365,12.55 0.187,4.03 -0.19,5.883 -1.912,9.41 -2.718,5.563 -7.831,9.265 -13.161,9.527 -1.193,0.06 -2.646,10e-4 -3.228,-0.127 z m -22.23,-41.29 c -0.087,-0.14 -0.776,-0.258 -1.532,-0.26 -5.378,-0.015 -11.57,-3.712 -14.587,-8.71 -3.656,-6.057 -1.977,-14.325 3.445,-16.964 1.049,-0.51 1.817,-0.651 3.948,-0.723 2.26,-0.076 3.108,0.027 5.809,0.71 1.74,0.44 3.207,0.756 3.26,0.703 0.054,-0.054 -0.179,-0.412 -0.517,-0.795 -3.08,-3.491 -4.858,-9.41 -4.257,-14.169 0.629,-4.986 3.31,-9.013 7.315,-10.988 6.391,-3.152 11.266,-0.774 15.48,7.549 0.847,1.673 1.794,3.697 2.104,4.497 5.35,13.797 7.45,19.745 7.45,21.09 0,0.44 -0.257,0.767 -0.849,1.082 -0.467,0.248 -1.527,1.082 -2.355,1.855 -1.898,1.77 -2.683,3.473 -2.721,5.9 l -0.027,1.747 -2.786,0.812 c -1.533,0.446 -4.986,1.666 -7.673,2.71 -7.649,2.972 -11.332,4.238 -11.507,3.955 z M 77.712,92.092 c 0,-1.035 -1.161,-3.315 -2.229,-4.378 -0.576,-0.573 -0.932,-1.187 -0.938,-1.612 -0.004,-0.377 0.406,-1.984 0.913,-3.571 0.507,-1.588 0.926,-3.184 0.932,-3.548 0.012,-0.673 0.255,-1.135 3.018,-5.732 4.712,-7.842 7.865,-10.706 13.53,-12.29 2.74,-0.767 6.933,-0.828 9.234,-0.134 4.008,1.208 6.957,3.573 8.55,6.854 3.1,6.389 0.671,11.101 -7.945,15.415 -1.567,0.785 -2.817,1.5 -2.778,1.592 0.038,0.09 -1.06,0.557 -2.443,1.036 a 138.992,138.992 0 0 0 -5.292,1.99 c -4.183,1.685 -10.296,3.88 -12.121,4.353 -0.891,0.231 -1.803,0.49 -2.026,0.576 -0.301,0.116 -0.405,-0.025 -0.405,-0.55 z"
         style="fill:#0159fb;stroke-width:0.26458332"
         inkscape:connector-curvature="0" />
      <path
         id="path1089"
         transform="translate(2.268,-3.024)"
         d="m 125.734,212.57 c -9.194,-0.965 -17.59,-3.67 -24.022,-7.74 -2.71,-1.713 -5.215,-3.78 -5.215,-4.303 0,-0.59 0.53,-0.423 1.582,0.495 3.495,3.054 9.508,6.218 15.099,7.945 4.737,1.463 5.589,1.66 10.042,2.312 4.93,0.722 6.278,0.672 14.373,-0.532 6.043,-0.9 13.293,-2.814 18.352,-4.847 1.561,-0.627 1.936,-0.65 1.936,-0.12 0,0.312 -2.922,1.626 -5.49,2.469 -5.34,1.75 -12.146,3.165 -20.255,4.21 -3.387,0.438 -3.303,0.436 -6.402,0.11 z m 42.685,-4.457 c -1.553,-0.08 -2.896,-0.218 -2.983,-0.306 -0.312,-0.315 0.184,-1.03 0.741,-1.07 0.312,-0.02 1.639,-0.012 2.948,0.02 4.465,0.109 10.412,-0.676 13.687,-1.806 4.804,-1.657 7.187,-3.578 9.778,-7.88 2.593,-4.306 3.372,-6.614 3.384,-10.024 0.01,-3 -0.865,-5.292 -2.913,-7.625 -1.035,-1.178 -2.165,-1.879 -4.131,-2.561 -1.747,-0.606 -6.774,-1.647 -10.147,-2.1 -4.132,-0.555 -4.009,-0.524 -3.912,-1.006 0.181,-0.905 6.224,-0.415 12.246,0.994 5.973,1.397 5.838,1.35 7.342,2.531 1.963,1.541 3.075,3.748 3.462,6.87 0.258,2.083 0.228,2.42 -0.448,4.957 -0.398,1.497 -0.882,3.316 -1.074,4.044 -1.988,7.526 -7.103,12.09 -15.737,14.04 -1.543,0.35 -3.877,0.701 -5.187,0.782 -1.31,0.081 -2.798,0.179 -3.307,0.217 -0.51,0.038 -2.196,0.004 -3.75,-0.077 z m -85.15,-7.438 C 71.577,198.908 64.403,195.1 60.862,188.778 c -1.57,-2.802 -2.145,-5.406 -2.642,-11.967 -0.374,-4.94 1.756,-9.443 5.28,-11.156 1.198,-0.583 1.972,-0.712 5.878,-0.975 4.588,-0.31 11.533,-0.186 12.964,0.232 0.791,0.23 1.28,1.12 0.615,1.118 -0.193,0 -3.505,0.04 -7.362,0.091 -5.572,0.074 -7.285,0.182 -8.346,0.525 -3.058,0.99 -5.614,3.544 -6.74,6.734 -0.788,2.23 -0.857,5.965 -0.156,8.394 0.745,2.581 2.26,6.353 3.048,7.584 3.205,5.011 10.774,8.583 21.512,10.15 1.275,0.187 1.975,0.678 1.67,1.172 -0.195,0.314 -1.209,0.313 -3.315,-0.006 z m 42.134,-3.018 C 114.307,196.495 104.307,193.79 95,189.435 c -1.041,-0.487 -1.972,-1.012 -2.067,-1.167 -0.349,-0.564 0.633,-0.562 1.743,0.003 3.817,1.948 10.59,4.389 16.109,5.806 8.619,2.212 13.5,2.782 23.68,2.762 12.148,-0.024 21.538,-1.019 26.484,-2.808 0.662,-0.239 0.978,-0.247 1.195,-0.03 0.657,0.657 -3.048,1.812 -8.232,2.566 -8.057,1.171 -22.472,1.723 -28.51,1.09 z m 35.36,-13.75 c -0.064,-0.065 -1.066,-0.241 -2.227,-0.393 -1.16,-0.152 -4.194,-0.584 -6.74,-0.96 -2.547,-0.377 -5.712,-0.84 -7.034,-1.03 -1.943,-0.28 -2.932,-0.607 -5.16,-1.703 -4.834,-2.378 -10.013,-3.282 -16.612,-2.9 -3.404,0.198 -5.627,0.558 -8.501,1.377 -1.743,0.497 -2.644,0.564 -7.408,0.556 -5.678,-0.01 -13.183,-0.53 -13.613,-0.94 -0.629,-0.602 0.332,-0.762 3.041,-0.508 4.77,0.448 13.017,0.741 14.673,0.522 a 31.624,31.624 0 0 0 3.175,-0.625 c 3.86,-1.008 6.609,-1.332 11.377,-1.338 3.64,-0.005 5.28,0.106 6.957,0.473 3.405,0.746 6.61,1.932 8.787,3.25 0.66,0.4 2.098,0.728 5.026,1.146 2.255,0.321 6.065,0.877 8.466,1.235 2.401,0.358 5.02,0.722 5.821,0.809 1.557,0.17 2.381,0.478 2.381,0.89 0,0.247 -2.175,0.373 -2.41,0.138 z M 60.117,144.077 c -2.81,-0.621 -5.537,-2.131 -6.705,-3.71 -1.349,-1.825 -1.721,-3.14 -1.723,-6.086 -0.002,-4.75 1.347,-8.704 6.747,-19.774 1.152,-2.363 2.676,-5.652 3.385,-7.31 1.29,-3.01 2.496,-5.197 2.863,-5.192 0.108,0.002 0.78,0.18 1.494,0.397 0.715,0.217 1.846,0.396 2.514,0.398 1.462,0.005 1.503,0.032 2.736,1.771 1.132,1.599 1.233,1.826 3.625,8.147 2.883,7.616 3.188,8.753 3.365,12.55 0.187,4.03 -0.19,5.883 -1.912,9.41 -2.718,5.563 -7.831,9.265 -13.161,9.527 -1.193,0.06 -2.646,10e-4 -3.228,-0.127 z M 37.901,102.81 c -0.08,-0.13 0.48,-0.44 1.246,-0.69 0.765,-0.25 3.832,-1.404 6.815,-2.566 2.983,-1.161 7.15,-2.683 9.26,-3.382 L 59.06,94.9 59.233,93.225 c 0.096,-0.921 0.36,-2.209 0.586,-2.862 0.227,-0.653 0.327,-1.264 0.224,-1.36 -0.104,-0.095 -1.299,-0.488 -2.655,-0.873 -5.79,-1.646 -12.46,-4.96 -16.912,-8.404 -0.908,-0.702 -2.039,-1.523 -2.514,-1.824 -0.601,-0.382 -0.682,-0.496 -0.267,-0.378 0.749,0.215 0.749,0.049 0,-0.8 -3.06,-3.465 -4.837,-9.4 -4.238,-14.146 0.629,-4.986 3.31,-9.013 7.315,-10.988 6.391,-3.152 11.266,-0.774 15.48,7.549 0.847,1.673 1.794,3.697 2.104,4.497 5.35,13.797 7.45,19.745 7.45,21.09 0,0.44 -0.257,0.767 -0.849,1.082 -0.467,0.248 -1.527,1.082 -2.355,1.855 -1.898,1.77 -2.683,3.473 -2.721,5.9 l -0.027,1.747 -2.786,0.812 c -1.533,0.446 -4.986,1.666 -7.673,2.71 -7.412,2.88 -11.333,4.236 -11.493,3.977 z m 39.81,-10.56 c 0,-0.358 0.128,-0.501 0.365,-0.41 0.758,0.29 6.807,-1.696 14.188,-4.66 4.013,-1.613 7.171,-2.655 7.475,-2.467 0.145,0.09 -0.852,0.55 -2.217,1.022 -1.364,0.473 -3.73,1.363 -5.258,1.979 -4.183,1.685 -10.296,3.88 -12.121,4.353 -0.891,0.231 -1.803,0.49 -2.026,0.576 -0.284,0.109 -0.405,-0.01 -0.405,-0.394 z m -2.15,-4.47 c -0.329,-0.419 -0.32,-0.428 0.1,-0.1 0.255,0.2 0.463,0.409 0.463,0.464 0,0.218 -0.217,0.077 -0.563,-0.363 z m 0.828,-8.761 c 0,-0.656 1.027,-2.739 1.844,-3.74 0.333,-0.409 0.121,0.248 -0.555,1.72 -1.269,2.758 -1.289,2.79 -1.289,2.02 z"
         style="fill:#76c101;stroke-width:0.26458332"
         inkscape:connector-curvature="0" />
      <path
         id="path1091"
         transform="translate(2.268,-3.024)"
         d="m 125.734,212.57 c -9.194,-0.965 -17.59,-3.67 -24.022,-7.74 -2.71,-1.713 -5.215,-3.78 -5.215,-4.303 0,-0.59 0.53,-0.423 1.582,0.495 3.495,3.054 9.508,6.218 15.099,7.945 4.737,1.463 5.589,1.66 10.042,2.312 4.93,0.722 6.278,0.672 14.373,-0.532 6.043,-0.9 13.293,-2.814 18.352,-4.847 1.561,-0.627 1.936,-0.65 1.936,-0.12 0,0.312 -2.922,1.626 -5.49,2.469 -5.34,1.75 -12.146,3.165 -20.255,4.21 -3.387,0.438 -3.303,0.436 -6.402,0.11 z m 42.685,-4.457 c -1.553,-0.08 -2.896,-0.218 -2.983,-0.306 -0.312,-0.315 0.184,-1.03 0.741,-1.07 0.312,-0.02 1.639,-0.012 2.948,0.02 4.465,0.109 10.412,-0.676 13.687,-1.806 4.804,-1.657 7.187,-3.578 9.778,-7.88 2.593,-4.306 3.372,-6.614 3.384,-10.024 0.01,-3 -0.865,-5.292 -2.913,-7.625 -1.035,-1.178 -2.165,-1.879 -4.131,-2.561 -1.747,-0.606 -6.774,-1.647 -10.147,-2.1 -4.132,-0.555 -4.009,-0.524 -3.912,-1.006 0.181,-0.905 6.224,-0.415 12.246,0.994 5.973,1.397 5.838,1.35 7.342,2.531 1.963,1.541 3.075,3.748 3.462,6.87 0.258,2.083 0.228,2.42 -0.448,4.957 -0.398,1.497 -0.882,3.316 -1.074,4.044 -1.988,7.526 -7.103,12.09 -15.737,14.04 -1.543,0.35 -3.877,0.701 -5.187,0.782 -1.31,0.081 -2.798,0.179 -3.307,0.217 -0.51,0.038 -2.196,0.004 -3.75,-0.077 z m -85.15,-7.438 C 71.577,198.908 64.403,195.1 60.862,188.778 c -1.57,-2.802 -2.145,-5.406 -2.642,-11.967 -0.374,-4.94 1.756,-9.443 5.28,-11.156 1.198,-0.583 1.972,-0.712 5.878,-0.975 4.588,-0.31 11.533,-0.186 12.964,0.232 0.791,0.23 1.28,1.12 0.615,1.118 -0.193,0 -3.505,0.04 -7.362,0.091 -5.572,0.074 -7.285,0.182 -8.346,0.525 -3.058,0.99 -5.614,3.544 -6.74,6.734 -0.788,2.23 -0.857,5.965 -0.156,8.394 0.745,2.581 2.26,6.353 3.048,7.584 3.205,5.011 10.774,8.583 21.512,10.15 1.275,0.187 1.975,0.678 1.67,1.172 -0.195,0.314 -1.209,0.313 -3.315,-0.006 z m 42.134,-3.018 C 114.307,196.495 104.307,193.79 95,189.435 c -1.041,-0.487 -1.972,-1.012 -2.067,-1.167 -0.349,-0.564 0.633,-0.562 1.743,0.003 3.817,1.948 10.59,4.389 16.109,5.806 8.619,2.212 13.5,2.782 23.68,2.762 12.148,-0.024 21.538,-1.019 26.484,-2.808 0.662,-0.239 0.978,-0.247 1.195,-0.03 0.657,0.657 -3.048,1.812 -8.232,2.566 -8.057,1.171 -22.472,1.723 -28.51,1.09 z m 35.36,-13.75 c -0.064,-0.065 -1.066,-0.241 -2.227,-0.393 -1.16,-0.152 -4.194,-0.584 -6.74,-0.96 -2.547,-0.377 -5.712,-0.84 -7.034,-1.03 -1.943,-0.28 -2.932,-0.607 -5.16,-1.703 -4.834,-2.378 -10.013,-3.282 -16.612,-2.9 -3.404,0.198 -5.627,0.558 -8.501,1.377 -1.743,0.497 -2.644,0.564 -7.408,0.556 -5.678,-0.01 -13.183,-0.53 -13.613,-0.94 -0.629,-0.602 0.332,-0.762 3.041,-0.508 4.77,0.448 13.017,0.741 14.673,0.522 a 31.624,31.624 0 0 0 3.175,-0.625 c 3.86,-1.008 6.609,-1.332 11.377,-1.338 3.64,-0.005 5.28,0.106 6.957,0.473 3.405,0.746 6.61,1.932 8.787,3.25 0.66,0.4 2.098,0.728 5.026,1.146 2.255,0.321 6.065,0.877 8.466,1.235 2.401,0.358 5.02,0.722 5.821,0.809 1.557,0.17 2.381,0.478 2.381,0.89 0,0.247 -2.175,0.373 -2.41,0.138 z M 37.9,102.81 c -0.08,-0.13 0.48,-0.44 1.246,-0.69 0.765,-0.25 3.832,-1.404 6.815,-2.566 2.983,-1.161 7.15,-2.683 9.26,-3.382 L 59.06,94.9 59.233,93.225 c 0.096,-0.921 0.36,-2.209 0.586,-2.862 0.227,-0.653 0.327,-1.264 0.224,-1.36 -0.104,-0.095 -1.299,-0.488 -2.655,-0.873 -5.79,-1.646 -12.46,-4.96 -16.912,-8.404 -0.908,-0.702 -2.031,-1.508 -2.496,-1.791 -0.82,-0.499 -0.825,-0.512 -0.16,-0.441 0.378,0.04 1.56,0.742 2.629,1.56 5.27,4.036 12.986,7.697 19.025,9.027 l 2.002,0.44 -0.784,1.582 c -0.623,1.257 -0.79,1.953 -0.811,3.394 l -0.027,1.813 -2.786,0.812 c -1.533,0.446 -4.986,1.666 -7.673,2.71 -7.412,2.88 -11.333,4.236 -11.493,3.977 z M 77.71,92.25 c 0,-0.358 0.128,-0.501 0.365,-0.41 0.758,0.29 6.807,-1.696 14.188,-4.66 4.013,-1.613 7.171,-2.655 7.475,-2.467 0.145,0.09 -0.852,0.55 -2.217,1.022 -1.364,0.473 -3.73,1.363 -5.258,1.979 -4.183,1.685 -10.296,3.88 -12.121,4.353 -0.891,0.231 -1.803,0.49 -2.026,0.576 -0.284,0.109 -0.405,-0.01 -0.405,-0.394 z m -2.15,-4.47 c -0.329,-0.419 -0.32,-0.428 0.1,-0.1 0.255,0.2 0.463,0.409 0.463,0.464 0,0.218 -0.217,0.077 -0.563,-0.363 z m 0.828,-8.587 c 0,-0.582 1.2,-3.13 1.841,-3.914 0.34,-0.414 0.134,0.228 -0.552,1.72 -1.223,2.659 -1.289,2.771 -1.289,2.194 z"
         style="fill:#2d5b95;stroke-width:0.26458332"
         inkscape:connector-curvature="0" />
    </g>
  </g>
</svg>
