<svg xmlns="http://www.w3.org/2000/svg" width="31.485mm" height="15.875mm" viewBox="0 0 31.485 15.875">
    <path transform="matrix(.26458 0 0 .26458 -13.378 -28.58)" d="M90.715 167.783c-1.307-.277-3.492-1.72-4.464-2.947-3.037-3.833-2.995-8.76.106-12.545.485-.592 1.643-1.521 2.573-2.065.93-.544 10.004-7.42 20.167-15.28 10.162-7.86 18.645-14.29 18.851-14.29.206 0 .375.098.375.219 0 .12-5.66 9.181-12.577 20.135-6.917 10.953-12.91 20.647-13.315 21.542-.868 1.912-2.697 3.844-4.436 4.686-.965.467-1.787.614-3.775.673-1.398.042-2.975-.016-3.505-.128zM96.577 161c2.893-2.771-.024-7.738-3.81-6.488-3.012.994-3.55 5.236-.878 6.915 1.292.811 3.617.6 4.688-.427zm38.77-.723c-.058-.182-.168-2.177-.245-4.432-.3-8.74-3.267-16.512-8.872-23.233-.936-1.122-1.337-1.812-1.224-2.106.364-.947 7.147-11.503 7.472-11.628.475-.182 1.126.282 4.059 2.894 9.961 8.87 17.079 22.952 18.144 35.898.163 1.981.13 2.261-.306 2.58-.688.503-18.871.529-19.029.027zm-84.78-3.11c-.042-3.88.63-9.799 1.43-12.593 4.686-16.351 17.026-29.032 33.285-34.204 4.577-1.456 9.633-2.15 15.657-2.15 8.8 0 15.336 1.435 22.754 4.998 3.917 1.88 5.482 2.854 5.374 3.34-.075.34-9.982 8.208-10.715 8.51-.172.07-1.22-.422-2.33-1.096-6.7-4.067-13.933-5.869-22.624-5.635-6.95.186-11.545 1.334-17.86 4.46-4.331 2.146-7.613 4.541-11.378 8.307-6.807 6.81-10.772 14.53-12.704 24.74-.8 4.235-.857 4.32-.89 1.324zm102.152-21.482c-.436-.436-.402-1.256.06-1.434.618-.237 15.394.344 15.896.625.411.23.394.274-.168.411-.346.085-3.427.224-6.847.31-3.42.086-6.758.213-7.42.282-.744.078-1.323.004-1.52-.194zm-5.25-8.018c-.084-.219-.077-.594.015-.836.154-.4.877-.422 8.43-.25 8.193.187 10.447.369 9.767.789-.328.203-10.896.661-15.737.683-1.828.008-2.356-.074-2.475-.386zm-5.89-6.96c-.193-.362-.178-.635.053-.95.297-.408.936-.422 7.869-.183 4.15.144 7.832.368 8.183.498l.639.236-.647.157c-.355.086-2.67.226-5.144.31a731.84 731.84 0 0 0-7.59.296c-2.857.132-3.111.105-3.362-.364z" style="fill:#ebe3a2;stroke-width:.26458335" />
    <path transform="matrix(.26458 0 0 .26458 -13.378 -28.58)" d="M90.715 167.783c-1.307-.277-3.492-1.72-4.464-2.947-3.037-3.833-2.995-8.76.106-12.545.485-.592 1.643-1.521 2.573-2.065.93-.544 10.004-7.42 20.167-15.28 10.162-7.86 18.645-14.29 18.851-14.29.206 0 .375.098.375.219 0 .12-5.66 9.181-12.577 20.135-6.917 10.953-12.91 20.647-13.315 21.542-.868 1.912-2.697 3.844-4.436 4.686-.965.467-1.787.614-3.775.673-1.398.042-2.975-.016-3.505-.128zM96.577 161c2.893-2.771-.024-7.738-3.81-6.488-3.012.994-3.55 5.236-.878 6.915 1.292.811 3.617.6 4.688-.427zm39.046-.951c-.065-.202-.179-2.213-.252-4.469-.075-2.298-.323-4.956-.565-6.046-1.338-6.037-4.23-12.09-7.917-16.576a120.031 120.031 0 0 1-1.44-1.776c-.307-.398.066-1.116 3.024-5.821 1.856-2.952 3.577-5.585 3.824-5.852.433-.466.509-.438 2.008.76 9.318 7.45 16.323 18.833 18.987 30.853.906 4.09 1.401 8.356 1.015 8.743-.2.2-3.238.335-9.43.423-7.643.107-9.154.068-9.254-.24zm-85.057-2.655c-.069-4.569 1.028-11.11 2.652-15.816 1.681-4.874 5.012-10.788 8.428-14.966 2.252-2.755 6.489-6.711 9.452-8.826 2.825-2.018 7.968-4.808 11.247-6.103 2.574-1.016 7.219-2.255 10.656-2.843 3.672-.628 12.219-.627 15.864.002 3.484.601 7.274 1.574 9.981 2.562 2.783 1.016 9.01 4.092 9.597 4.74.457.504-.136 1.014-9.611 8.259-.618.472-.653.465-2.249-.464-7.843-4.567-16.245-6.553-24.971-5.904-5.59.417-10.19 1.645-15.401 4.111-13.623 6.448-22.787 19.166-25.272 35.073l-.343 2.198zm102.213-22.216c-.1-.162-.036-.385.142-.495.364-.225 6.9-.08 8.74.193l1.19.177-1.852.176c-3.171.303-8.02.272-8.22-.051zm-5.013-7.65c-.38-.614.302-.786 2.996-.755 4.547.052 8.549.351 7.459.558-1.64.31-10.285.473-10.455.196zm-5.95-7.27c0-.335.602-.394 3.903-.377 2.147.01 4.439.105 5.094.21l1.19.188-1.852.186c-1.019.103-3.31.187-5.093.188-2.706.002-3.241-.063-3.241-.395z" style="fill:#9fcffe;stroke-width:.26458335" />
    <path transform="matrix(.26458 0 0 .26458 -13.378 -28.58)" d="M91.092 167.648c-4.191-1.37-6.69-4.74-6.69-9.025 0-3.558 1.652-6.412 4.71-8.138.8-.452 9.742-7.227 19.87-15.058 10.128-7.83 18.453-14.123 18.5-13.985.046.139-5.41 8.958-12.126 19.598-6.716 10.64-12.683 20.28-13.26 21.421-1.203 2.38-2.538 3.72-4.683 4.702-1.781.815-4.638 1.034-6.32.485zm4.696-5.784c2.925-1.476 3.14-5.162.418-7.193-1.142-.854-3.488-.765-4.723.177-2.51 1.915-2.145 5.817.664 7.092 1.46.663 2.208.647 3.641-.076zm39.835-1.815c-.065-.202-.179-2.213-.252-4.469-.075-2.298-.323-4.956-.565-6.046-1.338-6.037-4.23-12.09-7.917-16.576a120.031 120.031 0 0 1-1.44-1.776c-.307-.398.066-1.116 3.024-5.821 1.856-2.952 3.577-5.585 3.824-5.852.433-.466.509-.438 2.008.76 9.318 7.45 16.323 18.833 18.987 30.853.906 4.09 1.401 8.356 1.015 8.743-.2.2-3.238.335-9.43.423-7.643.107-9.154.068-9.254-.24zm-85.057-2.655c-.069-4.569 1.028-11.11 2.652-15.816 1.681-4.874 5.012-10.788 8.428-14.966 2.252-2.755 6.489-6.711 9.452-8.826 2.825-2.018 7.968-4.808 11.247-6.103 2.574-1.016 7.219-2.255 10.656-2.843 3.672-.628 12.219-.627 15.864.002 3.484.601 7.274 1.574 9.981 2.562 2.783 1.016 9.01 4.092 9.597 4.74.457.504-.136 1.014-9.611 8.259-.618.472-.653.465-2.249-.464-7.843-4.567-16.245-6.553-24.971-5.904-5.59.417-10.19 1.645-15.401 4.111-13.623 6.448-22.787 19.166-25.272 35.073l-.343 2.198zm102.213-22.216c-.1-.162-.036-.385.142-.495.364-.225 6.9-.08 8.74.193l1.19.177-1.852.176c-3.171.303-8.02.272-8.22-.051zm-5.013-7.65c-.38-.614.302-.786 2.996-.755 4.547.052 8.549.351 7.459.558-1.64.31-10.285.473-10.455.196zm-5.95-7.27c0-.335.602-.394 3.903-.377 2.147.01 4.439.105 5.094.21l1.19.188-1.852.186c-1.019.103-3.31.187-5.093.188-2.706.002-3.241-.063-3.241-.395z" style="fill:#f8c95e;stroke-width:.26458335" />
    <path transform="matrix(.26458 0 0 .26458 -13.378 -28.58)" d="M91.092 167.648c-4.191-1.37-6.69-4.74-6.69-9.025 0-3.558 1.652-6.412 4.71-8.138.8-.452 9.742-7.227 19.87-15.058 10.128-7.83 18.453-14.123 18.5-13.985.046.139-5.41 8.958-12.126 19.598-6.716 10.64-12.683 20.28-13.26 21.421-1.203 2.38-2.538 3.72-4.683 4.702-1.781.815-4.638 1.034-6.32.485zm4.696-5.784c2.925-1.476 3.14-5.162.418-7.193-1.142-.854-3.488-.765-4.723.177-2.51 1.915-2.145 5.817.664 7.092 1.46.663 2.208.647 3.641-.076zm39.867-5.424c-.085-2-.347-4.71-.58-6.02-1.1-6.147-4.308-12.989-8.395-17.9-.697-.838-1.268-1.649-1.268-1.802 0-.503 7.004-11.382 7.329-11.384.497-.003 3.416 2.505 6.128 5.266 6.618 6.735 11.561 15.56 13.912 24.834.846 3.337 1.469 7.2 1.47 9.123l.001 1.521H135.81Zm-84.952-.86c.067-1.528.226-3.195.354-3.704.127-.51.483-2.265.791-3.902 1.043-5.55 3.849-12.345 7.115-17.235 7.51-11.243 19.984-19.312 32.98-21.334 1.6-.249 3.144-.574 3.429-.724.734-.383 10.677-.351 11.064.036.163.163.624.297 1.024.297 1.47 0 6.481 1.122 9.685 2.17 3.738 1.22 11.27 4.825 11.111 5.316-.145.451-9.728 7.86-10.165 7.86-.2 0-.815-.287-1.369-.636-.553-.35-2.07-1.17-3.368-1.822-11.533-5.791-25.638-5.757-37.579.092-8.747 4.285-15.75 11.212-20.31 20.092-2.442 4.755-4.36 10.568-4.432 13.427-.017.692-.126 1.615-.241 2.052-.123.463-.16-.364-.089-1.985zm102.383-20.636c.169-.168.97-.18 2.236-.034l1.973.229-2.236.034c-1.48.023-2.147-.055-1.973-.229zm-4.92-7.674c0-.157.84-.252 2.051-.233 1.507.023 1.84.084 1.257.233-1.187.302-3.307.302-3.307 0zm-5.093-7.073c.619-.056 1.63-.056 2.25 0 .618.056.112.101-1.125.101s-1.743-.045-1.125-.101z" style="fill:#5daefe;stroke-width:.26458335" />
    <path transform="matrix(.26458 0 0 .26458 -13.378 -28.58)" d="M92.604 167.786c0-.127-.426-.3-.948-.384-2.376-.386-4.829-2.283-6.12-4.735-.663-1.26-.737-1.661-.737-4.044 0-2.351.078-2.793.7-3.969.91-1.72 2.244-3.068 4.13-4.176.836-.49 9.48-7.052 19.208-14.58 9.729-7.529 17.741-13.636 17.805-13.572.064.064-5.312 8.72-11.947 19.234-6.635 10.515-12.394 19.846-12.798 20.736-1.203 2.65-4.48 5.19-6.694 5.19-.265 0-.482.12-.482.265 0 .146-.476.265-1.058.265-.583 0-1.059-.104-1.059-.23zm2.658-5.326c1.064-.295 2.465-1.622 2.882-2.73 1.332-3.532-2.39-7.104-5.883-5.644-1.159.484-2.503 2.072-2.716 3.208-.306 1.63.091 2.816 1.346 4.02 1.418 1.361 2.54 1.655 4.37 1.146zm40.393-6.02c-.085-2-.347-4.71-.58-6.02-1.1-6.147-4.308-12.989-8.395-17.9-.697-.838-1.267-1.649-1.267-1.802 0-.503 7.003-11.382 7.328-11.384.497-.003 3.416 2.505 6.128 5.266 6.618 6.735 11.561 15.56 13.912 24.834.846 3.337 1.469 7.2 1.47 9.123l.001 1.521H135.81Zm-84.952-.86c.067-1.528.226-3.195.354-3.704.127-.51.483-2.265.791-3.902 1.043-5.55 3.849-12.345 7.115-17.235 7.51-11.243 19.984-19.312 32.98-21.334 1.6-.249 3.144-.574 3.429-.724.734-.383 10.677-.351 11.064.036.163.163.624.297 1.024.297 1.47 0 6.481 1.122 9.685 2.17 3.738 1.22 11.27 4.825 11.111 5.316-.145.451-9.728 7.86-10.165 7.86-.2 0-.815-.287-1.369-.636-.553-.35-2.07-1.17-3.368-1.822-11.533-5.791-25.638-5.757-37.579.092-8.747 4.285-15.75 11.212-20.31 20.092-2.442 4.755-4.36 10.568-4.432 13.427-.017.692-.126 1.615-.241 2.052-.123.463-.16-.364-.089-1.985zm102.383-20.636c.169-.168.97-.18 2.236-.034l1.973.229-2.236.034c-1.48.023-2.147-.055-1.973-.229zm-4.92-7.674c0-.157.84-.252 2.051-.233 1.507.023 1.84.084 1.257.233-1.187.302-3.307.302-3.307 0zm-5.093-7.073c.619-.056 1.63-.056 2.25 0 .618.056.112.101-1.125.101s-1.743-.045-1.125-.101z" style="fill:#f5ac03;stroke-width:.26458335" />
    <path transform="matrix(.26458 0 0 .26458 -13.378 -28.58)" d="M92.604 167.786c0-.127-.426-.3-.948-.384-2.376-.386-4.829-2.283-6.12-4.735-.663-1.26-.737-1.661-.737-4.044 0-2.351.078-2.793.7-3.969.91-1.72 2.244-3.068 4.13-4.176.836-.49 9.48-7.052 19.208-14.58 9.729-7.529 17.741-13.636 17.805-13.572.064.064-5.312 8.72-11.947 19.234-6.635 10.515-12.394 19.846-12.798 20.736-1.203 2.65-4.48 5.19-6.694 5.19-.265 0-.482.12-.482.265 0 .146-.476.265-1.058.265-.583 0-1.059-.104-1.059-.23zm2.658-5.326c1.064-.295 2.465-1.622 2.882-2.73 1.332-3.532-2.39-7.104-5.883-5.644-1.159.484-2.503 2.072-2.716 3.208-.306 1.63.091 2.816 1.346 4.02 1.418 1.361 2.54 1.655 4.37 1.146zm40.393-6.02c-.085-2-.347-4.71-.58-6.02-1.1-6.147-4.308-12.989-8.395-17.9-.697-.838-1.267-1.649-1.267-1.802 0-.503 7.003-11.382 7.328-11.384.497-.003 3.416 2.505 6.128 5.266 6.618 6.735 11.561 15.56 13.912 24.834.846 3.337 1.469 7.2 1.47 9.123l.001 1.521H135.81Z" style="fill:#188bfe;stroke-width:.26458335" />
    <path transform="matrix(.26458 0 0 .26458 -13.378 -28.58)" d="M135.655 156.44c-.085-2-.347-4.71-.58-6.02-1.1-6.147-4.308-12.989-8.395-17.9-.697-.838-1.268-1.649-1.268-1.802 0-.503 7.004-11.382 7.329-11.384.497-.003 3.416 2.505 6.128 5.266 6.618 6.735 11.561 15.56 13.912 24.834.846 3.337 1.469 7.2 1.47 9.123l.001 1.521H135.81Z" style="fill:#f04548;stroke-width:.26458335" />
</svg>